<svg id="Layer_1" data-name="Layer 1" xmlns="http://www.w3.org/2000/svg" xmlns:xlink="http://www.w3.org/1999/xlink" viewBox="0 0 95.34 104.32"><defs><style>.cls-1{fill:none;}.cls-2{clip-path:url(#clip-path);}.cls-3{fill:#244c66;}.cls-4{fill:#5aa9d3;}</style><clipPath id="clip-path"><rect class="cls-1" x="-3727.6" y="-7402.17" width="5059.95" height="6765.77"/></clipPath></defs><title>Index </title><path id="Shape" class="cls-3" d="M84.94,90.72H10.4A1.74,1.74,0,0,1,8.66,89V27.42a1.74,1.74,0,0,1,1.75-1.73H84.94a1.74,1.74,0,0,1,1.75,1.73V89A1.74,1.74,0,0,1,84.94,90.72ZM11.3,88.12l72.64,0.23V28.87L11.3,28.64V88.12Z"/><path id="Shape-2" data-name="Shape" class="cls-3" d="M8.66,27.42V15.33A1.74,1.74,0,0,1,10.4,13.6H47.67a1.76,1.76,0,0,1,1.24.51L61.13,26.2m-5.45-.51L46.95,16.3H11.3v9.39"/><rect id="Rectangle-path" class="cls-4" x="23.28" y="56.74" width="46.3" height="3.73" transform="translate(-27.84 49.99) rotate(-45)"/><path id="Shape-3" data-name="Shape" class="cls-4" d="M46.43,72.87A25.29,25.29,0,0,1,39.79,72l1-3.55a21.55,21.55,0,0,0,5.65.73A19.7,19.7,0,0,0,64.24,58.61a21,21,0,0,0-4.72-5.88L62,50A23.6,23.6,0,0,1,68,57.9a1.81,1.81,0,0,1,0,1.4A23.41,23.41,0,0,1,46.43,72.87Z"/><path id="Shape-4" data-name="Shape" class="cls-4" d="M30.89,67.26a23.57,23.57,0,0,1-6.06-8,1.83,1.83,0,0,1,0-1.4,23.41,23.41,0,0,1,21.6-13.56,25.34,25.34,0,0,1,6.63.86l-1,3.55A21.56,21.56,0,0,0,46.42,48,19.7,19.7,0,0,0,28.62,58.6a21,21,0,0,0,4.72,5.88Z"/><path id="Shape-5" data-name="Shape" class="cls-4" d="M46.43,65.4a6.8,6.8,0,1,1,6.88-6.8A6.84,6.84,0,0,1,46.43,65.4Zm0-9.91a3.11,3.11,0,1,0,3.15,3.11A3.14,3.14,0,0,0,46.43,55.49Z"/></svg>