<?xml version="1.0" encoding="utf-8"?>
<!-- Generator: Adobe Illustrator 19.2.0, SVG Export Plug-In . SVG Version: 6.00 Build 0)  -->
<svg version="1.1" id="Layer_1" xmlns="http://www.w3.org/2000/svg" xmlns:xlink="http://www.w3.org/1999/xlink" x="0px" y="0px"
	 viewBox="0 0 95.3 104.3" style="enable-background:new 0 0 95.3 104.3;" xml:space="preserve">
<style type="text/css">
	.st0{fill:#5AA9D3;}
	.st1{fill:#244C66;}
</style>
<title>Index</title>
<path class="st0" d="M25.7,30.3h4.8V19.5h-2.4v7.3c0,0.7-0.5,1.2-1.2,1.2h-1.2V30.3"/>
<path class="st0" d="M13.6,30.3h4.8v-2.4h-1.2c-0.7,0-1.2-0.5-1.2-1.2v-7.3h-2.4L13.6,30.3"/>
<path class="st0" d="M29.2,32.8h-2.5c-0.7,2.6-3.3,4.2-5.9,3.5c-1.7-0.4-3.1-1.8-3.5-3.5h-2.5c0.7,4,4.4,6.6,8.4,5.9
	C26.3,38.2,28.7,35.8,29.2,32.8"/>
<path class="st1" d="M26.9,15.8c0.7,0,1.2,0.5,1.2,1.2c0,0,0,0,0,0h3.6c0.7,0,1.2,0.5,1.2,1.2v12.1c0.7,0,1.2,0.5,1.2,1.2v10.9h-8.5
	c-0.7,0-1.2,0.5-1.2,1.2c0,0.7,0.5,1.2,1.2,1.2c0,0,0,0,0,0h8.5v2.4h-8.5c-0.7,0-1.2,0.5-1.2,1.2c0,0.7,0.5,1.2,1.2,1.2h7.7
	l-0.7,2.4h-7c-0.7,0-1.2,0.5-1.2,1.2c0,0.7,0.5,1.2,1.2,1.2c0,0,0,0,0,0H32L31.2,57h-5.5c-0.7,0-1.2,0.5-1.2,1.2
	c0,0.7,0.5,1.2,1.2,1.2c0,0,0,0,0,0h4.8l-1.2,4c-0.2,0.5-0.6,0.9-1.2,0.8h-2.4l1.8,1.8h0.6c1.3,0,2.5-0.9,2.9-2.2l1.2-4
	c0.1-0.5,0.1-0.9-0.1-1.4c0.4-0.2,0.7-0.6,0.9-1.1l0.7-2.4c0.1-0.5,0.1-0.9-0.1-1.4c0.4-0.2,0.7-0.6,0.8-1.1l0.8-2.4
	c0.1-0.5,0.1-1-0.1-1.4c0.6-0.3,0.9-0.9,0.9-1.6v-2.4c0-0.4-0.2-0.9-0.5-1.2c0.3-0.3,0.5-0.8,0.5-1.2V31.6c0-1-0.4-1.9-1.2-2.4V18.2
	c0-1.7-1.3-3-3-3h-2.4c-0.6-0.8-1.5-1.2-2.4-1.2h-9.7c-1,0-1.9,0.4-2.4,1.2h-2.4c-1.7,0-3,1.3-3,3v10.9c-0.8,0.6-1.2,1.5-1.2,2.4
	v10.9c0,0.4,0.2,0.9,0.5,1.2c-0.3,0.3-0.5,0.8-0.5,1.2v2.4c0,0.6,0.3,1.2,0.9,1.6c-0.2,0.4-0.3,0.9-0.1,1.4l0.7,2.4
	c0.1,0.5,0.4,0.8,0.9,1.1c-0.2,0.4-0.2,0.9-0.1,1.4l0.8,2.4c0.1,0.5,0.4,0.8,0.9,1.1c-0.2,0.4-0.3,0.9-0.1,1.4l1.2,4
	c0.4,1.3,1.6,2.2,2.9,2.1h0.8v-1.8H16c-0.5,0-1-0.3-1.2-0.8l-1.2-4h4.8c0.7-0.1,1.1-0.7,1-1.4c-0.1-0.5-0.5-1-1-1h-5.6l-0.7-2.4h6.3
	c0.7,0,1.2-0.5,1.2-1.2c0-0.7-0.5-1.2-1.2-1.2h-7l-0.7-2.4h7.7c0.7,0,1.2-0.5,1.2-1.2c0-0.7-0.5-1.2-1.2-1.2H9.9v-2.4h8.5
	c0.7,0,1.2-0.5,1.2-1.2c0-0.7-0.5-1.2-1.2-1.2H9.9V31.6c0-0.7,0.5-1.2,1.2-1.2h0V18.2c0-0.7,0.5-1.2,1.2-1.2c0,0,0,0,0,0H16
	c0-0.7,0.5-1.2,1.2-1.2L26.9,15.8"/>
<path class="st1" d="M18.4,18.2v7.3v0h1.2c0.7,0,1.2,0.5,1.2,1.2v3.6h2.4v-3.6c0-0.6,0.5-1.2,1.2-1.2h1.2v-7.3H18.4z M23.8,23.7
	c-0.7,0.1-1.4,0.6-1.8,1.1c-0.4-0.6-1.1-1-1.8-1.1v-3.7l0,0h3.6V23.7z"/>
<g>
	<path class="st1" d="M33,80.3h7.3c4.1,0,7.5-3.4,7.5-7.5V54.9l-2.3-1.2v19.1c0,2.9-2.3,5.2-5.2,5.2H33c-2.9,0-5.2-2.3-5.2-5.2v-8.5
		c0,0-2.3,0-2.3,0v8.5C25.5,76.9,28.8,80.3,33,80.3z"/>
	<path class="st1" d="M54.5,58.1v14.7c0,7.8-6.4,14.2-14.3,14.3H33c-7.9,0-14.3-6.4-14.3-14.3v-8.5c0,0-2.3,0-2.3,0c0,0,0,8.5,0,8.5
		c0,9.1,7.5,16.5,16.6,16.6h7.3c9.1,0,16.6-7.4,16.6-16.6V59.2L54.5,58.1z"/>
</g>
<g>
	<path class="st1" d="M71.3,22.9h-8.5c-4.1,0-7.5,3.4-7.5,7.5v19.1l2.3,1.2V30.4c0-2.9,2.3-5.2,5.2-5.2h8.5c2.9,0,5.2,2.3,5.2,5.2
		v59h2.3v-59C78.8,26.2,75.4,22.9,71.3,22.9z"/>
	<path class="st1" d="M71.3,13.7h-8.5c-9.2,0-16.6,7.5-16.6,16.6v14.3l2.3,1.2V30.4c0-7.9,6.4-14.3,14.3-14.3h8.5
		c7.9,0,14.3,6.4,14.3,14.3v59h2.3v-59C87.9,21.2,80.5,13.8,71.3,13.7z"/>
</g>
<path class="st1" d="M25.7,72.8"/>
</svg>
