<?xml version="1.0" encoding="utf-8"?>
<!-- Generator: Adobe Illustrator 19.2.0, SVG Export Plug-In . SVG Version: 6.00 Build 0)  -->
<svg version="1.1" id="Layer_1" xmlns="http://www.w3.org/2000/svg" xmlns:xlink="http://www.w3.org/1999/xlink" x="0px" y="0px"
	 viewBox="0 0 95.3 104.3" style="enable-background:new 0 0 95.3 104.3;" xml:space="preserve">
<style type="text/css">
	.st0{fill:#244C66;}
	.st1{fill:#5AA9D3;}
</style>
<title>Index</title>
<path class="st0" d="M78.6,13.2h-9c-1.1-1.5-2.9-2.4-4.8-2.3h-6.6c-0.7,0-1.2-0.5-1.2-1.2c-0.1-3.3-2.6-5.8-5.8-5.8h-7
	c-3.1,0-5.6,2.5-5.8,5.6c0,0.7-0.5,1.3-1.2,1.4h-6.7c-1.9-0.1-3.7,0.9-4.9,2.3h-8.9c-2.9,0-5.3,2.4-5.3,5.3v76.9
	c0,2.9,2.4,5.3,5.3,5.3h61.9c2.9,0,5.3-2.4,5.3-5.3V18.5C83.9,15.6,81.5,13.2,78.6,13.2z M30.4,13.3c0.1,0,0.1,0,0.2,0h6.7
	c2,0,3.7-1.7,3.6-3.7c0.1-1.8,1.5-3.3,3.3-3.3h7c0.9,0,1.7,0.4,2.3,1c0.6,0.6,0.9,1.4,0.8,2.2c0,2,1.7,3.6,3.8,3.6l6.7,0
	c1.5-0.1,3,1,3.4,2.5c0.2,0.9,0.1,1.7-0.5,2.4c-1,1.4-2.6,1.6-2.8,1.6H30.5c-0.8,0-1.7-0.3-2.3-0.7c-0.8-0.6-1.2-1.7-1.1-2.8
	C27.3,14.6,28.8,13.3,30.4,13.3z M80.9,95.4c0,1.3-1,2.3-2.3,2.3H16.7c-1.3,0-2.3-1-2.3-2.3V18.5c0-1.3,1-2.3,2.3-2.3l7.8-0.1
	c-0.2,1.7,0.6,3.6,1.9,4.7c1.2,1,2.5,1.5,4,1.5H65c3.1,0,5.8-2.6,5.8-5.8c0-0.1,0-0.2,0-0.3h8c1.2,0,2.2,1.1,2.2,2.3V95.4z"/>
<rect id="Rectangle-path" x="27.3" y="46.9" class="st1" width="20.4" height="2"/>
<rect id="Rectangle-path-2" x="27.3" y="42.5" class="st1" width="20.4" height="2"/>
<rect id="Rectangle-path-3" x="27.3" y="51.4" class="st1" width="7.8" height="2"/>
<polygon class="st0" points="35.1,56.9 30.7,57 26.6,61.2 26.6,57 22.7,57 22.7,39.2 52.3,39 52.3,53.7 54.6,53.7 54.6,36.8 
	20.4,36.8 20.4,59 24.3,59 24.3,66 31.2,59 35.1,59 "/>
<polygon class="st0" points="34.6,82.2 71.2,45.5 73.1,47.4 36.5,84.1 "/>
<g>
	<polygon class="st0" points="69.7,53.7 72.7,53.7 72.7,74.3 69,74.3 69,79 64.3,74.4 48.9,74.4 46.7,76.6 63.4,76.6 71.3,84.5 
		71.3,76.6 75,76.6 75,51.4 72,51.4 	"/>
	<polygon class="st0" points="39.6,74.4 37.4,74.4 37.4,53.7 60.2,53.7 62.5,51.4 35.1,51.4 35.1,76.6 37.4,76.6 	"/>
</g>
<g>
	<polygon class="st1" points="56,57.8 42.9,57.8 42.9,60.1 53.7,60.1 	"/>
	<polygon class="st1" points="63.2,60.1 67.2,60.1 67.2,57.8 65.5,57.8 	"/>
</g>
<g>
	<polygon class="st1" points="51.1,62.8 42.9,62.8 42.9,65.1 48.8,65.1 	"/>
	<polygon class="st1" points="58.3,65.1 67.2,65.1 67.2,62.8 60.6,62.8 	"/>
</g>
<polygon class="st1" points="53.5,69.7 53.5,70.2 67.1,70.2 67.1,67.9 55.4,67.9 "/>
</svg>
