<?xml version="1.0" encoding="utf-8"?>
<!-- Generator: Adobe Illustrator 16.0.0, SVG Export Plug-In . SVG Version: 6.00 Build 0)  -->
<!DOCTYPE svg PUBLIC "-//W3C//DTD SVG 1.1//EN" "http://www.w3.org/Graphics/SVG/1.1/DTD/svg11.dtd">
<svg version="1.1" id="Layer_1" xmlns="http://www.w3.org/2000/svg" xmlns:xlink="http://www.w3.org/1999/xlink" x="0px" y="0px"
	 width="213.6px" height="213.6px" viewBox="13.8 16.5 213.6 213.6" enable-background="new 13.8 16.5 213.6 213.6"
	 xml:space="preserve">
<g>
	<circle fill="none" stroke="#FFFAF0" stroke-width="20" stroke-miterlimit="10" cx="120.6" cy="123.3" r="96.8"/>
	<rect x="56.9" y="113.5" fill="#FFFAF0" width="20.5" height="45.6"/>
	<rect x="89.8" y="103.5" fill="#FFFAF0" width="20.5" height="55.6"/>
	<rect x="123.2" y="93.7" fill="#FFFAF0" width="20.5" height="65.399"/>
	<rect x="156.1" y="79.4" fill="#FFFAF0" width="20.5" height="79.6"/>
</g>
<text transform="matrix(1 0 0 1 257.8491 158.9346)" fill="#FFFAF0" font-family="'Platform-Bold'" font-size="114" letter-spacing="2">R</text>
<text transform="matrix(1 0 0 1 324.4492 158.9346)" fill="#FFFAF0" font-family="'Platform-Bold'" font-size="114">A</text>
<text transform="matrix(1 0 0 1 399.4492 158.9346)" fill="#FFFAF0" font-family="'Platform-Bold'" font-size="114">N</text>
<text transform="matrix(1 0 0 1 476.749 158.9346)" fill="#FFFAF0" font-family="'Platform-Bold'" font-size="114">K</text>
<text transform="matrix(1 0 0 1 542.9492 158.9346)" fill="#FFFAF0" font-family="'Platform-Bold'" font-size="114">I</text>
<text transform="matrix(1 0 0 1 571.6489 158.9346)" fill="#FFFAF0" font-family="'Platform-Bold'" font-size="114">NG DIGI</text>
<text transform="matrix(1 0 0 1 956.5488 158.9346)" fill="#FFFAF0" font-family="'Platform-Bold'" font-size="114" letter-spacing="-6">T</text>
<text transform="matrix(1 0 0 1 998.1484 158.9346)" fill="#FFFAF0" font-family="'Platform-Bold'" font-size="114">AL </text>
<text transform="matrix(1 0 0 1 1134.0488 158.9346)" fill="#FFFAF0" font-family="'Platform-Bold'" font-size="114">R</text>
<text transform="matrix(1 0 0 1 1196.749 158.9346)" fill="#FFFAF0" font-family="'Platform-Bold'" font-size="114">IGH</text>
<text transform="matrix(1 0 0 1 1383.3496 158.9346)" fill="#FFFAF0" font-family="'Platform-Bold'" font-size="114">T</text>
<text transform="matrix(1 0 0 1 1431.249 158.9346)" fill="#FFFAF0" font-family="'Platform-Bold'" font-size="114">S</text>
</svg>
