<?xml version="1.0" encoding="utf-8"?>
<!-- Generator: Adobe Illustrator 16.0.0, SVG Export Plug-In . SVG Version: 6.00 Build 0)  -->
<!DOCTYPE svg PUBLIC "-//W3C//DTD SVG 1.1//EN" "http://www.w3.org/Graphics/SVG/1.1/DTD/svg11.dtd">
<svg version="1.1" id="Layer_1" xmlns="http://www.w3.org/2000/svg" xmlns:xlink="http://www.w3.org/1999/xlink" x="0px" y="0px"
	 width="1231.311px" height="108.426px" viewBox="0 0 1231.311 108.426" enable-background="new 0 0 1231.311 108.426"
	 xml:space="preserve">
<g enable-background="new    ">
	<path fill="#FFFAF0" d="M44.951,56.633l18.012,36.023H42.557L27.054,60.28h-5.13v32.376H3V13.77h27.131
		c16.53,0,24.852,8.55,24.852,23.483C54.983,46.031,51.335,52.757,44.951,56.633z M21.924,30.186v14.592h6.612
		c4.332,0,6.84-2.965,6.84-7.41c0-4.332-2.622-7.182-6.84-7.182H21.924z"/>
</g>
<g enable-background="new    ">
	<path fill="#FFFAF0" d="M114.173,73.847H89.322l-6.498,18.81H64.128L91.716,13.77h20.063l29.184,78.887h-20.178L114.173,73.847z
		 M94.793,57.887h13.908l-6.954-19.949L94.793,57.887z"/>
</g>
<g enable-background="new    ">
	<path fill="#FFFAF0" d="M162.954,46.031v46.625H144.6V13.77h19.607l29.64,47.651V13.77h18.354v78.887h-18.81L162.954,46.031z"/>
</g>
<g enable-background="new    ">
	<path fill="#FFFAF0" d="M240.938,44.663l21.546-30.894h22.001l-27.702,37.733l27.588,41.153h-22.23l-21.204-32.262v32.262H221.9
		V13.77h19.038V44.663z"/>
</g>
<g enable-background="new    ">
	<path fill="#FFFAF0" d="M307.138,92.656H288.1V13.77h19.038V92.656z"/>
</g>
<g enable-background="new    ">
	<path fill="#FFFAF0" d="M335.153,46.031v46.625H316.8V13.77h19.607l29.64,47.651V13.77H384.4v78.887h-18.81L335.153,46.031z"/>
	<path fill="#FFFAF0" d="M468.646,92.656h-18.354V88.78c-3.762,2.964-9.689,5.244-18.125,5.244
		c-24.396,0-40.926-16.302-40.926-40.926c0-21.888,15.96-40.812,40.926-40.812c17.213,0,27.701,7.296,33.516,16.644l-15.048,10.83
		c-3.306-4.674-8.664-9.689-18.582-9.689c-12.426,0-20.976,9.462-20.976,23.027c0,14.25,9.462,23.37,22.002,23.37
		c8.777,0,14.478-3.534,16.871-6.042v-5.7h-11.742V49.108h30.438V92.656z"/>
	<path fill="#FFFAF0" d="M512.535,13.77c26.105,0,42.064,14.478,42.064,39.215c0,24.624-15.959,39.672-42.064,39.672h-18.012V13.77
		H512.535z M513.561,75.898c12.54,0.114,21.203-7.523,21.203-22.8c0-15.161-8.321-22.686-21.203-22.571V75.898z"/>
	<path fill="#FFFAF0" d="M580.478,92.656h-19.038V13.77h19.038V92.656z"/>
	<path fill="#FFFAF0" d="M664.723,92.656h-18.354V88.78c-3.764,2.964-9.691,5.244-18.127,5.244
		c-24.396,0-40.926-16.302-40.926-40.926c0-21.888,15.961-40.812,40.926-40.812c17.215,0,27.701,7.296,33.516,16.644l-15.047,10.83
		c-3.307-4.674-8.664-9.689-18.582-9.689c-12.426,0-20.977,9.462-20.977,23.027c0,14.25,9.463,23.37,22.002,23.37
		c8.777,0,14.479-3.534,16.871-6.042v-5.7h-11.74V49.108h30.438V92.656z"/>
	<path fill="#FFFAF0" d="M692.537,92.656H673.5V13.77h19.037V92.656z"/>
</g>
<g enable-background="new    ">
	<path fill="#FFFAF0" d="M731.225,31.553v61.104h-19.037V31.553h-13.224V13.77h45.371v17.783H731.225z"/>
</g>
<g enable-background="new    ">
	<path fill="#FFFAF0" d="M787.873,73.847h-24.852l-6.498,18.81h-18.696l27.588-78.887h20.063l29.184,78.887h-20.178L787.873,73.847z
		 M768.492,57.887H782.4l-6.953-19.949L768.492,57.887z"/>
	<path fill="#FFFAF0" d="M818.311,92.656V13.77h19.037v61.103h18.012v17.784H818.311z"/>
</g>
<g enable-background="new    ">
	<path fill="#FFFAF0" d="M921.15,56.633l18.012,36.023h-20.405L903.254,60.28h-5.131v32.376h-18.924V13.77h27.132
		c16.53,0,24.852,8.55,24.852,23.483C931.183,46.031,927.535,52.757,921.15,56.633z M898.123,30.186v14.592h6.612
		c4.332,0,6.84-2.965,6.84-7.41c0-4.332-2.622-7.182-6.84-7.182H898.123z"/>
</g>
<g enable-background="new    ">
	<path fill="#FFFAF0" d="M960.938,92.656H941.9V13.77h19.037V92.656z"/>
	<path fill="#FFFAF0" d="M1045.182,92.656h-18.354V88.78c-3.762,2.964-9.689,5.244-18.125,5.244
		c-24.396,0-40.926-16.302-40.926-40.926c0-21.888,15.959-40.812,40.926-40.812c17.213,0,27.701,7.296,33.515,16.644l-15.048,10.83
		c-3.306-4.674-8.664-9.689-18.582-9.689c-12.426,0-20.975,9.462-20.975,23.027c0,14.25,9.461,23.37,22.001,23.37
		c8.778,0,14.478-3.534,16.872-6.042v-5.7h-11.742V49.108h30.438V92.656z"/>
	<path fill="#FFFAF0" d="M1119.396,92.656h-19.038V61.535h-27.359v31.121h-19.037V13.77h19.037v29.64h27.359V13.77h19.038V92.656z"
		/>
</g>
<g enable-background="new    ">
	<path fill="#FFFAF0" d="M1158.025,31.553v61.104h-19.037V31.553h-13.224V13.77h45.371v17.783H1158.025z"/>
</g>
<g enable-background="new    ">
	<path fill="#FFFAF0" d="M1201.137,42.155l9.918,3.876c10.26,4.218,16.303,11.058,16.303,22.8c0,15.959-11.286,25.308-27.132,25.308
		c-22.571,0-26.676-14.706-25.991-26.22h18.012c-0.229,5.016,1.709,9.918,7.979,9.918c4.332,0,7.524-2.395,7.524-6.954
		c0-4.446-3.192-6.612-8.322-8.55c-3.99-1.597-7.98-3.078-12.312-5.244c-7.979-4.104-12.197-11.856-12.197-21.432
		c0-13.794,10.031-23.37,25.422-23.37c18.582,0,25.307,10.603,24.51,24.624h-17.557c0.114-4.902-2.394-8.322-6.84-8.322
		c-4.332,0-6.498,2.622-6.498,5.928C1193.955,37.823,1195.779,40.103,1201.137,42.155z"/>
</g>
</svg>
