<?xml version="1.0" encoding="UTF-8"?>
<svg width="90px" height="90px" viewBox="0 0 90 90" version="1.1" xmlns="http://www.w3.org/2000/svg" xmlns:xlink="http://www.w3.org/1999/xlink">
    <!-- Generator: Sketch 54.1 (76490) - https://sketchapp.com -->
    <title>01_highlights</title>
    <desc>Created with Sketch.</desc>
    <g id="01_highlights" stroke="none" stroke-width="1" fill="none" fill-rule="evenodd">
        <path d="M53.4545377,51 L67.242295,65.5184598 C68.2417684,66.5709019 68.2247534,68.2268658 67.2038656,69.2585487 L67.2038656,69.2585487 C66.2358383,70.236812 64.658058,70.24511 63.6797946,69.2770827 C63.6536833,69.2512447 63.6281466,69.2248324 63.6032031,69.1978653 L50,54.4910665 L53.4545377,51 Z" id="Rectangle" stroke="#214C68" stroke-width="3" fill-rule="nonzero"></path>
        <circle id="Oval" stroke="#214C68" stroke-width="3" fill-rule="nonzero" cx="39.5" cy="39.5" r="18"></circle>
        <path d="M43,48.9723428 C43,50.0875542 41.92,51 40.6,51 L39.4,51 C38.08,51 37,50.0875542 37,48.9723428 L37,48.0276572 C37,46.9124458 38.08,46 39.4,46 L40.6,46 C41.92,46 43,46.9124458 43,48.0276572 L43,48.9723428 Z M43,39.921295 C43,41.0645828 41.92,42 40.6,42 L39.4,42 C38.08,42 37,41.0645828 37,39.921295 L37,28.078705 C37,26.9354172 38.08,26 39.4,26 L40.6,26 C41.92,26 43,26.9354172 43,28.078705 L43,39.921295 Z" id="Combined-Shape" fill="#4D9ECF" fill-rule="nonzero"></path>
    </g>
</svg>