<?xml version="1.0" encoding="UTF-8"?>
<svg width="90px" height="90px" viewBox="0 0 90 90" version="1.1" xmlns="http://www.w3.org/2000/svg" xmlns:xlink="http://www.w3.org/1999/xlink">
    <!-- Generator: Sketch 54.1 (76490) - https://sketchapp.com -->
    <title>01_highlights</title>
    <desc>Created with Sketch.</desc>
    <g id="01_highlights" stroke="none" stroke-width="1" fill="none" fill-rule="evenodd">
        <path d="M58.6060502,54 L77.3377582,73.4648906 C78.4721736,74.6437084 78.4529494,76.5140678 77.2945437,77.6693194 L76.6868499,78.2753585 C75.5136809,79.4453331 73.6141877,79.4427436 72.4442131,78.2695746 C72.4223267,78.2476284 72.4007816,78.2253443 72.3795858,78.2027304 L54,58.5935086 L58.6060502,54 Z" id="Rectangle" stroke="#214C68" stroke-width="3" fill-rule="nonzero"></path>
        <circle id="Oval" stroke="#214C68" stroke-width="3" fill-rule="nonzero" cx="37.5" cy="37.5" r="24"></circle>
        <path d="M41,48.9723428 C41,50.0875542 39.92,51 38.6,51 L37.4,51 C36.08,51 35,50.0875542 35,48.9723428 L35,48.0276572 C35,46.9124458 36.08,46 37.4,46 L38.6,46 C39.92,46 41,46.9124458 41,48.0276572 L41,48.9723428 Z M41,39.6614569 C41,40.9476556 39.92,42 38.6,42 L37.4,42 C36.08,42 35,40.9476556 35,39.6614569 L35,26.3385431 C35,25.0523444 36.08,24 37.4,24 L38.6,24 C39.92,24 41,25.0523444 41,26.3385431 L41,39.6614569 Z" id="Combined-Shape" fill="#4D9ECF" fill-rule="nonzero"></path>
    </g>
</svg>