<?xml version="1.0" encoding="UTF-8"?>
<svg width="90px" height="90px" viewBox="0 0 90 90" version="1.1" xmlns="http://www.w3.org/2000/svg" xmlns:xlink="http://www.w3.org/1999/xlink">
    <!-- Generator: Sketch 54.1 (76490) - https://sketchapp.com -->
    <title>01_highlights</title>
    <desc>Created with Sketch.</desc>
    <g id="01_highlights" stroke="none" stroke-width="1" fill="none" fill-rule="evenodd">
        <path d="M62.6060502,54 L81.3377582,73.4648906 C82.4721736,74.6437084 82.4529494,76.5140678 81.2945437,77.6693194 L80.6868499,78.2753585 C79.5136809,79.4453331 77.6141877,79.4427436 76.4442131,78.2695746 C76.4223267,78.2476284 76.4007816,78.2253443 76.3795858,78.2027304 L58,58.5935086 L62.6060502,54 Z" id="Rectangle" stroke="#214C68" stroke-width="3" fill-rule="nonzero"></path>
        <circle id="Oval" stroke="#214C68" stroke-width="3" fill-rule="nonzero" cx="43.5" cy="38.5" r="24"></circle>
        <path d="M61.5,32.6 L53.5,40.6 C52,40 50.4,40 48.9,40.6 L44.6,36.3 C45.5,34.1 45.1,31.5 43.3,29.7 C40.9,27.3 37.1,27.3 34.7,29.7 C32.9,31.5 32.5,34.1 33.4,36.3 L27.2,42.5 C27.4,44.3 27.9,46 28.7,47.6 L36.7,39.6 C38.2,40.2 39.8,40.2 41.3,39.6 L45.6,43.9 C44.7,46.1 45.1,48.7 46.9,50.5 C49.3,52.9 53.1,52.9 55.5,50.5 C57.3,48.7 57.7,46.1 56.8,43.9 L62.9,37.8 C62.7,36 62.2,34.2 61.5,32.6 Z" id="Path" stroke="#FFFFFF" fill="#4D9ECF" fill-rule="nonzero"></path>
    </g>
</svg>