<?xml version="1.0" encoding="UTF-8"?>
<svg width="90px" height="90px" viewBox="0 0 90 90" version="1.1" xmlns="http://www.w3.org/2000/svg" xmlns:xlink="http://www.w3.org/1999/xlink">
    <!-- Generator: Sketch 54.1 (76490) - https://sketchapp.com -->
    <title>02_governance</title>
    <desc>Created with Sketch.</desc>
    <g id="02_governance" stroke="none" stroke-width="1" fill="none" fill-rule="evenodd">
        <path d="M77.8146367,59.5421855 C78.4570138,59.2695332 78.7913561,58.5438842 78.5658275,57.8709877 L72.6669951,40.2709877 C72.4825947,39.720803 71.9672405,39.35 71.3869762,39.35 L17.9555454,39.35 C17.3584211,39.35 16.8322324,39.7422812 16.6617419,40.314549 L11.4183354,57.914549 C11.3810681,58.0396404 11.3621389,58.1694752 11.3621389,58.3 C11.3621389,59.0455844 11.9665545,59.65 12.7121389,59.65 L73,59.65 C73.2674471,59.65 74.5824942,59.6336982 75.5515861,59.6150301 C76.2201975,59.6021504 76.7882819,59.5876959 77.2145704,59.5719346 C77.4478656,59.563309 77.6340963,59.5544378 77.7653879,59.5456675 C77.7831801,59.544479 77.7996363,59.5433124 77.8146367,59.5421855 Z" id="Path" stroke="#4D9ECF" stroke-width="2.7" fill-rule="nonzero"></path>
        <g id="Group-Copy-4" transform="translate(22.000000, 15.000000)" fill-rule="nonzero" stroke="#214C68" stroke-width="2.43">
            <circle id="Oval-Copy-3" cx="12" cy="7.89189189" r="5.785"></circle>
            <path d="M3.46243681,21.8116923 L19.5142838,21.7906289 C19.057148,21.3789627 18.5431344,21.0275427 17.9831697,20.7483718 L14.9597013,19.2410192 L14.8273195,19.3028932 C12.8989357,20.2042019 10.6833494,20.2664544 8.70739885,19.4748478 C8.38240091,19.344647 8.24336287,19.2889455 8.07747671,19.222488 C7.88613767,19.3178783 7.74606233,19.3877129 7.3825182,19.568958 C6.1996744,20.1586655 6.1996744,20.1586655 5.0168306,20.7483729 C4.44731759,21.0323039 3.92535802,21.390961 3.46243681,21.8116923 Z" id="Shape"></path>
        </g>
        <g id="Group-Copy-5" transform="translate(47.000000, 15.000000)" fill-rule="nonzero" stroke="#214C68" stroke-width="2.43">
            <ellipse id="Oval-Copy-3" cx="11.5" cy="7.89189189" rx="5.285" ry="5.785"></ellipse>
            <path d="M3.38213675,21.7894861 L18.6120086,21.7839828 C18.157686,21.3575608 17.6440478,20.9916476 17.082238,20.6988254 L14.3066193,19.252139 C12.3427351,20.1695698 10.0804182,20.2168607 8.07724549,19.3778705 C7.89399761,19.3011206 7.86475058,19.2888711 7.73066089,19.2327102 C7.35110017,19.4305418 7.19218395,19.5133708 6.57687796,19.8340757 C6.36948864,19.9421694 6.36948864,19.9421694 6.16209931,20.0502632 C5.53993135,20.3745446 5.53993135,20.3745446 4.91776338,20.698826 C4.35353247,20.9929099 3.83789501,21.3607139 3.38213675,21.7894861 Z" id="Path"></path>
        </g>
        <g id="Group-Copy-2" transform="translate(22.000000, 43.000000)" fill-rule="nonzero" stroke="#214C68" stroke-width="2.43">
            <circle id="Oval-Copy-3" cx="12" cy="7.89189189" r="5.785"></circle>
            <path d="M14.9597013,19.2410192 L14.8273195,19.3028932 C12.8989357,20.2042019 10.6833494,20.2664544 8.70739885,19.4748478 C8.38240091,19.344647 8.24336287,19.2889455 8.07747671,19.222488 C6.77292067,19.8728732 6.61151793,19.9533407 5.0168306,20.7483729 C2.68726933,21.9097769 1.215,24.2888715 1.215,26.8918919 L1.215,30.2718919 C1.215,30.4955672 1.39632468,30.6768919 1.62,30.6768919 L21.38,30.6768919 C21.6036753,30.6768919 21.785,30.4955672 21.785,30.2718919 L21.785,26.8918919 C21.785,24.2888713 20.3127309,21.9097764 17.9831697,20.7483718 L14.9597013,19.2410192 Z" id="Rectangle-Copy"></path>
        </g>
        <g id="Group-Copy-3" transform="translate(47.000000, 43.000000)" fill-rule="nonzero" stroke="#214C68" stroke-width="2.43">
            <ellipse id="Oval-Copy-3" cx="11.5" cy="7.89189189" rx="5.285" ry="5.785"></ellipse>
            <path d="M14.3066193,19.252139 C12.3427351,20.1695698 10.0804182,20.2168607 8.07724549,19.3778705 C7.89399761,19.3011206 7.86475058,19.2888711 7.73066089,19.2327102 C7.35110017,19.4305418 7.19218395,19.5133708 6.57687796,19.8340757 C6.30035886,19.9782007 6.30035886,19.9782007 6.02383977,20.1223258 C5.47080157,20.4105759 5.47080157,20.4105759 4.91776338,20.698826 C2.64214839,21.8849037 1.215,24.2381169 1.215,26.8042821 L1.215,30.2718919 C1.215,30.4955672 1.39632468,30.6768919 1.62,30.6768919 L20.38,30.6768919 C20.6036753,30.6768919 20.785,30.4955672 20.785,30.2718919 L20.785,26.8042809 C20.785,24.2381162 19.3578522,21.8849034 17.082238,20.6988254 L14.3066193,19.252139 Z" id="Rectangle-Copy"></path>
        </g>
    </g>
</svg>