<?xml version="1.0" encoding="UTF-8"?>
<svg width="90px" height="90px" viewBox="0 0 90 90" version="1.1" xmlns="http://www.w3.org/2000/svg" xmlns:xlink="http://www.w3.org/1999/xlink">
    <!-- Generator: Sketch 54.1 (76490) - https://sketchapp.com -->
    <title>02_governance</title>
    <desc>Created with Sketch.</desc>
    <g id="02_governance" stroke="none" stroke-width="1" fill="none" fill-rule="evenodd">
        <g id="Group-Copy" transform="translate(18.000000, 12.000000)" fill-rule="nonzero" stroke="#214C68" stroke-width="2.43">
            <g id="Group-Copy-2">
                <circle id="Oval-Copy-3" cx="13" cy="8" r="6.785"></circle>
                <path d="M16.9130389,19.3519404 L16.3896738,19.5992445 C14.4457518,20.5177999 12.2061896,20.5811959 10.2134185,19.7740776 C9.81347855,19.6120927 9.81347855,19.6120927 9.41353864,19.4501078 C9.28451299,19.3978495 9.19711265,19.3624503 9.12447991,19.3330324 C6.72959493,20.5401231 6.56597085,20.6225944 3.86365244,21.9846404 C2.23951568,22.803252 1.21500502,24.4669243 1.21500502,26.2857 L1.21500502,28.3799777 C1.21500502,28.603653 1.39632969,28.7849777 1.62000502,28.7849777 L24.38,28.7849777 C24.6036753,28.7849777 24.785,28.603653 24.785,28.3799777 L24.785,26.2857 C24.785,24.4669243 23.7604893,22.803252 22.1363526,21.9846404 L16.9130389,19.3519404 Z" id="Rectangle-Copy"></path>
            </g>
            <g id="Group-Copy-3" transform="translate(29.000000, 0.000000)">
                <ellipse id="Oval-Copy-3" cx="12.5" cy="8" rx="6.285" ry="6.785"></ellipse>
                <path d="M16.2613271,19.3625057 L15.9777211,19.5018776 C13.9778915,20.4846498 11.6502436,20.5522853 9.59672277,19.6872931 C9.25986236,19.5453994 9.25986236,19.5453994 8.92300196,19.4035057 C8.86589172,19.3794495 8.81846378,19.3594717 8.77743511,19.3421895 C6.55739174,20.5059137 6.38872904,20.5943249 3.85380441,21.9231067 C2.23145263,22.773527 1.21500482,24.4539685 1.21500482,26.2857 L1.21500482,28.3799777 C1.21500482,28.603653 1.3963295,28.7849777 1.62000482,28.7849777 L23.38,28.7849777 C23.6036753,28.7849777 23.785,28.603653 23.785,28.3799777 L23.785,26.2857 C23.785,24.4539685 22.7685522,22.773527 21.1462004,21.9231067 L16.2613271,19.3625057 Z" id="Rectangle-Copy"></path>
            </g>
        </g>
        <path d="M75.5866026,57 L70.2924849,42 L18.7920147,42 L15.2626029,57 L21.3874259,57 L19.7207592,62 L12.7121389,62 C10.6686853,62 9.01213891,60.3434536 9.01213891,58.3 C9.01213891,57.9422655 9.06401883,57.5864218 9.16615892,57.2435787 L14.4095654,39.6435787 C14.8768357,38.075141 16.3189825,37 17.9555454,37 L71.3869762,37 C72.9773302,37 74.3897825,38.016275 74.8951762,39.5241884 L80.7940085,57.1241884 C81.4433913,59.0617138 80.3991455,61.1588172 78.4616201,61.8082 C78.1798049,61.9026534 77.4112844,61.9259558 75.0929133,61.9629376 C74.4178689,61.9737056 73.6950244,61.9829532 72.9722384,61.9906782 C72.5385928,61.995313 72.2011909,61.9984117 72.0080557,61.9999676 L71.4676967,62.0043207 L71.1679497,61.5547002 C70.9179497,61.1797002 70.9179497,61.1797002 70.1679497,60.0547002 C69.4179497,58.9297002 69.4179497,58.9297002 69.1679497,58.5547002 L68.1314829,57 L75.5866026,57 Z" id="Path" stroke="#FFFFFF" stroke-width="2" fill="#4D9ECF" fill-rule="nonzero"></path>
        <g id="Group" transform="translate(19.000000, 46.000000)" fill-rule="nonzero" stroke="#214C68" stroke-width="2.43">
            <g id="Group-Copy-2">
                <circle id="Oval-Copy-3" cx="13" cy="8" r="6.785"></circle>
                <path d="M16.9130389,19.3519404 L16.3896738,19.5992445 C14.4457518,20.5177999 12.2061896,20.5811959 10.2134185,19.7740776 C9.63301958,19.5390027 9.47376254,19.4744999 9.12447991,19.3330324 C7.29532022,20.2549814 7.13196365,20.3373178 5.00113779,21.4113152 C2.67950058,22.5814869 1.21500397,24.9596381 1.21500283,27.559504 L1.215,32.3800007 C1.215,32.603676 1.39632468,32.7850007 1.61999996,32.7850007 L24.38,32.785 C24.6036753,32.785 24.785,32.6036753 24.785,32.38 L24.785,27.5595057 C24.785,24.959639 23.3205032,22.5814863 20.998865,21.411314 L16.9130389,19.3519404 Z" id="Rectangle-Copy"></path>
            </g>
            <g id="Group-Copy-3" transform="translate(29.000000, 0.000000)">
                <ellipse id="Oval-Copy-3" cx="12.5" cy="8" rx="6.285" ry="6.785"></ellipse>
                <path d="M16.2613271,19.3625057 L15.9777211,19.5018776 C13.9778915,20.4846498 11.6502436,20.5522853 9.59672277,19.6872931 C9.16530157,19.5055681 9.01014355,19.4402118 8.77743511,19.3421895 C7.07884768,20.2325717 6.91051344,20.3208108 4.90349486,21.3728696 C2.63578597,22.5615796 1.21500384,24.9104854 1.21500276,27.4708635 L1.215,32.3800007 C1.215,32.603676 1.39632468,32.7850007 1.61999996,32.7850007 L23.38,32.785 C23.6036753,32.785 23.785,32.6036753 23.785,32.38 L23.785,27.4708651 C23.785,24.9104862 22.3642177,22.561579 20.0965079,21.3728685 L16.2613271,19.3625057 Z" id="Rectangle-Copy"></path>
            </g>
        </g>
    </g>
</svg>