<?xml version="1.0" encoding="UTF-8"?>
<svg width="90px" height="90px" viewBox="0 0 90 90" version="1.1" xmlns="http://www.w3.org/2000/svg" xmlns:xlink="http://www.w3.org/1999/xlink">
    <!-- Generator: Sketch 54.1 (76490) - https://sketchapp.com -->
    <title>02_governance</title>
    <desc>Created with Sketch.</desc>
    <g id="02_governance" stroke="none" stroke-width="1" fill="none" fill-rule="evenodd">
        <g id="Group-Copy-4" transform="translate(24.000000, 15.351351)" fill-rule="nonzero" stroke="#214C68" stroke-width="2.43">
            <ellipse id="Oval-Copy-3" cx="11" cy="7.64864865" rx="4.785" ry="5.785"></ellipse>
            <path d="M13.6429919,17.0158154 C11.6740774,17.8868544 9.42217083,17.8953916 7.43845011,17.0249846 C7.41769165,17.0158763 7.39980093,17.0080263 7.38398559,17.0010869 C6.329001,17.5771418 6.15650679,17.671329 4.80041617,18.4117973 C2.59003505,19.6187351 1.215,21.9362132 1.215,24.454642 L1.215,28.0286486 C1.215,28.252324 1.39632468,28.4336486 1.62,28.4336486 L19.38,28.4336486 C19.6036753,28.4336486 19.785,28.252324 19.785,28.0286486 L19.785,24.4546407 C19.785,21.9362125 18.4099656,19.6187349 16.1995852,18.4117968 L13.6429919,17.0158154 Z" id="Rectangle-Copy"></path>
        </g>
        <g id="Group-Copy-5" transform="translate(47.000000, 15.351351)" fill-rule="nonzero" stroke="#214C68" stroke-width="2.43">
            <ellipse id="Oval-Copy-3" cx="11" cy="7.64864865" rx="4.785" ry="5.785"></ellipse>
            <path d="M13.6429919,17.0158154 C11.6740774,17.8868544 9.42217083,17.8953916 7.43845011,17.0249846 C7.41769165,17.0158763 7.39980093,17.0080263 7.38398559,17.0010869 C6.329001,17.5771418 6.15650679,17.671329 4.80041617,18.4117973 C2.59003505,19.6187351 1.215,21.9362132 1.215,24.454642 L1.215,28.0286486 C1.215,28.252324 1.39632468,28.4336486 1.62,28.4336486 L19.38,28.4336486 C19.6036753,28.4336486 19.785,28.252324 19.785,28.0286486 L19.785,24.4546407 C19.785,21.9362125 18.4099656,19.6187349 16.1995852,18.4117968 L13.6429919,17.0158154 Z" id="Rectangle-Copy"></path>
        </g>
        <path d="M20.5834668,39.1067568 C19.9941063,39.1067568 19.4728614,39.4890783 19.2958183,40.0512185 L14.5358947,55.164732 C14.4945698,55.295945 14.4735432,55.4327036 14.4735432,55.5702703 C14.4735432,56.3158547 15.0779588,56.9202703 15.8235432,56.9202703 L76.1579107,56.9202703 C76.3115123,56.9202703 76.4639874,56.8940567 76.6087698,56.8427584 C77.3115456,56.5937558 77.6794015,55.822187 77.4303989,55.1194112 L72.0754848,40.0058977 C71.8845301,39.4669541 71.3747693,39.1067568 70.8029967,39.1067568 L20.5834668,39.1067568 Z" id="Rectangle" stroke="#4D9ECF" stroke-width="2.7" fill="#FFFFFF" fill-rule="nonzero"></path>
        <path d="M22.5884906,48.4594595 L68.4112173,48.4594595 C69.2722654,48.4594595 70.0127266,49.0692612 70.1778209,49.9143338 L71.913895,58.8008203 C72.1045026,59.7764885 71.4680853,60.7219419 70.492417,60.9125495 C70.3787179,60.9347619 70.2631399,60.9459459 70.1472914,60.9459459 L20.8524165,60.9459459 C19.858304,60.9459459 19.0524165,60.1400585 19.0524165,59.1459459 C19.0524165,59.0300974 19.0636005,58.9145194 19.0858129,58.8008203 L20.821887,49.9143338 C20.9869813,49.0692612 21.7274425,48.4594595 22.5884906,48.4594595 Z" id="Rectangle" fill="#FFFFFF" fill-rule="nonzero"></path>
        <g id="Group-Copy-2" transform="translate(24.000000, 42.108108)" fill-rule="nonzero" stroke="#214C68" stroke-width="2.43">
            <ellipse id="Oval-Copy-3" cx="11" cy="7.89189189" rx="4.785" ry="5.785"></ellipse>
            <path d="M13.6429919,17.2590586 C11.6740774,18.1300976 9.42217083,18.1386348 7.43845011,17.2682278 C7.41769165,17.2591195 7.39980093,17.2512695 7.38398559,17.2443301 C6.329001,17.820385 6.15650679,17.9145723 4.80041617,18.6550405 C2.59003505,19.8619784 1.215,22.1794564 1.215,24.6978852 L1.215,28.2718919 C1.215,28.4955672 1.39632468,28.6768919 1.62,28.6768919 L19.38,28.6768919 C19.6036753,28.6768919 19.785,28.4955672 19.785,28.2718919 L19.785,24.6978839 C19.785,22.1794557 18.4099656,19.8619781 16.1995852,18.65504 L13.6429919,17.2590586 Z" id="Rectangle-Copy"></path>
        </g>
        <g id="Group-Copy-3" transform="translate(47.000000, 42.108108)" fill-rule="nonzero" stroke="#214C68" stroke-width="2.43">
            <ellipse id="Oval-Copy-3" cx="11" cy="7.89189189" rx="4.785" ry="5.785"></ellipse>
            <path d="M13.6429919,17.2590586 C11.6740774,18.1300976 9.42217083,18.1386348 7.43845011,17.2682278 C7.41769165,17.2591195 7.39980093,17.2512695 7.38398559,17.2443301 C6.329001,17.820385 6.15650679,17.9145723 4.80041617,18.6550405 C2.59003505,19.8619784 1.215,22.1794564 1.215,24.6978852 L1.215,28.2718919 C1.215,28.4955672 1.39632468,28.6768919 1.62,28.6768919 L19.38,28.6768919 C19.6036753,28.6768919 19.785,28.4955672 19.785,28.2718919 L19.785,24.6978839 C19.785,22.1794557 18.4099656,19.8619781 16.1995852,18.65504 L13.6429919,17.2590586 Z" id="Rectangle-Copy"></path>
        </g>
    </g>
</svg>