<?xml version="1.0" encoding="UTF-8"?>
<svg width="90px" height="90px" viewBox="0 0 90 90" version="1.1" xmlns="http://www.w3.org/2000/svg" xmlns:xlink="http://www.w3.org/1999/xlink">
    <!-- Generator: Sketch 54.1 (76490) - https://sketchapp.com -->
    <title>02_governance</title>
    <desc>Created with Sketch.</desc>
    <g id="02_governance" stroke="none" stroke-width="1" fill="none" fill-rule="evenodd">
        <path d="M70,58 L77,58 L71,41 L18,41 L14,58 L20,58 L19,61 L12.7121389,61 C11.2209701,61 10.0121389,59.7911688 10.0121389,58.3 C10.0121389,58.0389505 10.0499972,57.7792808 10.1245319,57.529098 L13.9830446,44.5776277 L15.3679384,39.929098 C15.7089194,38.7845623 16.7612968,38 17.9555454,38 L71.3869762,38 C72.5475048,38 73.5782132,38.7416061 73.947014,39.8419753 L79.8458464,57.4419753 C80.3197203,58.8558452 79.5577031,60.3861639 78.1438332,60.8600378 C77.867263,60.9527334 72,61 72,61 C72,61 70,58 70,58 Z" id="Path" fill="#4D9ECF" fill-rule="nonzero"></path>
        <circle id="Oval-Copy-3" stroke="#214C68" stroke-width="2.43" fill-rule="nonzero" cx="35" cy="23" r="5.785"></circle>
        <path d="M24.0256076,38.1380553 C24.8026213,36.710437 26.0069766,35.5222547 27.5176207,34.7691223 C28.7004644,34.1794148 29.8833082,33.5897074 31.066152,33 C31.4448131,33.1516994 31.8234742,33.3033989 32.2021352,33.4550983 C33.8660936,34.1217144 35.7318505,34.0692912 37.3557527,33.3102944 L38.0196391,33 L41.5681665,34.7691213 C43.0690713,35.5173986 44.2676239,36.6951342 45.0450978,38.1104733 L24.0256076,38.1380553 Z M42.0815108,38.1320469 C42.1630216,38.2640939 41.0883528,37.2451593 40.4839595,36.9438385 L37.9725962,35.6917963 C35.8399426,36.5604436 33.4468648,36.5715132 31.2984491,35.7108136 L31.1745838,35.6611906 L28.6018272,36.9438397 C28.2311298,37.1286511 27.7057232,37.5167406 27.0256076,38.1081081 C37.0085359,38.036036 42.0271703,38.0440156 42.0815108,38.1320469 Z" id="Shape-Copy-2" fill="#214C68" fill-rule="nonzero"></path>
        <path d="M48,38.1380553 C48.7770137,36.710437 49.9813691,35.5222547 51.4920131,34.7691223 C52.6748569,34.1794148 53.8577007,33.5897074 55.0405445,33 C55.4192056,33.1516994 55.7978666,33.3033989 56.1765277,33.4550983 C57.8404861,34.1217144 59.7062429,34.0692912 61.3301451,33.3102944 L61.9940315,33 L65.542559,34.7691213 C67.0434637,35.5173986 68.2420164,36.6951342 69.0194902,38.1104733 L48,38.1380553 Z M66.0559032,38.1320469 C66.137414,38.2640939 65.0627453,37.2451593 64.4583519,36.9438385 L61.9469886,35.6917963 C59.814335,36.5604436 57.4212572,36.5715132 55.2728416,35.7108136 L55.1489762,35.6611906 L52.5762197,36.9438397 C52.2055222,37.1286511 51.6801157,37.5167406 51,38.1081081 C60.9829283,38.036036 66.0015627,38.0440156 66.0559032,38.1320469 Z" id="Shape-Copy-3" fill="#214C68" fill-rule="nonzero"></path>
        <ellipse id="Oval-Copy-3" stroke="#214C68" stroke-width="2.43" fill-rule="nonzero" cx="58.5" cy="23" rx="5.285" ry="5.785"></ellipse>
        <g id="Group-Copy-2" transform="translate(22.000000, 43.000000)" fill-rule="nonzero" stroke="#214C68" stroke-width="2.43">
            <circle id="Oval-Copy-3" cx="12" cy="7.89189189" r="5.785"></circle>
            <path d="M14.9597013,19.2410192 L14.8273195,19.3028932 C12.8989357,20.2042019 10.6833494,20.2664544 8.70739885,19.4748478 C8.38240091,19.344647 8.24336287,19.2889455 8.07747671,19.222488 C6.77292067,19.8728732 6.61151793,19.9533407 5.0168306,20.7483729 C2.68726933,21.9097769 1.215,24.2888715 1.215,26.8918919 L1.215,30.2718919 C1.215,30.4955672 1.39632468,30.6768919 1.62,30.6768919 L21.38,30.6768919 C21.6036753,30.6768919 21.785,30.4955672 21.785,30.2718919 L21.785,26.8918919 C21.785,24.2888713 20.3127309,21.9097764 17.9831697,20.7483718 L14.9597013,19.2410192 Z" id="Rectangle-Copy"></path>
        </g>
        <g id="Group-Copy-3" transform="translate(47.000000, 43.000000)" fill-rule="nonzero" stroke="#214C68" stroke-width="2.43">
            <ellipse id="Oval-Copy-3" cx="11.5" cy="7.89189189" rx="5.285" ry="5.785"></ellipse>
            <path d="M14.3066193,19.252139 C12.3427351,20.1695698 10.0804182,20.2168607 8.07724549,19.3778705 C7.89399761,19.3011206 7.86475058,19.2888711 7.73066089,19.2327102 C7.35110017,19.4305418 7.19218395,19.5133708 6.57687796,19.8340757 C6.30035886,19.9782007 6.30035886,19.9782007 6.02383977,20.1223258 C5.47080157,20.4105759 5.47080157,20.4105759 4.91776338,20.698826 C2.64214839,21.8849037 1.215,24.2381169 1.215,26.8042821 L1.215,30.2718919 C1.215,30.4955672 1.39632468,30.6768919 1.62,30.6768919 L20.38,30.6768919 C20.6036753,30.6768919 20.785,30.4955672 20.785,30.2718919 L20.785,26.8042809 C20.785,24.2381162 19.3578522,21.8849034 17.082238,20.6988254 L14.3066193,19.252139 Z" id="Rectangle-Copy"></path>
        </g>
    </g>
</svg>