<?xml version="1.0" encoding="UTF-8"?>
<svg width="90px" height="90px" viewBox="0 0 90 90" version="1.1" xmlns="http://www.w3.org/2000/svg" xmlns:xlink="http://www.w3.org/1999/xlink">
    <!-- Generator: Sketch 54.1 (76490) - https://sketchapp.com -->
    <title>03_freedom</title>
    <desc>Created with Sketch.</desc>
    <g id="03_freedom" stroke="none" stroke-width="1" fill="none" fill-rule="evenodd">
        <path d="M32.3062438,49.8929333 L41.3062438,49.8929333 L41.3150222,63.8910545 C41.3160997,66.1001933 39.5261125,67.8919276 37.3169737,67.8930051 C37.3163234,67.8930054 37.315673,67.8930056 37.3150227,67.8930056 L36.3150227,67.8891035 C34.1066456,67.8891035 32.3161003,66.0994314 32.3150231,63.8910545 L32.3062438,49.8929333 Z" id="Rectangle" stroke="#214C68" stroke-width="3" fill-rule="nonzero" transform="translate(36.810633, 58.892933) rotate(-16.000000) translate(-36.810633, -58.892933) "></path>
        <path d="M38,37 L41,48" id="Path-3" stroke="#214C68" stroke-width="3" stroke-linecap="square" fill-rule="nonzero"></path>
        <path d="M58,23 L61,34" id="Path-3-Copy" stroke="#4D9ECF" stroke-width="3" stroke-linecap="square" fill-rule="nonzero"></path>
        <path d="M27.0346165,34.5919199 C23.4447656,34.5919199 20.5346165,37.502069 20.5346165,41.0919199 C20.5346165,44.6817708 23.4447656,47.5919199 27.0346165,47.5919199 L40.0246589,47.5919199 L66.6119693,57.6598538 C66.6678421,57.6810114 66.7270546,57.6919841 66.7867986,57.6922515 C67.0629382,57.6934874 67.2877955,57.4706339 67.2890314,57.1944943 L67.4384495,23.8102279 C67.4387511,23.7428238 67.425421,23.6760546 67.3992603,23.6139335 C67.2920859,23.3594375 66.998894,23.2400097 66.7443979,23.3471842 L40.0426902,34.5919199 L27.0346165,34.5919199 Z" id="Rectangle" stroke="#214C68" stroke-width="3" fill-rule="nonzero" transform="translate(43.986535, 40.499864) rotate(-15.000000) translate(-43.986535, -40.499864) "></path>
    </g>
</svg>