<?xml version="1.0" encoding="UTF-8"?>
<svg width="90px" height="90px" viewBox="0 0 90 90" version="1.1" xmlns="http://www.w3.org/2000/svg" xmlns:xlink="http://www.w3.org/1999/xlink">
    <!-- Generator: Sketch 54.1 (76490) - https://sketchapp.com -->
    <title>03_freedom</title>
    <desc>Created with Sketch.</desc>
    <g id="03_freedom" stroke="none" stroke-width="1" fill="none" fill-rule="evenodd">
        <path d="M22.0468853,59.0163501 L33.6505346,55.9863675 L39.0504284,73.1038147 C39.7150409,75.2106098 38.5459209,77.4572795 36.4391259,78.121892 C36.3753401,78.1420139 36.3110597,78.1605329 36.2463453,78.1774313 L32.3929024,79.1836548 C30.3308597,79.7221021 28.2087657,78.5492646 27.5676057,76.516813 L22.0468853,59.0163501 Z" id="Rectangle" stroke="#214C68" stroke-width="3" fill-rule="nonzero"></path>
        <path d="M33.0468853,36.9863675 L37.0468853,50.9863675" id="Path-3" stroke="#214C68" stroke-width="3" stroke-linecap="square" fill-rule="nonzero"></path>
        <path d="M60.0468853,16.9863675 L63.0468853,31.9863675" id="Path-3-Copy" stroke="#4D9ECF" stroke-width="3" stroke-linecap="square" fill-rule="nonzero"></path>
        <path d="M13.6798367,40.5446694 C10.2206229,41.4768625 8.16789791,45.0323153 9.09022627,48.4941724 L10.6428176,54.3216518 C10.645207,54.3306029 10.645207,54.3306029 10.6476134,54.3395496 C11.5816888,57.8057481 15.1488156,59.8584396 18.6150142,58.9243642 L38.5406958,53.5547675 L78.2465266,57.5690315 C78.3058294,57.575027 78.3657264,57.5703707 78.4233901,57.5552823 C78.6905384,57.4853798 78.8504378,57.212146 78.7805352,56.9449977 L66.5830224,10.3294375 C66.5657821,10.2635498 66.535263,10.2018789 66.493337,10.1482074 C66.3233439,9.9305909 66.0091242,9.89198452 65.7915077,10.0619776 L33.6627503,35.1596498 L13.6798367,40.5446694 Z" id="Rectangle" stroke="#214C68" stroke-width="3" fill-rule="nonzero"></path>
    </g>
</svg>