<?xml version="1.0" encoding="UTF-8"?>
<svg width="90px" height="90px" viewBox="0 0 90 90" version="1.1" xmlns="http://www.w3.org/2000/svg" xmlns:xlink="http://www.w3.org/1999/xlink">
    <!-- Generator: Sketch 54.1 (76490) - https://sketchapp.com -->
    <title>Privacy</title>
    <desc>Created with Sketch.</desc>
    <g id="Privacy" stroke="none" stroke-width="1" fill="none" fill-rule="evenodd">
        <path d="M62.2669548,38 C57.4641581,32.198335 52.2240539,29.35 46.5,29.35 C40.7759461,29.35 35.5358419,32.198335 30.7330452,38 C35.5358419,43.801665 40.7759461,46.65 46.5,46.65 C52.2240539,46.65 57.4641581,43.801665 62.2669548,38 Z" id="Oval" stroke="#4D9ECF" stroke-width="2.7" fill-rule="nonzero"></path>
        <path d="M73.35,55.65 L76.1,55.65 C77.3426407,55.65 78.35,56.6573593 78.35,57.9 L78.35,60.5 C78.35,63.178581 76.178581,65.35 73.5,65.35 L20.5,65.35 C17.821419,65.35 15.65,63.178581 15.65,60.5 L15.65,57.9 C15.65,56.6573593 16.6573593,55.65 17.9,55.65 L20.65,55.65 L20.65,25.8 C20.65,24.060303 22.060303,22.65 23.8,22.65 L70.2,22.65 C71.939697,22.65 73.35,24.060303 73.35,25.8 L73.35,55.65 Z" id="Combined-Shape-Copy" stroke="#214C68" stroke-width="2.7" fill-rule="nonzero"></path>
        <path d="M28,57 L43.0152161,57 L43.0152161,57 C45.7013858,59.33512 49.651432,59.4837629 52.5055006,57.3571258 L52.9847839,57 L68,57" id="Line-Copy" stroke="#214C68" stroke-width="2.7" stroke-linecap="round" fill-rule="nonzero"></path>
        <circle id="Oval" stroke="#214C68" stroke-width="2.7" fill-rule="nonzero" cx="47.5" cy="38.5" r="4.15"></circle>
    </g>
</svg>