<?xml version="1.0" encoding="UTF-8"?>
<svg width="90px" height="90px" viewBox="0 0 90 90" version="1.1" xmlns="http://www.w3.org/2000/svg" xmlns:xlink="http://www.w3.org/1999/xlink">
    <!-- Generator: Sketch 54.1 (76490) - https://sketchapp.com -->
    <title>04_privacy</title>
    <desc>Created with Sketch.</desc>
    <g id="04_privacy" stroke="none" stroke-width="1" fill="none" fill-rule="evenodd">
        <path d="M62.290606,38.5 C56.8787103,31.6946868 50.9634656,28.35 44.5,28.35 C38.0365344,28.35 32.1212897,31.6946868 26.709394,38.5 C32.1212897,45.3053132 38.0365344,48.65 44.5,48.65 C50.9634656,48.65 56.8787103,45.3053132 62.290606,38.5 Z" id="Oval" stroke="#4D9ECF" stroke-width="2.7" fill-rule="nonzero"></path>
        <path d="M75.35,57.65 L78.1,57.65 C79.3426407,57.65 80.35,58.6573593 80.35,59.9 L80.35,63 C80.35,65.9547234 77.9547234,68.35 75,68.35 L16,68.35 C13.0452766,68.35 10.65,65.9547234 10.65,63 L10.65,59.9 C10.65,58.6573593 11.6573593,57.65 12.9,57.65 L16.65,57.65 L16.65,24.8 C16.65,23.060303 18.060303,21.65 19.8,21.65 L72.2,21.65 C73.939697,21.65 75.35,23.060303 75.35,24.8 L75.35,57.65 Z" id="Combined-Shape-Copy" stroke="#214C68" stroke-width="2.7" fill-rule="nonzero"></path>
        <path d="M24,59 L40.5167377,59 L40.5167377,59 C43.3820097,61.8304726 47.9341831,62.0051212 51.007901,59.4025039 L51.4832623,59 L68,59" id="Line-Copy" stroke="#214C68" stroke-width="2.7" stroke-linecap="round" fill-rule="nonzero"></path>
        <ellipse id="Oval" stroke="#214C68" stroke-width="2.7" fill-rule="nonzero" cx="46" cy="38.5" rx="4.65" ry="4.15"></ellipse>
    </g>
</svg>