<?xml version="1.0" encoding="UTF-8"?>
<svg width="90px" height="90px" viewBox="0 0 90 90" version="1.1" xmlns="http://www.w3.org/2000/svg" xmlns:xlink="http://www.w3.org/1999/xlink">
    <!-- Generator: Sketch 54.1 (76490) - https://sketchapp.com -->
    <title>Questions for investors</title>
    <desc>Created with Sketch.</desc>
    <g id="Questions-for-investors" stroke="none" stroke-width="1" fill="none" fill-rule="evenodd">
        <ellipse id="Oval-Copy" stroke="#214C68" stroke-width="3" fill-rule="nonzero" cx="40" cy="33" rx="9.5" ry="10.5"></ellipse>
        <circle id="Oval-Copy-2" stroke="#214C68" stroke-width="3" fill-rule="nonzero" cx="64" cy="25" r="11.5"></circle>
        <path d="M63.2093023,21.86 L60.5,21.86 L60.5,21.36 L60.500038,21.3378342 C60.5316014,18.7784987 62.274568,17.5 64.5,17.5 C66.7602213,17.5 68.5,18.7975533 68.5,21.424 C68.5,22.5941766 67.9231161,23.6719347 66.9685217,24.5303087 L66.1207243,25.2994711 C65.8048431,25.584065 65.7813953,25.6234855 65.7813953,25.808 L65.7813953,26.5 L63.072093,26.5 L63.072093,25.648 C63.072093,24.7475299 63.342749,24.2519381 64.2291527,23.4696913 L65.0756644,22.7016913 C65.5407858,22.2797087 65.7906977,21.8753216 65.7906977,21.456 C65.7906977,20.5453796 65.3452065,20.116 64.5,20.116 C63.6802192,20.116 63.2324082,20.5220593 63.2093023,21.344 L63.2093023,21.86 Z M62.5,31.5 L62.5,28.5 L65.5,28.5 L65.5,31.5 L62.5,31.5 Z" id="?" stroke="#4D9ECF" fill="#4D9ECF" fill-rule="nonzero" stroke-linejoin="round"></path>
        <path d="M39,52 L41,52 C42.1045695,52 43,52.8954305 43,54 L43,55 C43,56.1045695 42.1045695,57 41,57 L39,57 C37.8954305,57 37,56.1045695 37,55 L37,54 C37,52.8954305 37.8954305,52 39,52 Z M39.4475613,58 L40.4745053,58 C41.5244224,58 42.3956072,58.8118529 42.4695404,59.8591638 L42.963694,66.8591638 C43.0414757,67.9609912 42.2113225,68.9172534 41.1094951,68.9950351 C41.0626226,68.998344 41.015648,69 40.9686588,69 L39.0265191,69 C37.9219496,69 37.0265191,68.1045695 37.0265191,67 C37.0265191,66.959946 37.0277224,66.919901 37.0301272,66.8799193 L37.4511694,59.8799193 C37.5146881,58.8238944 38.3896279,58 39.4475613,58 Z" id="Combined-Shape" stroke="#4D9ECF" stroke-width="3" fill-rule="nonzero"></path>
        <path d="M45.7217993,47.6918428 L44.4641895,48.3271478 C41.9466364,49.5989365 38.9941267,49.6862756 36.4057992,48.5655256 C35.7192974,48.2682692 35.7192974,48.2682692 35.0327956,47.9710128 C34.6767911,47.8168622 34.5054026,47.7426507 34.3271545,47.665469 C30.9549121,49.4825891 30.741988,49.5973225 26.9679236,51.6309638 C24.2159342,53.1138636 22.5000062,55.9876721 22.5000049,59.1137621 L22.5,69.0000008 C22.5,69.2761432 22.7238576,69.5000008 23,69.5000008 L57,69.5 C57.2761424,69.5 57.5,69.2761424 57.5,69 L57.5,59.1137642 C57.5,55.9876731 55.7840718,53.1138629 53.0320813,51.6309625 L45.7217993,47.6918428 Z" id="Rectangle" stroke="#214C68" stroke-width="3" fill-rule="nonzero"></path>
    </g>
</svg>