<?xml version="1.0" encoding="utf-8"?>
<!-- Generator: Adobe Illustrator 19.2.0, SVG Export Plug-In . SVG Version: 6.00 Build 0)  -->
<svg version="1.1" id="Layer_1" xmlns="http://www.w3.org/2000/svg" xmlns:xlink="http://www.w3.org/1999/xlink" x="0px" y="0px"
	 viewBox="0 0 90 90" style="enable-background:new 0 0 90 90;" xml:space="preserve">
<style type="text/css">
	.st0{fill:none;stroke:#214C68;stroke-width:3;}
	.st1{fill:#4D9ECF;stroke:#4D9ECF;stroke-width:0.5;stroke-linejoin:round;}
</style>
<title>05_questions</title>
<desc>Created with Sketch.</desc>
<g id="_x30_5_x5F_questions">
	<circle id="Oval-Copy-2" class="st0" cx="45" cy="45" r="26"/>
	<path id="_x3F_" class="st1" d="M41.7,39.3h-4.4v-0.2l0,0c0.1-5.2,3.6-7.8,8.2-7.8c4.7,0,8.2,2.6,8.2,8c0,2.4-1.2,4.6-3.2,6.3
		l-1.9,1.7c-0.9,0.8-1.1,1.1-1.1,1.8v0.7h-4.4v-1c0-1.7,0.5-2.6,2.4-4.3l1.9-1.7c1.2-1.1,1.9-2.2,1.9-3.4c0-2.5-1.4-3.9-3.8-3.9
		c-2.3,0-3.8,1.3-3.8,3.6V39.3z M42.2,58.8v-4.5h4.5v4.5H42.2z"/>
</g>
</svg>
