<?xml version="1.0" encoding="UTF-8"?>
<svg width="90px" height="90px" viewBox="0 0 90 90" version="1.1" xmlns="http://www.w3.org/2000/svg" xmlns:xlink="http://www.w3.org/1999/xlink">
    <!-- Generator: Sketch 54.1 (76490) - https://sketchapp.com -->
    <title>05_questions</title>
    <desc>Created with Sketch.</desc>
    <g id="05_questions" stroke="none" stroke-width="1" fill="none" fill-rule="evenodd">
        <ellipse id="Oval-Copy" stroke="#214C68" stroke-width="3" fill-rule="nonzero" cx="35" cy="34.5" rx="11.5" ry="13"></ellipse>
        <circle id="Oval-Copy-2" stroke="#214C68" stroke-width="3" fill-rule="nonzero" cx="64.5" cy="25.5" r="14"></circle>
        <path d="M63.4476744,22.45 L60.75,22.45 L60.75,22.2 L60.7500201,22.176829 C60.7876645,19.2091997 62.8338168,17.75 65.5,17.75 C68.2089751,17.75 70.25,19.2299432 70.25,22.28 C70.25,23.6268892 69.5604895,24.8792783 68.4072341,25.8874875 L67.3182131,26.8480579 C66.838766,27.268018 66.7546512,27.405504 66.7546512,27.76 L66.7546512,28.25 L64.0569767,28.25 L64.0569767,27.56 C64.0569767,26.552097 64.3513838,26.0279897 65.4183473,25.1125125 L66.5067194,24.1525125 C67.1773879,23.5609485 67.5523256,22.9711075 67.5523256,22.32 C67.5523256,20.9731248 66.8019744,20.27 65.5,20.27 C64.2376923,20.27 63.4834761,20.9348997 63.4476744,22.18 L63.4476744,22.45 Z M63.75,33.25 L63.75,30.75 L66.25,30.75 L66.25,33.25 L63.75,33.25 Z" id="?" stroke="#4D9ECF" stroke-width="0.5" fill="#4D9ECF" fill-rule="nonzero" stroke-linejoin="round"></path>
        <path d="M33.9996852,79 C32.8951157,79 31.9996852,78.059798 31.9996852,76.9 C31.9996852,76.8614411 32.0006966,76.8228894 32.0027183,76.784389 L32.5540831,66.284389 C32.6125377,65.1712002 33.4892599,64.3 34.55105,64.3 L34,64.3 C32.8954305,64.3 32,63.359798 32,62.2 L32,60.1 C32,58.940202 32.8954305,58 34,58 L37,58 C38.1045695,58 39,58.940202 39,60.1 L39,62.2 C39,63.359798 38.1045695,64.3 37,64.3 L36.3532498,64.3 L36.3532498,64.3 C37.4076787,64.3 38.2809852,65.1595519 38.3490755,66.2643914 L38.9961813,76.7643914 C39.0675095,77.9217687 38.2317708,78.9207224 37.1295067,78.9956169 C37.0865126,78.9985382 37.0434397,79 37.0003557,79" id="Path" stroke="#4D9ECF" stroke-width="2.5" fill-rule="nonzero"></path>
        <path d="M41.2797057,51.696693 L39.08806,52.8186055 C36.547145,54.1193104 33.5560338,54.2085399 30.9421021,53.0616121 C29.9803222,52.6396071 29.9803222,52.6396071 29.0185422,52.2176021 C28.3551,51.9265003 28.1493046,51.8362024 27.7697805,51.6696767 C23.1618474,54.1857514 22.9465357,54.3033183 17.9264486,57.0444419 C15.1975827,58.5344876 13.5000075,61.3955708 13.5000063,64.5047421 L13.5,78.0000008 C13.5,78.2761432 13.7238576,78.5000008 14,78.5000008 L55,78.5 C55.2761424,78.5 55.5,78.2761424 55.5,78 L55.5,64.5047441 C55.5,61.3955717 53.8024247,58.5344869 51.0735577,57.0444406 L41.2797057,51.696693 Z" id="Rectangle" stroke="#214C68" stroke-width="3" fill-rule="nonzero"></path>
    </g>
</svg>