<?xml version="1.0" encoding="UTF-8"?>
<svg width="90px" height="90px" viewBox="0 0 90 90" version="1.1" xmlns="http://www.w3.org/2000/svg" xmlns:xlink="http://www.w3.org/1999/xlink">
    <!-- Generator: Sketch 54.1 (76490) - https://sketchapp.com -->
    <title>05_questions</title>
    <desc>Created with Sketch.</desc>
    <g id="05_questions" stroke="none" stroke-width="1" fill="none" fill-rule="evenodd">
        <circle id="Oval-Copy-2" stroke="#214C68" stroke-width="3" fill-rule="nonzero" cx="45.5" cy="52.5" r="26"></circle>
        <path d="M42.1569767,46.81 L37.75,46.81 L37.75,46.56 L37.7500196,46.5208681 C37.815354,41.3059557 41.3551769,38.75 46,38.75 C50.7199476,38.75 54.25,41.3416295 54.25,46.704 C54.25,49.0634542 53.0522858,51.2661101 51.0409453,53.0464641 L49.1054153,54.7750393 C48.2144285,55.5652332 48.0360465,55.8604436 48.0360465,56.568 L48.0360465,57.25 L43.6290698,57.25 L43.6290698,56.208 C43.6290698,54.4597457 44.1236694,53.5682468 45.9823105,51.9535359 L47.9171942,50.2255359 C49.1478918,49.1264283 49.8430233,48.0191984 49.8430233,46.776 C49.8430233,44.2374193 48.4186388,42.886 46,42.886 C43.6552471,42.886 42.2239178,44.1635999 42.1569767,46.524 L42.1569767,46.81 Z M42.75,66.25 L42.75,61.75 L47.25,61.75 L47.25,66.25 L42.75,66.25 Z" id="?" stroke="#4D9ECF" stroke-width="0.5" fill="#4D9ECF" fill-rule="nonzero" stroke-linejoin="round"></path>
    </g>
</svg>