<?xml version="1.0" encoding="utf-8"?>
<!-- Generator: Adobe Illustrator 19.2.0, SVG Export Plug-In . SVG Version: 6.00 Build 0)  -->
<svg version="1.1" id="Layer_2" xmlns="http://www.w3.org/2000/svg" xmlns:xlink="http://www.w3.org/1999/xlink" x="0px" y="0px"
	 viewBox="0 0 263 246" style="enable-background:new 0 0 263 246;" xml:space="preserve">
<style type="text/css">
	.st0{fill:#D0DACB;}
	.st1{fill:#BE1E2D;}
	.st2{fill:#DFD8CD;}
	.st3{fill:#FFFFFF;}
	.st4{fill:#F05A29;}
	.st5{fill:#797979;}
	.st6{fill:#8BC248;}
	.st7{fill:none;stroke:#E0D7CF;stroke-miterlimit:10;}
</style>
<rect x="17.1" y="38.5" class="st0" width="9.5" height="165.7"/>
<rect x="28.1" y="140.6" class="st0" width="9.5" height="63.6"/>
<rect x="39.1" y="148.3" class="st0" width="9.5" height="55.9"/>
<rect x="50" y="161" class="st0" width="9.5" height="43.2"/>
<rect x="61" y="169.8" class="st0" width="9.5" height="34.4"/>
<rect x="72" y="169.8" class="st0" width="9.5" height="34.4"/>
<rect x="82.9" y="175.6" class="st0" width="9.5" height="28.6"/>
<rect x="93.9" y="178.5" class="st0" width="9.5" height="25.7"/>
<rect x="104.9" y="184.3" class="st0" width="9.5" height="19.9"/>
<rect x="115.8" y="184.3" class="st0" width="9.5" height="19.9"/>
<rect x="126.8" y="187.3" class="st0" width="9.5" height="16.9"/>
<rect x="137.8" y="187.3" class="st0" width="9.5" height="16.9"/>
<rect x="148.7" y="187.3" class="st0" width="9.5" height="16.9"/>
<rect x="159.7" y="190.2" class="st0" width="9.5" height="14"/>
<rect x="170.7" y="190" class="st0" width="9.5" height="14.2"/>
<rect x="181.6" y="198.9" class="st0" width="9.5" height="5.3"/>
<rect x="192.6" y="201.3" class="st0" width="9.5" height="2.9"/>
<rect x="203.6" y="201.9" class="st1" width="9.5" height="2.2"/>
<rect x="214.5" y="201.9" class="st1" width="9.5" height="2.2"/>
<rect x="225.5" y="203.9" class="st2" width="9.5" height="4.3"/>
<rect x="236.5" y="203.9" class="st2" width="9.5" height="4.3"/>
<rect x="247.4" y="203.9" class="st2" width="9.5" height="4.3"/>
<g>
	<path class="st3" d="M2.9,228.1l3.2,2.7l-0.5,0.6l-3.2-2.7l-0.9,1L1,229.3l2.2-2.6l0.6,0.5L2.9,228.1z"/>
	<path class="st3" d="M7.4,227.4l0.5-0.6c0.7,0.7,0.4,1.5,0,1.9c-0.4,0.5-1.2,0.9-2.1,0.2l-0.6-0.5c-0.9-0.8-0.6-1.6-0.2-2.1
		s1.2-0.9,2.1-0.2l0.5,0.4l-1.4,1.7l0.1,0.1c0.4,0.4,0.8,0.3,1.1-0.1C7.6,228,7.6,227.7,7.4,227.4z M5.7,227.9L5.7,227.9l1-1.2l0,0
		c-0.4-0.3-0.8-0.3-1.1,0.1C5.3,227.1,5.3,227.5,5.7,227.9z"/>
	<path class="st3" d="M8.9,225.9c0.2,0.2,0.3,0.2,0.5,0l0.1-0.1l0.5,0.5l-0.2,0.2C9.4,227,9,227,8.6,226.6L5.5,224l0.5-0.6
		L8.9,225.9z"/>
	<path class="st3" d="M10.8,223.4l0.5-0.6c0.7,0.7,0.4,1.5,0,1.9c-0.4,0.5-1.2,0.9-2.1,0.2l-0.6-0.5c-0.9-0.8-0.6-1.6-0.2-2.1
		s1.2-0.9,2.1-0.2l0.5,0.4l-1.4,1.7l0.1,0.1c0.4,0.4,0.8,0.3,1.1-0.1C10.9,224,11,223.7,10.8,223.4z M9,223.9L9,223.9l1-1.2l0,0
		c-0.4-0.3-0.8-0.3-1.1,0.1C8.6,223.1,8.6,223.5,9,223.9z"/>
	<path class="st3" d="M10.2,219.4c-0.2,0.2-0.2,0.3,0,0.5l0.2,0.2l0.6-0.7l0.5,0.4l-0.6,0.7l2.2,1.9l-0.5,0.6l-2.2-1.9l-0.3,0.4
		L9.6,221l0.3-0.4l-0.3-0.3c-0.4-0.4-0.5-0.7-0.1-1.2l0.5-0.6l0.5,0.5L10.2,219.4z"/>
	<path class="st3" d="M11.7,216.6l0.2,1.2l-0.4,0.4l-0.4-0.9L11.7,216.6z M12.2,220.1c-0.9-0.8-0.6-1.6-0.2-2.1
		c0.4-0.5,1.2-0.9,2.1-0.2l0.6,0.5c0.9,0.8,0.6,1.6,0.2,2.1s-1.2,0.9-2.1,0.2L12.2,220.1z M13.6,218.4c-0.4-0.4-0.8-0.3-1.1,0.1
		c-0.3,0.3-0.3,0.7,0.1,1.1l0.6,0.5c0.4,0.4,0.8,0.3,1.1-0.1s0.3-0.7-0.1-1.1L13.6,218.4z"/>
	<path class="st3" d="M16.7,218.2l-0.5,0.6l-2.8-2.3l0.5-0.6l0.2,0.2c-0.1-0.2,0-0.6,0.2-0.9c0.4-0.5,1.2-0.8,2.1-0.1l1.7,1.4
		l-0.5,0.6l-1.7-1.4c-0.4-0.4-0.8-0.3-1.1,0.1c-0.3,0.3-0.3,0.7,0.1,1.1L16.7,218.2z"/>
	<path class="st3" d="M15.9,212.7l-0.5,0.6l-0.6-0.5l0.5-0.6L15.9,212.7z M19.1,215.4l-0.5,0.6l-2.8-2.3l0.5-0.6L19.1,215.4z"/>
	<path class="st3" d="M20.5,213.8c-0.4,0.5-1.2,0.9-2.1,0.2l-0.6-0.5c-0.9-0.8-0.6-1.6-0.2-2.1c0.4-0.4,1.1-0.9,1.9-0.3l-0.5,0.6
		c-0.3-0.2-0.7-0.1-0.9,0.2c-0.3,0.3-0.3,0.7,0.1,1.1l0.6,0.5c0.4,0.4,0.8,0.3,1.1-0.1c0.2-0.3,0.3-0.6,0-1l0.5-0.6
		C21.2,212.5,20.9,213.3,20.5,213.8z"/>
	<path class="st3" d="M20.3,210.1l-0.5,0.6c-0.7-0.7-0.4-1.5,0-1.9c0.4-0.5,1.2-0.9,2.1-0.2l1.7,1.4l-0.5,0.6l-0.3-0.2
		c0.1,0.4-0.1,0.7-0.4,1.1c-0.4,0.5-1,0.7-1.6,0.2c-0.3-0.3-0.6-0.7-0.3-1.3c0.2-0.4,0.4-0.8,0.8-1.3l0,0c-0.4-0.3-0.7-0.2-1,0.1
		C20.1,209.4,20.1,209.8,20.3,210.1z M22,209.6l-0.2-0.1c-0.4,0.5-0.7,0.9-0.7,1.2c0,0.1,0,0.2,0.1,0.3c0.2,0.2,0.5,0.1,0.7-0.2
		C22.3,210.5,22.5,210,22,209.6z"/>
</g>
<g>
	<path class="st3" d="M20.9,218.8l1.2-1.4c0.6-0.7,1.4-0.8,2-0.2c0.3,0.3,0.5,0.6,0.5,1c0.5-0.2,0.9,0,1.2,0.2
		c0.7,0.6,0.8,1.3,0.1,2l-1.3,1.5L20.9,218.8z M21.9,218.8l1,0.8l0.7-0.9c0.3-0.3,0.3-0.7,0-1s-0.7-0.2-1,0.1L21.9,218.8z
		 M23.5,220.1l1,0.9l0.8-1c0.3-0.3,0.3-0.7-0.1-1c-0.3-0.3-0.7-0.2-1,0.1L23.5,220.1z"/>
	<path class="st3" d="M25.7,216.8l-0.5,0.6c-0.7-0.7-0.4-1.5,0-1.9c0.4-0.5,1.2-0.9,2.1-0.2l1.7,1.4l-0.5,0.6l-0.3-0.2
		c0.1,0.4-0.1,0.7-0.4,1.1c-0.4,0.5-1,0.7-1.6,0.2c-0.3-0.3-0.6-0.7-0.3-1.3c0.2-0.4,0.4-0.8,0.8-1.3l0,0c-0.4-0.3-0.7-0.2-1,0.1
		C25.6,216.2,25.5,216.5,25.7,216.8z M27.5,216.3l-0.2-0.1c-0.4,0.5-0.7,0.9-0.7,1.2c0,0.1,0,0.2,0.1,0.3c0.2,0.2,0.5,0.1,0.7-0.2
		C27.8,217.3,28,216.8,27.5,216.3z"/>
	<path class="st3" d="M26.8,212.9l-0.5,0.6l-0.6-0.5l0.5-0.6L26.8,212.9z M30,215.6l-0.5,0.6l-2.8-2.3l0.5-0.6L30,215.6z"/>
	<path class="st3" d="M28.7,213.7c-0.9-0.7-0.6-1.6-0.2-2c0.2-0.3,0.6-0.4,0.8-0.4l-1.2-1l0.5-0.6l3.8,3.2l-0.5,0.6l-0.3-0.2
		c0.1,0.2,0,0.6-0.2,0.9c-0.4,0.5-1.2,0.8-2.1,0.1L28.7,213.7z M29.8,213.6c0.4,0.4,0.8,0.3,1.1,0c0.3-0.3,0.3-0.8-0.1-1.1l-0.6-0.5
		c-0.4-0.4-0.8-0.3-1.1,0.1c-0.3,0.3-0.3,0.7,0.1,1.1L29.8,213.6z"/>
	<path class="st3" d="M32.2,210.8c0.4,0.4,0.8,0.3,1.1-0.1c0.3-0.3,0.3-0.7-0.1-1.1l-1.7-1.4l0.5-0.6l2.8,2.3l-0.5,0.6l-0.3-0.2
		c0.1,0.2,0,0.6-0.2,0.9c-0.4,0.5-1.2,0.8-2,0.1l-1.7-1.4l0.5-0.6L32.2,210.8z"/>
</g>
<g>
	<path class="st3" d="M32.6,222.9l1.4,1.2l-0.5,0.6l-1.4-1.2l-3.4-0.6l0.5-0.6l2.5,0.5l-0.9-2.4l0.5-0.6L32.6,222.9z"/>
	<path class="st3" d="M33.5,220.8l-0.5,0.6c-0.7-0.7-0.4-1.5,0-1.9c0.4-0.5,1.2-0.9,2.1-0.2l1.7,1.4l-0.5,0.6l-0.3-0.2
		c0.1,0.4-0.1,0.7-0.4,1.1c-0.4,0.5-1,0.7-1.6,0.2c-0.3-0.3-0.6-0.7-0.3-1.3c0.2-0.4,0.4-0.8,0.8-1.3l0,0c-0.4-0.3-0.7-0.2-1,0.1
		C33.3,220.2,33.3,220.5,33.5,220.8z M35.2,220.4l-0.2-0.1c-0.4,0.5-0.7,0.9-0.7,1.2c0,0.1,0,0.2,0.1,0.3c0.2,0.2,0.5,0.1,0.7-0.2
		C35.5,221.3,35.8,220.8,35.2,220.4z"/>
	<path class="st3" d="M37.7,219.6l-0.5,0.6l-2.8-2.3l0.5-0.6l0.2,0.2c-0.1-0.2,0-0.6,0.2-0.9c0.4-0.5,1.2-0.8,2.1-0.1l1.7,1.4
		l-0.5,0.6l-1.7-1.4c-0.4-0.4-0.8-0.3-1.1,0.1c-0.3,0.3-0.3,0.7,0.1,1.1L37.7,219.6z"/>
	<path class="st3" d="M37.9,216c-0.9-0.7-0.6-1.6-0.2-2c0.2-0.3,0.6-0.4,0.8-0.4l-1.2-1l0.5-0.6l3.8,3.2l-0.5,0.6l-0.3-0.2
		c0.1,0.2,0,0.6-0.2,0.9c-0.4,0.5-1.2,0.8-2.1,0.1L37.9,216z M39,216c0.4,0.4,0.8,0.3,1.1,0s0.3-0.8-0.1-1.1l-0.6-0.5
		c-0.4-0.4-0.8-0.3-1.1,0.1c-0.3,0.3-0.3,0.7,0.1,1.1L39,216z"/>
	<path class="st3" d="M42.5,212.2l0.5-0.6c0.7,0.7,0.4,1.5,0,1.9c-0.4,0.5-1.2,0.9-2.1,0.2l-0.6-0.5c-0.9-0.8-0.6-1.6-0.2-2.1
		s1.2-0.9,2.1-0.2l0.5,0.4l-1.4,1.7l0.1,0.1c0.4,0.4,0.8,0.3,1.1-0.1C42.6,212.8,42.7,212.5,42.5,212.2z M40.7,212.7L40.7,212.7
		l1-1.2l0,0c-0.4-0.3-0.8-0.3-1.1,0.1C40.3,211.9,40.3,212.3,40.7,212.7z"/>
	<path class="st3" d="M44,210.2l0.5,1.5l-0.5,0.6l-0.6-2.1l-2.1-0.2l0.5-0.6l1.4,0.2l-0.4-1.4l0.5-0.6l0.6,2l2.2,0.3l-0.5,0.6
		L44,210.2z"/>
</g>
<g>
	<path class="st3" d="M40.4,223.2l3.2,2.7l-0.5,0.6l-3.2-2.7l-0.9,1l-0.6-0.5l2.2-2.6l0.6,0.5L40.4,223.2z"/>
	<path class="st3" d="M45,222.5l0.5-0.6c0.7,0.7,0.4,1.5,0,1.9c-0.4,0.5-1.2,0.9-2.1,0.2l-0.6-0.5c-0.9-0.8-0.6-1.6-0.2-2.1
		s1.2-0.9,2.1-0.2l0.5,0.4l-1.4,1.7l0.1,0.1c0.4,0.4,0.8,0.3,1.1-0.1C45.1,223.1,45.2,222.8,45,222.5z M43.2,223L43.2,223l1-1.2l0,0
		c-0.4-0.3-0.8-0.3-1.1,0.1C42.8,222.2,42.8,222.6,43.2,223z"/>
	<path class="st3" d="M47.2,221.6l-0.5,0.6l-2.8-2.3l0.5-0.6l0.2,0.2c-0.1-0.2,0-0.6,0.2-0.9c0.4-0.5,1.2-0.8,2.1-0.1l1.7,1.4
		l-0.5,0.6l-1.7-1.4c-0.4-0.4-0.8-0.3-1.1,0.1c-0.3,0.3-0.3,0.7,0.1,1.1L47.2,221.6z"/>
	<path class="st3" d="M50.1,218.3c-0.4,0.5-1.2,0.9-2.1,0.2l-0.6-0.5c-0.9-0.8-0.6-1.6-0.2-2.1c0.4-0.4,1.1-0.9,1.9-0.3l-0.5,0.6
		c-0.4-0.2-0.7-0.1-0.9,0.2c-0.3,0.3-0.3,0.7,0.1,1.1l0.6,0.5c0.4,0.4,0.8,0.3,1.1-0.1c0.2-0.3,0.3-0.6,0-1l0.5-0.6
		C50.8,217.1,50.4,217.9,50.1,218.3z"/>
	<path class="st3" d="M51.8,214.3l0.5-0.6c0.7,0.7,0.4,1.5,0,1.9c-0.4,0.5-1.2,0.9-2.1,0.2l-0.6-0.5c-0.9-0.8-0.6-1.6-0.2-2.1
		c0.4-0.5,1.2-0.9,2.1-0.2l0.5,0.4l-1.4,1.7l0.1,0.1c0.4,0.3,0.8,0.3,1.1-0.1C52,214.9,52,214.6,51.8,214.3z M50.1,214.8L50.1,214.8
		l1-1.2l0,0c-0.4-0.3-0.8-0.3-1.1,0.1C49.7,214,49.7,214.5,50.1,214.8z"/>
	<path class="st3" d="M54.1,213.4l-0.5,0.6l-2.8-2.3l0.5-0.6l0.2,0.2c-0.1-0.2,0-0.6,0.2-0.9c0.4-0.5,1.2-0.8,2.1-0.1l1.7,1.4
		l-0.5,0.6l-1.7-1.4c-0.4-0.4-0.8-0.3-1.1,0.1c-0.3,0.3-0.3,0.7,0.1,1.1L54.1,213.4z"/>
	<path class="st3" d="M55.8,209.8c0.2,0.2,0.3,0.2,0.5,0l0.4-0.4l0.5,0.5l-0.5,0.6c-0.4,0.5-0.8,0.5-1.2,0.1l-1.6-1.3l-0.3,0.4
		l-0.5-0.4l0.3-0.4l-0.6-0.5l0.5-0.6l0.6,0.5l0.6-0.7L55,208l-0.6,0.7L55.8,209.8z"/>
</g>
<g>
	<path class="st3" d="M43.5,237.5l-1.2,1.4L43,240l-0.5,0.6l-2.7-4.4l0.5-0.6l4.8,1.9l-0.5,0.6L43.5,237.5z M42.8,237.2l-1.9-0.7
		l1.1,1.8L42.8,237.2z"/>
	<path class="st3" d="M47.2,234.9l-0.5,0.6l-1.7-1.4c-0.4-0.4-0.8-0.3-1.1,0s-0.3,0.7,0.1,1.1l1.7,1.4l-0.5,0.6l-2.8-2.3l0.5-0.6
		l0.2,0.2c-0.1-0.2,0-0.6,0.2-0.9c0.2-0.3,0.6-0.5,1-0.5c-0.1-0.4,0.1-0.9,0.3-1.2c0.4-0.5,1.2-0.9,2.1-0.1l1.7,1.4l-0.5,0.6
		l-1.7-1.4c-0.4-0.4-0.8-0.3-1.1,0s-0.3,0.7,0.1,1.1L47.2,234.9z"/>
	<path class="st3" d="M46.9,227.7l0.2,1.2l-0.4,0.4l-0.4-0.9L46.9,227.7z M49.6,230.3l0.5-0.6c0.7,0.7,0.4,1.5,0,1.9
		c-0.4,0.5-1.2,0.9-2.1,0.2l-0.6-0.5c-0.9-0.8-0.6-1.6-0.2-2.1s1.2-0.9,2.1-0.2l0.5,0.4l-1.4,1.7l0.1,0.1c0.4,0.4,0.8,0.3,1.1-0.1
		C49.7,230.9,49.8,230.6,49.6,230.3z M47.8,230.7L47.8,230.7l1-1.2l0,0c-0.4-0.3-0.8-0.3-1.1,0.1C47.4,230,47.4,230.4,47.8,230.7z"
		/>
	<path class="st3" d="M50.1,226.9c-0.3,0.3-0.3,0.7,0.1,1.1l1.7,1.4l-0.5,0.6l-2.8-2.3l0.5-0.6l0.3,0.2c-0.1-0.2,0-0.6,0.2-0.9
		l0.2-0.2l0.5,0.5L50.1,226.9z"/>
	<path class="st3" d="M50.1,225l-0.5,0.6l-0.6-0.5l0.5-0.6L50.1,225z M53.3,227.7l-0.5,0.6L50,226l0.5-0.6L53.3,227.7z"/>
	<path class="st3" d="M54.7,226.1c-0.4,0.5-1.2,0.9-2.1,0.2l-0.6-0.5c-0.9-0.8-0.6-1.6-0.2-2.1c0.4-0.4,1.1-0.9,1.9-0.3l-0.5,0.6
		c-0.4-0.2-0.7-0.1-0.9,0.2c-0.3,0.3-0.3,0.7,0.1,1.1l0.6,0.5c0.4,0.4,0.8,0.3,1.1-0.1c0.2-0.3,0.3-0.6,0-1l0.5-0.6
		C55.4,224.9,55.1,225.6,54.7,226.1z"/>
	<path class="st3" d="M54.5,222.4L54,223c-0.7-0.7-0.4-1.5,0-1.9c0.4-0.5,1.2-0.9,2.1-0.2l1.7,1.4l-0.5,0.6l-0.3-0.2
		c0.1,0.4-0.1,0.7-0.4,1.1c-0.4,0.5-1,0.7-1.6,0.2c-0.3-0.3-0.6-0.7-0.3-1.3c0.2-0.4,0.4-0.8,0.8-1.3l0,0c-0.4-0.3-0.7-0.2-1,0.1
		C54.3,221.8,54.3,222.1,54.5,222.4z M56.2,221.9l-0.2-0.1c-0.4,0.5-0.7,0.9-0.7,1.2c0,0.1,0,0.2,0.1,0.3c0.2,0.2,0.5,0.1,0.7-0.2
		C56.5,222.9,56.7,222.4,56.2,221.9z"/>
	<path class="st3" d="M57.5,215l0.5-0.6l3.8,3.2l-0.5,0.6l-2.6-2.2l1,2.1l-0.4,0.5l-2.2-0.6l2.6,2.2l-0.5,0.6l-3.8-3.2l0.5-0.6
		l2.9,0.8L57.5,215z"/>
	<path class="st3" d="M60,212l0.2,1.2l-0.4,0.4l-0.4-0.9L60,212z M60.5,215.6c-0.9-0.8-0.6-1.6-0.2-2.1s1.2-0.9,2.1-0.2l0.6,0.5
		c0.9,0.8,0.6,1.6,0.2,2.1s-1.2,0.9-2.1,0.2L60.5,215.6z M62,213.9c-0.4-0.4-0.8-0.3-1.1,0.1c-0.3,0.3-0.3,0.7,0.1,1.1l0.6,0.5
		c0.4,0.4,0.8,0.3,1.1-0.1c0.3-0.3,0.3-0.7-0.1-1.1L62,213.9z"/>
	<path class="st3" d="M63.1,210.3l0.5-0.6l1.9,3.3l-0.5,0.5l-3.6-1.3l0.5-0.6l2.5,1L63.1,210.3z"/>
	<path class="st3" d="M63.8,208.6l-0.5,0.6l-0.6-0.5l0.5-0.6L63.8,208.6z M67,211.3l-0.5,0.6l-2.8-2.3l0.5-0.6L67,211.3z"/>
	<path class="st3" d="M67.2,209.5c0.2,0.2,0.3,0.2,0.5,0l0.1-0.1l0.5,0.5l-0.2,0.2c-0.4,0.5-0.8,0.5-1.2,0.1l-3.1-2.6l0.5-0.6
		L67.2,209.5z"/>
</g>
<g>
	<path class="st3" d="M55.6,238.2l-0.5,0.6l-4.8-1.9l0.5-0.6l3.8,1.5l-2.1-3.5l0.5-0.6L55.6,238.2z"/>
	<path class="st3" d="M57.2,234.5l0.5-0.6c0.7,0.7,0.4,1.5,0,1.9c-0.4,0.5-1.2,0.9-2.1,0.2l-0.6-0.5c-0.9-0.8-0.6-1.6-0.2-2.1
		s1.2-0.9,2.1-0.2l0.5,0.4l-1.4,1.7l0.1,0.1c0.4,0.4,0.8,0.3,1.1-0.1C57.3,235.1,57.4,234.8,57.2,234.5z M55.4,235L55.4,235l1-1.2
		l0,0c-0.4-0.3-0.8-0.3-1.1,0.1C55,234.2,55,234.6,55.4,235z"/>
	<path class="st3" d="M57.7,231.1c-0.3,0.3-0.3,0.7,0.1,1.1l1.7,1.4l-0.5,0.6l-2.8-2.3l0.5-0.6l0.3,0.2c-0.1-0.2,0-0.6,0.2-0.9
		l0.2-0.2l0.5,0.5L57.7,231.1z"/>
	<path class="st3" d="M57.7,229.3l-0.5,0.6l-0.6-0.5l0.5-0.6L57.7,229.3z M60.9,231.9l-0.5,0.6l-2.8-2.3l0.5-0.6L60.9,231.9z"/>
	<path class="st3" d="M61.2,230.4l1.1-1.3l0.5,0.4l-1.7,2l-0.5-0.4l-0.6-2.7l-1.1,1.3l-0.5-0.4l1.6-2l0.5,0.4L61.2,230.4z"/>
	<path class="st3" d="M61.5,227.8c-0.9-0.8-0.6-1.6-0.2-2.1c0.4-0.5,1.2-0.9,2.1-0.2L64,226c0.9,0.8,0.6,1.6,0.2,2.1
		s-1.2,0.9-2.1,0.2L61.5,227.8z M62.9,226.1c-0.4-0.4-0.8-0.3-1.1,0.1c-0.3,0.3-0.3,0.7,0.1,1.1l0.6,0.5c0.4,0.4,0.8,0.3,1.1-0.1
		c0.3-0.3,0.3-0.7-0.1-1.1L62.9,226.1z"/>
	<path class="st3" d="M66,225.8l-0.5,0.6l-2.8-2.3l0.5-0.6l0.2,0.2c-0.1-0.2,0-0.6,0.2-0.9c0.4-0.5,1.2-0.8,2.1-0.1l1.7,1.4
		l-0.5,0.6l-1.7-1.4c-0.4-0.4-0.8-0.3-1.1,0.1c-0.3,0.3-0.3,0.7,0.1,1.1L66,225.8z"/>
	<path class="st3" d="M67.1,216.8l0.5-0.6l3.8,3.2l-0.5,0.6l-2.6-2.2l1,2.1l-0.4,0.5l-2.2-0.6l2.6,2.2l-0.5,0.6l-3.8-3.2l0.5-0.6
		l2.9,0.8L67.1,216.8z"/>
	<path class="st3" d="M72.4,216.4l0.5-0.6c0.7,0.7,0.4,1.5,0,1.9c-0.4,0.5-1.2,0.9-2.1,0.2l-0.6-0.5c-0.9-0.8-0.6-1.6-0.2-2.1
		s1.2-0.9,2.1-0.2l0.5,0.4l-1.4,1.7l0.1,0.1c0.4,0.4,0.8,0.3,1.1-0.1C72.5,217,72.6,216.7,72.4,216.4z M70.6,216.9L70.6,216.9l1-1.2
		l0,0c-0.4-0.3-0.8-0.3-1.1,0.1C70.2,216.1,70.2,216.5,70.6,216.9z"/>
	<path class="st3" d="M72.4,214.7c-0.9-0.7-0.6-1.6-0.2-2c0.2-0.3,0.6-0.4,0.8-0.4l-1.2-1l0.5-0.6l3.8,3.2l-0.5,0.6l-0.3-0.2
		c0.1,0.2,0,0.6-0.2,0.9c-0.4,0.5-1.2,0.8-2.1,0.1L72.4,214.7z M73.5,214.7c0.4,0.4,0.8,0.3,1.1,0c0.3-0.3,0.3-0.8-0.1-1.1l-0.6-0.5
		c-0.4-0.4-0.8-0.3-1.1,0.1c-0.3,0.3-0.3,0.7,0.1,1.1L73.5,214.7z"/>
	<path class="st3" d="M73.8,210.1l-0.5,0.6l-0.6-0.5l0.5-0.6L73.8,210.1z M77,212.7l-0.5,0.6l-2.8-2.3l0.5-0.6L77,212.7z"/>
	<path class="st3" d="M76,210l-0.5,0.6c-0.7-0.7-0.4-1.5,0-1.9c0.4-0.5,1.2-0.9,2.1-0.2l1.7,1.4l-0.5,0.6l-0.3-0.2
		c0.1,0.4-0.1,0.7-0.4,1.1c-0.4,0.5-1,0.7-1.6,0.2c-0.3-0.3-0.6-0.7-0.3-1.3c0.2-0.4,0.4-0.8,0.8-1.3l0,0c-0.4-0.3-0.8-0.2-1,0.1
		C75.8,209.4,75.8,209.8,76,210z M77.7,209.6l-0.2-0.1c-0.4,0.5-0.7,0.9-0.7,1.2c0,0.1,0,0.2,0.1,0.3c0.2,0.2,0.5,0.1,0.7-0.2
		C78,210.5,78.2,210,77.7,209.6z"/>
</g>
<g>
	<path class="st3" d="M65.3,232.3l1.2-1.4c0.6-0.7,1.4-0.8,2-0.2c0.3,0.3,0.5,0.6,0.5,1c0.5-0.2,0.9,0,1.2,0.2
		c0.7,0.6,0.8,1.3,0.1,2l-1.3,1.5L65.3,232.3z M66.3,232.2l1,0.8l0.7-0.9c0.3-0.3,0.3-0.7,0-1s-0.7-0.2-1,0.1L66.3,232.2z
		 M67.9,233.5l1,0.9l0.8-1c0.3-0.3,0.3-0.7-0.1-1c-0.3-0.3-0.7-0.2-1,0.1L67.9,233.5z"/>
	<path class="st3" d="M72.1,231.8l-0.5,0.6l-3.8-3.2l0.5-0.6l1.2,1c-0.1-0.2,0-0.6,0.2-0.9c0.4-0.5,1.2-0.8,2.1-0.1l1.7,1.4
		l-0.5,0.6l-1.7-1.4c-0.4-0.4-0.8-0.3-1.1,0.1s-0.3,0.7,0.1,1.1L72.1,231.8z"/>
	<path class="st3" d="M72.5,227.4L72,228c-0.7-0.7-0.4-1.5,0-1.9c0.4-0.5,1.2-0.9,2.1-0.2l1.7,1.4l-0.5,0.6l-0.3-0.2
		c0.1,0.4-0.1,0.7-0.4,1.1c-0.4,0.5-1,0.7-1.6,0.2c-0.3-0.3-0.6-0.7-0.3-1.3c0.2-0.4,0.4-0.8,0.8-1.3l0,0c-0.4-0.3-0.7-0.2-1,0.1
		C72.4,226.8,72.3,227.1,72.5,227.4z M74.3,227l-0.2-0.1c-0.4,0.5-0.7,0.9-0.7,1.2c0,0.1,0,0.2,0.1,0.3c0.2,0.2,0.5,0.1,0.7-0.2
		C74.6,227.9,74.8,227.4,74.3,227z"/>
	<path class="st3" d="M75,223.7c-0.3,0.3-0.3,0.7,0.1,1.1l1.7,1.4l-0.5,0.6l-2.8-2.3l0.5-0.6l0.3,0.2c-0.1-0.2,0-0.6,0.2-0.9
		l0.2-0.2l0.5,0.5L75,223.7z"/>
	<path class="st3" d="M77.5,223.7c0.2,0.2,0.3,0.2,0.5,0l0.4-0.4l0.5,0.5l-0.5,0.6c-0.4,0.5-0.8,0.5-1.2,0.1l-1.6-1.3l-0.3,0.4
		l-0.5-0.4l0.3-0.4l-0.6-0.5l0.5-0.6l0.6,0.5l0.6-0.7l0.5,0.4l-0.6,0.7L77.5,223.7z"/>
	<path class="st3" d="M76.5,220.1l-0.5,0.6l-0.6-0.5l0.5-0.6L76.5,220.1z M79.7,222.8l-0.5,0.6l-2.8-2.3l0.5-0.6L79.7,222.8z"/>
	<path class="st3" d="M81.8,218.4l-1.2,1.4l0.6,1.1l-0.5,0.6l-2.7-4.4l0.5-0.6l4.8,1.9l-0.5,0.6L81.8,218.4z M81.1,218.2l-1.9-0.7
		l1.1,1.8L81.1,218.2z"/>
	<path class="st3" d="M81,214.8l-0.5,0.6l-0.6-0.5l0.5-0.6L81,214.8z M84.1,217.5l-0.5,0.6l-2.8-2.3l0.5-0.6L84.1,217.5z"/>
	<path class="st3" d="M83.3,213.8c-0.3,0.3-0.3,0.7,0.1,1.1l1.7,1.4l-0.5,0.6l-2.8-2.3l0.5-0.6l0.3,0.2c-0.1-0.2,0-0.6,0.2-0.9
		l0.2-0.2l0.5,0.5L83.3,213.8z"/>
	<path class="st3" d="M85.8,213.8c0.2,0.2,0.3,0.2,0.5,0l0.4-0.4l0.5,0.5l-0.5,0.6c-0.4,0.5-0.8,0.5-1.2,0.1l-1.6-1.3l-0.3,0.4
		l-0.5-0.4l0.3-0.4l-0.6-0.5l0.5-0.6l0.6,0.5l0.6-0.7L85,212l-0.6,0.7L85.8,213.8z"/>
	<path class="st3" d="M88,211l0.5-0.6c0.7,0.7,0.4,1.5,0,1.9c-0.4,0.5-1.2,0.9-2.1,0.2l-0.6-0.5c-0.9-0.8-0.6-1.6-0.2-2.1
		s1.2-0.9,2.1-0.2l0.5,0.4l-1.4,1.7l0.1,0.1c0.4,0.4,0.8,0.3,1.1-0.1C88.2,211.7,88.2,211.3,88,211z M86.3,211.5L86.3,211.5l1-1.2
		l0,0c-0.4-0.3-0.8-0.3-1.1,0.1C85.9,210.8,85.9,211.2,86.3,211.5z"/>
	<path class="st3" d="M89.5,209.5c0.2,0.2,0.3,0.2,0.5,0l0.1-0.1l0.5,0.5l-0.2,0.2c-0.4,0.5-0.8,0.5-1.2,0.1l-3.1-2.6l0.5-0.6
		L89.5,209.5z"/>
</g>
<g>
	<path class="st3" d="M82.2,228.8l1.4-1.6l0.6,0.5l-1.4,1.6l1.6,1.4l-0.5,0.6l-3.8-3.2l1.8-2.2l0.6,0.5l-1.4,1.6L82.2,228.8z"/>
	<path class="st3" d="M84.6,226.4l-0.5,0.6c-0.7-0.7-0.4-1.5,0-1.9c0.4-0.5,1.2-0.9,2.1-0.2l1.7,1.4l-0.5,0.6l-0.3-0.2
		c0.1,0.4-0.1,0.7-0.4,1.1c-0.4,0.5-1,0.7-1.6,0.2c-0.3-0.3-0.6-0.7-0.3-1.3c0.2-0.4,0.4-0.8,0.8-1.3l0,0c-0.4-0.3-0.7-0.2-1,0.1
		C84.5,225.8,84.4,226.1,84.6,226.4z M86.4,226l-0.2-0.1c-0.4,0.5-0.7,0.9-0.7,1.2c0,0.1,0,0.2,0.1,0.3c0.2,0.2,0.5,0.1,0.7-0.2
		C86.6,226.9,86.9,226.4,86.4,226z"/>
	<path class="st3" d="M89.4,224.8c-0.4,0.5-1.2,0.9-2.1,0.2l-0.6-0.5c-0.9-0.8-0.6-1.6-0.2-2.1c0.4-0.4,1.1-0.9,1.9-0.3l-0.5,0.6
		c-0.4-0.2-0.7-0.1-0.9,0.2c-0.3,0.3-0.3,0.7,0.1,1.1l0.6,0.5c0.4,0.4,0.8,0.3,1.1-0.1c0.2-0.3,0.3-0.6,0-1l0.5-0.6
		C90,223.5,89.7,224.3,89.4,224.8z"/>
	<path class="st3" d="M91.1,220.8l0.5-0.6c0.7,0.7,0.4,1.5,0,1.9c-0.4,0.5-1.2,0.9-2.1,0.2l-0.6-0.5c-0.9-0.8-0.6-1.6-0.2-2.1
		s1.2-0.9,2.1-0.2l0.5,0.4l-1.4,1.7l0.1,0.1c0.4,0.4,0.8,0.3,1.1-0.1C91.3,221.4,91.3,221.1,91.1,220.8z M89.4,221.2L89.4,221.2
		l1-1.2l0,0c-0.4-0.3-0.8-0.3-1.1,0.1C89,220.5,89,220.9,89.4,221.2z"/>
	<path class="st3" d="M93.7,217.2c0.9,0.7,0.6,1.6,0.2,2c-0.2,0.3-0.6,0.4-0.8,0.4l0.3,0.2l-0.5,0.6l-3.8-3.2l0.5-0.6l1.2,1
		c-0.1-0.2,0-0.6,0.2-0.9c0.4-0.5,1.2-0.8,2.1-0.1L93.7,217.2z M92.7,217.3c-0.4-0.4-0.8-0.3-1.1,0.1c-0.3,0.3-0.3,0.7,0.1,1.1
		l0.6,0.5c0.4,0.4,0.8,0.3,1.1-0.1c0.3-0.3,0.3-0.7-0.1-1.1L92.7,217.3z"/>
	<path class="st3" d="M93.5,216.3c-0.9-0.8-0.6-1.6-0.2-2.1s1.2-0.9,2.1-0.2l0.6,0.5c0.9,0.8,0.6,1.6,0.2,2.1s-1.2,0.9-2.1,0.2
		L93.5,216.3z M95,214.6c-0.4-0.4-0.8-0.3-1.1,0.1c-0.3,0.3-0.3,0.7,0.1,1.1l0.6,0.5c0.4,0.4,0.8,0.3,1.1-0.1
		c0.3-0.3,0.3-0.7-0.1-1.1L95,214.6z"/>
	<path class="st3" d="M95.8,213.6c-0.9-0.8-0.6-1.6-0.2-2.1s1.2-0.9,2.1-0.2l0.6,0.5c0.9,0.8,0.6,1.6,0.2,2.1s-1.2,0.9-2.1,0.2
		L95.8,213.6z M97.2,211.8c-0.4-0.4-0.8-0.3-1.1,0.1c-0.3,0.3-0.3,0.7,0.1,1.1l0.6,0.5c0.4,0.4,0.8,0.3,1.1-0.1
		c0.3-0.3,0.3-0.7-0.1-1.1L97.2,211.8z"/>
	<path class="st3" d="M98.7,210.2l-0.3-2l0.6-0.7l0.3,1.9l2.6,0.3l-0.5,0.6l-2-0.2l0.1,0.7l0.9,0.8l-0.5,0.6l-3.8-3.2l0.5-0.6
		L98.7,210.2z"/>
</g>
<g>
	<path class="st3" d="M98.4,220.7l3.2,2.7l-0.5,0.6l-3.2-2.7l-0.9,1l-0.6-0.5l2.2-2.6l0.6,0.5L98.4,220.7z"/>
	<path class="st3" d="M103.5,219.3l-1.5-2l0.5-0.6l2.2,3l-0.5,0.6l-2.5-1.2l1.6,2.2l-0.5,0.6l-3.4-1.6l0.5-0.6l2.3,1.1l-1.5-2
		l0.5-0.6L103.5,219.3z"/>
	<path class="st3" d="M102.8,215.5l-0.5,0.6l-0.6-0.5l0.5-0.6L102.8,215.5z M105.9,218.2l-0.5,0.6l-2.8-2.3l0.5-0.6L105.9,218.2z"/>
	<path class="st3" d="M106.2,216.2c0.2,0.2,0.3,0.2,0.5,0l0.4-0.4l0.5,0.5l-0.5,0.6c-0.4,0.5-0.8,0.5-1.2,0.1l-1.6-1.3L104,216
		l-0.5-0.4l0.3-0.4l-0.6-0.5l0.5-0.6l0.6,0.5l0.6-0.7l0.5,0.4l-0.6,0.7L106.2,216.2z M107.8,214.3c0.2,0.2,0.3,0.2,0.5,0l0.4-0.4
		l0.5,0.5l-0.5,0.6c-0.4,0.5-0.8,0.5-1.2,0.1l-1.6-1.3l-0.3,0.4l-0.5-0.4l0.3-0.4l-0.6-0.5l0.5-0.6l0.6,0.5l0.6-0.7l0.5,0.4
		l-0.6,0.7L107.8,214.3z"/>
	<path class="st3" d="M110,211.6l0.5-0.6c0.7,0.7,0.4,1.5,0,1.9c-0.4,0.5-1.2,0.9-2.1,0.2l-0.6-0.5c-0.9-0.8-0.6-1.6-0.2-2.1
		s1.2-0.9,2.1-0.2l0.5,0.4l-1.4,1.7l0.1,0.1c0.4,0.4,0.8,0.3,1.1-0.1C110.1,212.2,110.2,211.9,110,211.6z M108.2,212L108.2,212
		l1-1.2l0,0c-0.4-0.3-0.8-0.3-1.1,0.1C107.8,211.3,107.8,211.7,108.2,212z"/>
	<path class="st3" d="M110.5,208.2c-0.3,0.3-0.3,0.7,0.1,1.1l1.7,1.4l-0.5,0.6L109,209l0.5-0.6l0.3,0.2c-0.1-0.2,0-0.6,0.2-0.9
		l0.2-0.2l0.5,0.5L110.5,208.2z"/>
</g>
<g>
	<path class="st3" d="M109,220.1l-0.5,0.6c-0.5-0.3-1-0.1-1.3,0.2c-0.3,0.4-0.4,1,0.1,1.4l1.2,1c0.5,0.4,1.1,0.2,1.4-0.1
		c0.3-0.4,0.4-1-0.1-1.4l-0.2-0.2l-0.6,0.8l-0.6-0.5l1.1-1.3l0.8,0.7c0.8,0.7,0.9,1.6,0.2,2.4c-0.7,0.8-1.6,0.9-2.4,0.2l-1.2-1
		c-0.8-0.7-0.9-1.6-0.2-2.4C107.4,219.6,108.3,219.5,109,220.1z"/>
	<path class="st3" d="M110.3,220.4c-0.9-0.8-0.6-1.6-0.2-2.1s1.2-0.9,2.1-0.2l0.6,0.5c0.9,0.8,0.6,1.6,0.2,2.1s-1.2,0.9-2.1,0.2
		L110.3,220.4z M111.8,218.7c-0.4-0.4-0.8-0.3-1.1,0.1c-0.3,0.3-0.3,0.7,0.1,1.1l0.6,0.5c0.4,0.4,0.8,0.3,1.1-0.1
		c0.3-0.3,0.3-0.7-0.1-1.1L111.8,218.7z"/>
	<path class="st3" d="M112.6,217.7c-0.9-0.8-0.6-1.6-0.2-2.1s1.2-0.9,2.1-0.2l0.6,0.5c0.9,0.8,0.6,1.6,0.2,2.1s-1.2,0.9-2.1,0.2
		L112.6,217.7z M114,216c-0.4-0.4-0.8-0.3-1.1,0.1s-0.3,0.7,0.1,1.1l0.6,0.5c0.4,0.4,0.8,0.3,1.1-0.1s0.3-0.7-0.1-1.1L114,216z"/>
	<path class="st3" d="M117.9,214.6l-0.3-0.3c0.1,0.2,0,0.6-0.2,0.9c-0.4,0.5-1.2,0.8-2.1,0.1l-0.4-0.4c-0.9-0.7-0.6-1.6-0.2-2
		c0.2-0.3,0.6-0.4,0.8-0.4l-0.2-0.2l0.5-0.6l2.7,2.2c0.9,0.8,0.6,1.6,0.2,2.1c-0.4,0.4-1.1,0.9-1.9,0.3l0.5-0.6
		c0.3,0.2,0.7,0.1,0.9-0.2C118.3,215.3,118.3,214.9,117.9,214.6z M115.8,214.8c0.4,0.4,0.8,0.3,1.1-0.1c0.3-0.3,0.3-0.7-0.1-1.1
		l-0.4-0.4c-0.4-0.4-0.8-0.3-1.1,0.1c-0.3,0.3-0.3,0.7,0.1,1.1L115.8,214.8z"/>
	<path class="st3" d="M118.6,212.3c0.2,0.2,0.3,0.2,0.5,0l0.1-0.1l0.5,0.5l-0.2,0.2c-0.4,0.5-0.8,0.5-1.2,0.1l-3.1-2.6l0.5-0.6
		L118.6,212.3z"/>
	<path class="st3" d="M120.5,209.9l0.5-0.6c0.7,0.7,0.4,1.5,0,1.9c-0.4,0.5-1.2,0.9-2.1,0.2l-0.6-0.5c-0.9-0.8-0.6-1.6-0.2-2.1
		s1.2-0.9,2.1-0.2l0.5,0.4l-1.4,1.7l0.1,0.1c0.4,0.4,0.8,0.3,1.1-0.1C120.7,210.5,120.7,210.2,120.5,209.9z M118.8,210.3
		L118.8,210.3l1-1.2l0,0c-0.4-0.3-0.8-0.3-1.1,0.1C118.4,209.6,118.4,210,118.8,210.3z"/>
</g>
<g>
	<path class="st3" d="M118.6,223.2c-0.8-0.7-0.9-1.6-0.2-2.4c0.7-0.8,1.6-0.9,2.4-0.2l1.2,1c0.8,0.7,0.9,1.6,0.2,2.4
		c-0.7,0.8-1.6,0.9-2.4,0.2L118.6,223.2z M120.4,221.1c-0.5-0.4-1.1-0.2-1.4,0.1c-0.3,0.4-0.4,1,0.1,1.4l1.2,1
		c0.5,0.4,1.1,0.2,1.4-0.1c0.3-0.4,0.4-1-0.1-1.4L120.4,221.1z"/>
	<path class="st3" d="M122.4,219.1c-0.3,0.3-0.3,0.7,0.1,1.1l1.7,1.4l-0.5,0.6l-2.8-2.3l0.5-0.6l0.3,0.2c-0.1-0.2,0-0.6,0.2-0.9
		l0.2-0.2l0.5,0.5L122.4,219.1z"/>
	<path class="st3" d="M123.7,218.4l-0.5,0.6c-0.7-0.7-0.4-1.5,0-1.9c0.4-0.5,1.2-0.9,2.1-0.2l1.7,1.4l-0.5,0.6l-0.3-0.2
		c0.1,0.4-0.1,0.7-0.4,1.1c-0.4,0.5-1,0.7-1.6,0.2c-0.3-0.3-0.6-0.7-0.3-1.3c0.2-0.4,0.4-0.8,0.8-1.3l0,0c-0.4-0.3-0.7-0.2-1,0.1
		C123.5,217.8,123.4,218.1,123.7,218.4z M125.4,217.9l-0.2-0.1c-0.4,0.5-0.7,0.9-0.7,1.2c0,0.1,0,0.2,0.1,0.3
		c0.2,0.2,0.5,0.1,0.7-0.2C125.7,218.8,125.9,218.3,125.4,217.9z"/>
	<path class="st3" d="M127.9,217.2l-0.5,0.6l-2.8-2.3l0.5-0.6l0.2,0.2c-0.1-0.2,0-0.6,0.2-0.9c0.4-0.5,1.2-0.8,2.1-0.1l1.7,1.4
		l-0.5,0.6l-1.7-1.4c-0.4-0.4-0.8-0.3-1.1,0.1c-0.3,0.3-0.3,0.7,0.1,1.1L127.9,217.2z"/>
	<path class="st3" d="M131.1,213.2l-0.3-0.3c0.1,0.2,0,0.6-0.2,0.9c-0.4,0.5-1.2,0.8-2.1,0.1l-0.4-0.4c-0.9-0.7-0.6-1.6-0.2-2
		c0.2-0.3,0.6-0.4,0.8-0.4l-0.2-0.2l0.5-0.6l2.7,2.2c0.9,0.8,0.6,1.6,0.2,2.1c-0.4,0.4-1.1,0.9-1.9,0.3l0.5-0.6
		c0.3,0.2,0.7,0.1,0.9-0.2C131.5,213.9,131.5,213.5,131.1,213.2z M129,213.3c0.4,0.4,0.8,0.3,1.1-0.1c0.3-0.3,0.3-0.7-0.1-1.1
		l-0.4-0.4c-0.4-0.4-0.8-0.3-1.1,0.1c-0.3,0.3-0.3,0.7,0.1,1.1L129,213.3z"/>
	<path class="st3" d="M132.6,209.7l0.5-0.6c0.7,0.7,0.4,1.5,0,1.9c-0.4,0.5-1.2,0.9-2.1,0.2l-0.6-0.5c-0.9-0.8-0.6-1.6-0.2-2.1
		s1.2-0.9,2.1-0.2l0.5,0.4l-1.4,1.7l0.1,0.1c0.4,0.4,0.8,0.3,1.1-0.1C132.8,210.3,132.8,210,132.6,209.7z M130.9,210.2L130.9,210.2
		l1-1.2l0,0c-0.4-0.3-0.8-0.3-1.1,0.1C130.5,209.4,130.5,209.9,130.9,210.2z"/>
</g>
<g>
	<path class="st3" d="M134.9,222.8l-0.5,0.6l-3.8-3.2l0.5-0.6l1.8,1.5l-0.5-3.1l0.6-0.7l0.5,2.6l3.4,0.4l-0.6,0.7l-2.7-0.3l0.2,1.1
		L134.9,222.8z"/>
	<path class="st3" d="M135.5,218.1l-0.5,0.6c-0.7-0.7-0.4-1.5,0-1.9c0.4-0.5,1.2-0.9,2.1-0.2l1.7,1.4l-0.5,0.6l-0.3-0.2
		c0.1,0.4-0.1,0.7-0.4,1.1c-0.4,0.5-1,0.7-1.6,0.2c-0.3-0.3-0.6-0.7-0.3-1.3c0.2-0.4,0.4-0.8,0.8-1.3l0,0c-0.4-0.3-0.8-0.2-1,0.1
		C135.4,217.5,135.3,217.8,135.5,218.1z M137.3,217.7l-0.2-0.1c-0.4,0.5-0.7,0.9-0.7,1.2c0,0.1,0,0.2,0.1,0.3
		c0.2,0.2,0.5,0.1,0.7-0.2C137.6,218.6,137.8,218.1,137.3,217.7z"/>
	<path class="st3" d="M138.2,215.5l-0.3-2l0.6-0.7l0.3,1.9l2.6,0.3l-0.5,0.6l-2-0.2l0.1,0.7l0.9,0.8l-0.5,0.6l-3.8-3.2l0.5-0.6
		L138.2,215.5z"/>
	<path class="st3" d="M140,212.8l-0.5,0.6c-0.7-0.7-0.4-1.5,0-1.9c0.4-0.5,1.2-0.9,2.1-0.2l1.7,1.4l-0.5,0.6l-0.3-0.2
		c0.1,0.4-0.1,0.7-0.4,1.1c-0.4,0.5-1,0.7-1.6,0.2c-0.3-0.3-0.6-0.7-0.3-1.3c0.2-0.4,0.4-0.8,0.8-1.3l0,0c-0.4-0.3-0.8-0.2-1,0.1
		C139.9,212.2,139.8,212.5,140,212.8z M141.8,212.3l-0.2-0.1c-0.4,0.5-0.7,0.9-0.7,1.2c0,0.1,0,0.2,0.1,0.3c0.2,0.2,0.5,0.1,0.7-0.2
		C142.1,213.2,142.3,212.7,141.8,212.3z"/>
	<path class="st3" d="M142.1,210.8c-0.9-0.8-0.6-1.6-0.2-2.1c0.4-0.5,1.2-0.9,2.1-0.2l0.6,0.5c0.9,0.8,0.6,1.6,0.2,2.1
		c-0.4,0.5-1.2,0.9-2.1,0.2L142.1,210.8z M143.5,209.1c-0.4-0.4-0.8-0.3-1.1,0.1c-0.3,0.3-0.3,0.7,0.1,1.1l0.6,0.5
		c0.4,0.4,0.8,0.3,1.1-0.1c0.3-0.3,0.3-0.7-0.1-1.1L143.5,209.1z"/>
</g>
<g>
	<path class="st3" d="M147.3,219.5l-1.2,1.4l0.6,1.1l-0.5,0.6l-2.7-4.4l0.5-0.6l4.8,1.9l-0.5,0.6L147.3,219.5z M146.6,219.3
		l-1.9-0.7l1.1,1.8L146.6,219.3z"/>
	<path class="st3" d="M150,215.9c0.9,0.7,0.6,1.6,0.2,2c-0.2,0.3-0.6,0.4-0.8,0.4l1.2,1l-0.5,0.6l-3.8-3.2l0.5-0.6l0.2,0.2
		c-0.1-0.2,0-0.6,0.2-0.9c0.4-0.5,1.2-0.8,2.1-0.1L150,215.9z M148.9,216c-0.4-0.4-0.8-0.3-1.1,0.1c-0.3,0.3-0.3,0.7,0.1,1.1
		l0.6,0.5c0.4,0.4,0.8,0.3,1.1-0.1c0.3-0.3,0.3-0.7-0.1-1.1L148.9,216z"/>
	<path class="st3" d="M152.4,213.1c0.9,0.7,0.6,1.6,0.2,2c-0.2,0.3-0.6,0.4-0.8,0.4l1.2,1l-0.5,0.6l-3.8-3.2l0.5-0.6l0.2,0.2
		c-0.1-0.2,0-0.6,0.2-0.9c0.4-0.5,1.2-0.8,2.1-0.1L152.4,213.1z M151.3,213.2c-0.4-0.4-0.8-0.3-1.1,0.1s-0.3,0.7,0.1,1.1l0.6,0.5
		c0.4,0.4,0.8,0.3,1.1-0.1c0.3-0.3,0.3-0.7-0.1-1.1L151.3,213.2z"/>
	<path class="st3" d="M153.5,212.3c0.2,0.2,0.3,0.2,0.5,0l0.1-0.1l0.5,0.5l-0.2,0.2c-0.4,0.5-0.8,0.5-1.2,0.1l-3.1-2.6l0.5-0.6
		L153.5,212.3z"/>
	<path class="st3" d="M155.5,209.9l0.5-0.6c0.7,0.7,0.4,1.5,0,1.9c-0.4,0.5-1.2,0.9-2.1,0.2l-0.6-0.5c-0.9-0.8-0.6-1.6-0.2-2.1
		s1.2-0.9,2.1-0.2l0.5,0.4l-1.4,1.7l0.1,0.1c0.4,0.4,0.8,0.3,1.1-0.1C155.6,210.5,155.7,210.2,155.5,209.9z M153.7,210.3
		L153.7,210.3l1-1.2l0,0c-0.4-0.3-0.8-0.3-1.1,0.1C153.3,209.6,153.3,210,153.7,210.3z"/>
</g>
<g>
	<path class="st3" d="M158.6,213.3l0.5-0.6l3.8,3.2l-0.5,0.6l-2.6-2.2l1,2.1l-0.4,0.5l-2.2-0.6l2.6,2.2l-0.5,0.6l-3.8-3.2l0.5-0.6
		l2.9,0.8L158.6,213.3z"/>
	<path class="st3" d="M161.2,211.3l3.2,2.7l-0.5,0.6l-3.2-2.7l-0.9,1l-0.6-0.5l2.2-2.6l0.6,0.5L161.2,211.3z"/>
	<path class="st3" d="M167.8,210l-0.5,0.6l-4-0.7l2.7,2.3l-0.5,0.6l-3.8-3.2l0.5-0.6l4,0.7l-2.7-2.3l0.5-0.6L167.8,210z"/>
</g>
<g>
	<path class="st3" d="M160.6,224.5l0.5-0.6l3.8,3.2l-0.5,0.6l-2.6-2.2l1,2.1l-0.4,0.5l-2.2-0.6l2.6,2.2l-0.5,0.6l-3.8-3.2l0.5-0.6
		l2.9,0.8L160.6,224.5z"/>
	<path class="st3" d="M162.6,223.2l-0.5,0.6l-0.6-0.5l0.5-0.6L162.6,223.2z M165.8,225.9l-0.5,0.6l-2.8-2.3l0.5-0.6L165.8,225.9z"/>
	<path class="st3" d="M167.3,224.3c-0.4,0.5-1.2,0.9-2.1,0.2l-0.6-0.5c-0.9-0.8-0.6-1.6-0.2-2.1c0.4-0.4,1.1-0.9,1.9-0.3l-0.5,0.6
		c-0.4-0.2-0.7-0.1-0.9,0.2c-0.3,0.3-0.3,0.7,0.1,1.1l0.6,0.5c0.4,0.4,0.8,0.3,1.1-0.1c0.2-0.3,0.3-0.6,0-1l0.5-0.6
		C167.9,223,167.6,223.8,167.3,224.3z"/>
	<path class="st3" d="M167.2,219.6c-0.3,0.3-0.3,0.7,0.1,1.1l1.7,1.4l-0.5,0.6l-2.8-2.3l0.5-0.6l0.3,0.2c-0.1-0.2,0-0.6,0.2-0.9
		l0.2-0.2l0.5,0.5L167.2,219.6z"/>
	<path class="st3" d="M168.2,219.6c-0.9-0.8-0.6-1.6-0.2-2.1c0.4-0.5,1.2-0.9,2.1-0.2l0.6,0.5c0.9,0.8,0.6,1.6,0.2,2.1
		c-0.4,0.5-1.2,0.9-2.1,0.2L168.2,219.6z M169.7,217.9c-0.4-0.4-0.8-0.3-1.1,0.1c-0.3,0.3-0.3,0.7,0.1,1.1l0.6,0.5
		c0.4,0.4,0.8,0.3,1.1-0.1c0.3-0.3,0.3-0.7-0.1-1.1L169.7,217.9z"/>
	<path class="st3" d="M171.2,217.7l0.5-0.6c0.3,0.2,0.6,0,0.9-0.3c0.2-0.2,0.3-0.5,0.1-0.7s-0.4,0-0.6,0.1l-0.6,0.4
		c-0.4,0.3-0.9,0.4-1.4,0c-0.5-0.5-0.5-1.1,0-1.7c0.5-0.6,1.1-0.8,1.8-0.3l-0.5,0.6c-0.3-0.2-0.6,0-0.8,0.2c-0.1,0.2-0.3,0.4,0,0.6
		c0.2,0.1,0.4,0,0.5-0.1l0.5-0.4c0.5-0.4,1-0.5,1.5,0s0.5,1.1,0,1.7C172.6,217.9,171.9,218.2,171.2,217.7z"/>
	<path class="st3" d="M172.5,214.4c-0.9-0.8-0.6-1.6-0.2-2.1c0.4-0.5,1.2-0.9,2.1-0.2l0.6,0.5c0.9,0.8,0.6,1.6,0.2,2.1
		s-1.2,0.9-2.1,0.2L172.5,214.4z M174,212.7c-0.4-0.4-0.8-0.3-1.1,0.1s-0.3,0.7,0.1,1.1l0.6,0.5c0.4,0.4,0.8,0.3,1.1-0.1
		s0.3-0.7-0.1-1.1L174,212.7z"/>
	<path class="st3" d="M174.1,209.4c-0.2,0.2-0.2,0.3,0.1,0.5l0.2,0.2l0.6-0.7l0.5,0.4l-0.6,0.7l2.2,1.9l-0.5,0.6l-2.2-1.9l-0.3,0.4
		l-0.5-0.4l0.3-0.4l-0.3-0.3c-0.4-0.4-0.5-0.7-0.1-1.2l0.5-0.6l0.5,0.5L174.1,209.4z M176.4,208.7l0.6-0.7l-0.5-0.4l-0.6,0.7
		l-0.6-0.5l-0.5,0.6l0.6,0.5l-0.3,0.4l0.5,0.4l0.3-0.4l1.6,1.3c0.4,0.4,0.8,0.4,1.2-0.1l0.5-0.6l-0.5-0.5l-0.4,0.4
		c-0.2,0.2-0.3,0.2-0.5,0L176.4,208.7z"/>
</g>
<g>
	<path class="st3" d="M175.3,228.9l-0.5,0.6l-4.8-1.9l0.5-0.6l3.8,1.5l-2.1-3.5l0.5-0.6L175.3,228.9z"/>
	<path class="st3" d="M174.7,226.2c-0.9-0.8-0.6-1.6-0.2-2.1c0.4-0.5,1.2-0.9,2.1-0.2l0.6,0.5c0.9,0.8,0.6,1.6,0.2,2.1
		s-1.2,0.9-2.1,0.2L174.7,226.2z M176.2,224.5c-0.4-0.4-0.8-0.3-1.1,0.1s-0.3,0.7,0.1,1.1l0.6,0.5c0.4,0.4,0.8,0.3,1.1-0.1
		s0.3-0.7-0.1-1.1L176.2,224.5z"/>
	<path class="st3" d="M177,223.4c-0.9-0.7-0.6-1.6-0.2-2c0.2-0.3,0.6-0.4,0.8-0.4l-1.2-1l0.5-0.6l3.8,3.2l-0.5,0.6l-0.3-0.2
		c0.1,0.2,0,0.6-0.2,0.9c-0.4,0.5-1.2,0.8-2.1,0.1L177,223.4z M178.1,223.4c0.4,0.4,0.8,0.3,1.1,0s0.3-0.8-0.1-1.1l-0.6-0.5
		c-0.4-0.4-0.8-0.3-1.1,0.1c-0.3,0.3-0.3,0.7,0.1,1.1L178.1,223.4z"/>
	<path class="st3" d="M179.6,219.9l-0.5,0.6c-0.7-0.7-0.4-1.5,0-1.9c0.4-0.5,1.2-0.9,2.1-0.2l1.7,1.4l-0.5,0.6l-0.3-0.2
		c0.1,0.4-0.1,0.7-0.4,1.1c-0.4,0.5-1,0.7-1.6,0.2c-0.3-0.3-0.6-0.7-0.3-1.3c0.2-0.4,0.4-0.8,0.8-1.3l0,0c-0.4-0.3-0.7-0.2-1,0.1
		C179.4,219.3,179.4,219.6,179.6,219.9z M181.4,219.4l-0.2-0.1c-0.4,0.5-0.7,0.9-0.7,1.2c0,0.1,0,0.2,0.1,0.3
		c0.2,0.2,0.5,0.1,0.7-0.2C181.6,220.4,181.9,219.9,181.4,219.4z"/>
	<path class="st3" d="M181,215.6c-0.2,0.2-0.2,0.3,0.1,0.5l0.2,0.2l0.6-0.7l0.5,0.4l-0.6,0.7l2.2,1.9l-0.5,0.6l-2.2-1.9l-0.3,0.4
		l-0.5-0.4l0.3-0.4l-0.3-0.3c-0.4-0.4-0.5-0.7-0.1-1.2l0.5-0.6l0.5,0.5L181,215.6z"/>
	<path class="st3" d="M183,216.3c-0.9-0.8-0.6-1.6-0.2-2.1c0.4-0.5,1.2-0.9,2.1-0.2l0.6,0.5c0.9,0.8,0.6,1.6,0.2,2.1
		c-0.4,0.5-1.2,0.9-2.1,0.2L183,216.3z M184.4,214.6c-0.4-0.3-0.8-0.3-1.1,0.1c-0.3,0.3-0.3,0.7,0.1,1.1l0.6,0.5
		c0.4,0.4,0.8,0.3,1.1-0.1c0.3-0.3,0.3-0.7-0.1-1.1L184.4,214.6z"/>
	<path class="st3" d="M187.5,214.4L187,215l-2.8-2.3l0.5-0.6l0.2,0.2c-0.1-0.2,0-0.6,0.2-0.9c0.4-0.5,1.2-0.8,2.1-0.1l1.7,1.4
		l-0.5,0.6l-1.7-1.4c-0.4-0.4-0.8-0.3-1.1,0.1c-0.3,0.3-0.3,0.7,0.1,1.1L187.5,214.4z"/>
	<path class="st3" d="M189.9,209.7l0.5-0.6c0.7,0.7,0.4,1.5,0,1.9c-0.4,0.5-1.2,0.9-2.1,0.2l-0.6-0.5c-0.9-0.8-0.6-1.6-0.2-2.1
		c0.4-0.5,1.2-0.9,2.1-0.2l0.5,0.4l-1.4,1.7l0.1,0.1c0.4,0.4,0.8,0.3,1.1-0.1C190,210.4,190.1,210,189.9,209.7z M188.1,210.2
		L188.1,210.2l1-1.2l0,0c-0.4-0.3-0.8-0.3-1.1,0.1C187.7,209.4,187.7,209.9,188.1,210.2z"/>
</g>
<g>
	<path class="st3" d="M188.6,220.1l0.5-0.6l3.8,3.2l-0.5,0.6l-2.6-2.2l1,2.1l-0.4,0.5l-2.2-0.6l2.6,2.2l-0.5,0.6l-3.8-3.2l0.5-0.6
		l2.9,0.8L188.6,220.1z"/>
	<path class="st3" d="M191.8,219.9l-0.5,0.6c-0.7-0.7-0.4-1.5,0-1.9c0.4-0.5,1.2-0.9,2.1-0.2l1.7,1.4l-0.5,0.6l-0.3-0.2
		c0.1,0.4-0.1,0.7-0.4,1.1c-0.4,0.5-1,0.7-1.6,0.2c-0.3-0.3-0.6-0.7-0.3-1.3c0.2-0.4,0.4-0.8,0.8-1.3l0,0c-0.4-0.3-0.7-0.2-1,0.1
		C191.7,219.3,191.6,219.7,191.8,219.9z M193.6,219.5l-0.2-0.1c-0.4,0.5-0.7,0.9-0.7,1.2c0,0.1,0,0.2,0.1,0.3
		c0.2,0.2,0.5,0.1,0.7-0.2C193.9,220.4,194.1,219.9,193.6,219.5z"/>
	<path class="st3" d="M192.9,216.1l-0.5,0.6l-0.6-0.5l0.5-0.6L192.9,216.1z M196.1,218.7l-0.5,0.6l-2.8-2.3l0.5-0.6L196.1,218.7z"/>
	<path class="st3" d="M196.2,216.9c0.2,0.2,0.3,0.2,0.5,0l0.1-0.1l0.5,0.5l-0.2,0.2c-0.4,0.5-0.8,0.5-1.2,0.1l-3.1-2.6l0.5-0.6
		L196.2,216.9z"/>
	<path class="st3" d="M197,216.2l0.6-0.7l0.7,0.6l-0.6,0.7L197,216.2z"/>
	<path class="st3" d="M197.7,213.5l1.6,1.4l-0.5,0.6l-3.8-3.2l1.2-1.5c0.6-0.7,1.4-0.8,2-0.2c0.6,0.5,0.7,1.1,0.3,1.7l2.4,0.4
		l-0.5,0.6l-2.4-0.4L197.7,213.5z M196.9,211.3l-0.7,0.9l1,0.9l0.7-0.9c0.3-0.3,0.3-0.7,0-1C197.6,210.9,197.2,210.9,196.9,211.3z"
		/>
	<path class="st3" d="M200.8,210.9c0.4,0.4,0.8,0.3,1.1-0.1c0.3-0.3,0.3-0.7-0.1-1.1l-1.7-1.4l0.5-0.6l2.8,2.3l-0.5,0.6l-0.3-0.2
		c0.1,0.2,0,0.6-0.2,0.9c-0.4,0.5-1.2,0.8-2,0.1l-1.7-1.4l0.5-0.6L200.8,210.9z"/>
</g>
<g>
	<path class="st3" d="M201.9,220.7l-1.2,1.4l0.6,1.1l-0.5,0.6l-2.7-4.4l0.5-0.6l4.8,1.9l-0.5,0.6L201.9,220.7z M201.2,220.4
		l-1.9-0.7l1.1,1.8L201.2,220.4z"/>
	<path class="st3" d="M203.6,218.5l0.5,1.5l-0.5,0.6l-0.6-2.1l-2.1-0.2l0.5-0.6l1.4,0.2l-0.4-1.4l0.5-0.6l0.6,2l2.2,0.3l-0.5,0.6
		L203.6,218.5z"/>
	<path class="st3" d="M203.2,214.6l-0.5,0.6l-0.6-0.5l0.5-0.6L203.2,214.6z M206.4,217.2l-0.5,0.6l-2.8-2.3l0.5-0.6L206.4,217.2z"/>
	<path class="st3" d="M205.4,214.6l-0.5,0.6c-0.7-0.7-0.4-1.5,0-1.9c0.4-0.5,1.2-0.9,2.1-0.2l1.7,1.4l-0.5,0.6l-0.3-0.2
		c0.1,0.4-0.1,0.7-0.4,1.1c-0.4,0.5-1,0.7-1.6,0.2c-0.3-0.3-0.6-0.7-0.3-1.3c0.2-0.4,0.4-0.8,0.8-1.3l0,0c-0.4-0.3-0.7-0.2-1,0.1
		C205.2,213.9,205.2,214.3,205.4,214.6z M207.1,214.1L207,214c-0.4,0.5-0.7,0.9-0.7,1.2c0,0.1,0,0.2,0.1,0.3
		c0.2,0.2,0.5,0.1,0.7-0.2C207.4,215,207.6,214.5,207.1,214.1z"/>
	<path class="st3" d="M208.9,212.5c0.2,0.2,0.3,0.2,0.5,0l0.4-0.4l0.5,0.5l-0.5,0.6c-0.4,0.5-0.8,0.5-1.2,0.1L207,212l-0.3,0.4
		l-0.5-0.4l0.3-0.4l-0.6-0.5l0.5-0.6l0.6,0.5l0.6-0.7l0.5,0.4l-0.6,0.7L208.9,212.5z"/>
	<path class="st3" d="M209.2,210.1l-0.5,0.6c-0.7-0.7-0.4-1.5,0-1.9c0.4-0.5,1.2-0.9,2.1-0.2l1.7,1.4l-0.5,0.6l-0.3-0.2
		c0.1,0.4-0.1,0.7-0.4,1.1c-0.4,0.5-1,0.7-1.6,0.2c-0.3-0.3-0.6-0.7-0.3-1.3c0.2-0.4,0.4-0.8,0.8-1.3l0,0c-0.4-0.3-0.7-0.2-1,0.1
		C209,209.4,209,209.8,209.2,210.1z M210.9,209.6l-0.2-0.1c-0.4,0.5-0.7,0.9-0.7,1.2c0,0.1,0,0.2,0.1,0.3c0.2,0.2,0.5,0.1,0.7-0.2
		C211.2,210.5,211.4,210,210.9,209.6z"/>
</g>
<g>
	<path class="st3" d="M214.5,217.9l-1.2,1.4l0.6,1.1l-0.5,0.6l-2.7-4.4l0.5-0.6l4.8,1.9l-0.5,0.6L214.5,217.9z M213.8,217.7
		l-1.9-0.7l1.1,1.8L213.8,217.7z"/>
	<path class="st3" d="M214.1,213.8l3.2,2.7l-0.5,0.6l-3.2-2.7l-0.9,1l-0.6-0.5l2.2-2.6l0.6,0.5L214.1,213.8z"/>
	<path class="st3" d="M218.6,211.7l1.6,1.3l-1,1.2c-0.4,0.5-1.2,0.9-2,0.2c-0.4-0.3-0.5-0.7-0.4-1.1c-0.4,0.1-0.8,0.1-1.2-0.2
		c-0.8-0.7-0.5-1.6-0.1-2l0.5-0.6l0.5,0.5l-0.5,0.6c-0.3,0.3-0.3,0.7,0,1s0.7,0.2,1-0.1l0.5-0.6l-0.4-0.4l0.5-0.6l0.4,0.4l0.5-0.6
		l0.5,0.5L218.6,211.7z M219.2,213.1l-1.1-0.9l-0.5,0.6c-0.3,0.3-0.3,0.7,0.1,1c0.3,0.3,0.7,0.2,1-0.1L219.2,213.1z"/>
	<path class="st3" d="M218.8,208.2l3.2,2.7l-0.5,0.6l-3.2-2.7l-0.9,1l-0.6-0.5l2.2-2.6l0.6,0.5L218.8,208.2z"/>
</g>
<g>
	<path class="st3" d="M217.3,228.6l1.4-1.6l0.6,0.5l-1.4,1.6l1,0.9l1.4-1.6l0.6,0.5L219,231l-3.8-3.2l1.8-2.2l0.6,0.5l-1.4,1.6
		L217.3,228.6z"/>
	<path class="st3" d="M221,226.9c0.2,0.2,0.3,0.2,0.5,0l0.4-0.4l0.5,0.5l-0.5,0.6c-0.4,0.5-0.8,0.5-1.2,0.1l-1.6-1.3l-0.3,0.4
		l-0.5-0.4l0.3-0.4l-0.6-0.5l0.5-0.6l0.6,0.5l0.6-0.7l0.5,0.4l-0.6,0.7L221,226.9z"/>
	<path class="st3" d="M220,223.3l-0.5,0.6l-0.6-0.5l0.5-0.6L220,223.3z M223.2,226l-0.5,0.6l-2.8-2.3l0.5-0.6L223.2,226z"/>
	<path class="st3" d="M222.7,224.8l0.5-0.6c0.3,0.2,0.6,0,0.9-0.3c0.2-0.2,0.3-0.5,0.1-0.7s-0.4,0-0.6,0.1l-0.6,0.4
		c-0.4,0.3-0.9,0.4-1.4,0c-0.5-0.5-0.5-1.1,0-1.7c0.5-0.6,1.1-0.8,1.8-0.3l-0.5,0.6c-0.3-0.2-0.6,0-0.8,0.2c-0.1,0.2-0.3,0.4,0,0.6
		c0.2,0.1,0.4,0,0.5-0.1l0.5-0.4c0.5-0.4,1-0.5,1.5,0s0.5,1.1,0,1.7C224.1,225.1,223.3,225.3,222.7,224.8z"/>
	<path class="st3" d="M224.3,220.9l-0.5,0.6c-0.7-0.7-0.4-1.5,0-1.9c0.4-0.5,1.2-0.9,2.1-0.2l1.7,1.4l-0.5,0.6l-0.3-0.2
		c0.1,0.4-0.1,0.7-0.4,1.1c-0.4,0.5-1,0.7-1.6,0.2c-0.3-0.3-0.6-0.7-0.3-1.3c0.2-0.4,0.4-0.8,0.8-1.3l0,0c-0.4-0.3-0.7-0.2-1,0.1
		C224.1,220.3,224.1,220.6,224.3,220.9z M226,220.4l-0.2-0.1c-0.4,0.5-0.7,0.9-0.7,1.2c0,0.1,0,0.2,0.1,0.3c0.2,0.2,0.5,0.1,0.7-0.2
		C226.3,221.3,226.5,220.8,226,220.4z"/>
	<path class="st3" d="M227.7,219c0.2,0.2,0.3,0.2,0.5,0l0.1-0.1l0.5,0.5l-0.2,0.2c-0.4,0.5-0.8,0.5-1.2,0.1l-3.1-2.6l0.5-0.6
		L227.7,219z"/>
	<path class="st3" d="M227.6,216.8l-0.5,0.6c-0.7-0.7-0.4-1.5,0-1.9c0.4-0.5,1.2-0.9,2.1-0.2l1.7,1.4l-0.5,0.6l-0.3-0.2
		c0.1,0.4-0.1,0.7-0.4,1.1c-0.4,0.5-1,0.7-1.6,0.2c-0.3-0.3-0.6-0.7-0.3-1.3c0.2-0.4,0.4-0.8,0.8-1.3l0,0c-0.4-0.3-0.7-0.2-1,0.1
		C227.5,216.2,227.4,216.5,227.6,216.8z M229.4,216.4l-0.2-0.1c-0.4,0.5-0.7,0.9-0.7,1.2c0,0.1,0,0.2,0.1,0.3
		c0.2,0.2,0.5,0.1,0.7-0.2C229.7,217.3,229.9,216.8,229.4,216.4z"/>
	<path class="st3" d="M231.2,214.8c0.2,0.2,0.3,0.2,0.5,0l0.3-0.4l0.5,0.5l-0.5,0.6c-0.4,0.5-0.8,0.5-1.2,0.1l-1.6-1.3l-0.3,0.4
		l-0.5-0.4l0.3-0.4l-0.6-0.5l0.5-0.6l0.6,0.5l0.6-0.7l0.5,0.4l-0.6,0.7L231.2,214.8z"/>
</g>
<g>
	<path class="st3" d="M225.9,234.5l0.5-0.6c0.5,0.3,1,0.2,1.3-0.3c0.3-0.4,0.3-0.8,0-1s-0.6-0.2-1,0.1l-0.7,0.5
		c-0.5,0.4-1.2,0.3-1.7-0.1c-0.7-0.6-0.6-1.4-0.1-2.1c0.6-0.7,1.4-0.8,2.1-0.4l-0.5,0.6c-0.4-0.2-0.8-0.1-1.1,0.3
		c-0.4,0.4-0.3,0.8,0,1s0.6,0.2,0.8,0l0.7-0.5c0.6-0.5,1.2-0.5,1.9,0c0.6,0.5,0.7,1.3,0,2.1C227.6,235,226.7,235,225.9,234.5z"/>
	<path class="st3" d="M228.1,230.3l-0.5,0.6c-0.7-0.7-0.4-1.5,0-1.9c0.4-0.5,1.2-0.9,2.1-0.2l1.7,1.4l-0.5,0.6l-0.3-0.2
		c0.1,0.4-0.1,0.7-0.4,1.1c-0.4,0.5-1,0.7-1.6,0.2c-0.3-0.3-0.6-0.7-0.3-1.3c0.2-0.4,0.4-0.8,0.8-1.3l0,0c-0.4-0.3-0.7-0.2-1,0.1
		C228,229.7,227.9,230,228.1,230.3z M229.9,229.9l-0.2-0.1c-0.4,0.5-0.7,0.9-0.7,1.2c0,0.1,0,0.2,0.1,0.3c0.2,0.2,0.5,0.1,0.7-0.2
		C230.2,230.8,230.4,230.3,229.9,229.9z"/>
	<path class="st3" d="M233.8,227.5l-0.5,0.6l-1.7-1.4c-0.4-0.4-0.8-0.3-1.1,0s-0.3,0.7,0.1,1.1l1.7,1.4l-0.5,0.6l-2.8-2.3l0.5-0.6
		l0.2,0.2c-0.1-0.2,0-0.6,0.2-0.9c0.2-0.3,0.6-0.5,1-0.5c-0.1-0.4,0.1-0.9,0.3-1.2c0.4-0.5,1.2-0.9,2.1-0.1l1.7,1.4l-0.5,0.6
		l-1.7-1.4c-0.4-0.4-0.8-0.3-1.1,0s-0.3,0.7,0.1,1.1L233.8,227.5z"/>
	<path class="st3" d="M234.6,224.7l0.5-0.6c0.3,0.2,0.6,0,0.9-0.3c0.2-0.2,0.3-0.5,0.1-0.7s-0.4,0-0.6,0.1l-0.6,0.4
		c-0.4,0.3-0.9,0.4-1.4,0c-0.5-0.5-0.5-1.1,0-1.7c0.5-0.6,1.1-0.8,1.8-0.3l-0.5,0.6c-0.3-0.2-0.6,0-0.8,0.2c-0.1,0.2-0.3,0.4,0,0.6
		c0.2,0.1,0.4,0,0.5-0.1l0.5-0.4c0.5-0.4,1-0.5,1.5,0s0.5,1.1,0,1.7C236,224.9,235.3,225.2,234.6,224.7z"/>
	<path class="st3" d="M237,221.4c0.4,0.4,0.8,0.3,1.1-0.1s0.3-0.7-0.1-1.1l-1.7-1.4l0.5-0.6l2.8,2.3l-0.5,0.6l-0.3-0.2
		c0.1,0.2,0,0.6-0.2,0.9c-0.4,0.5-1.2,0.8-2,0.1l-1.7-1.4l0.5-0.6L237,221.4z"/>
	<path class="st3" d="M240.5,219.5L240,220l-2.8-2.3l0.5-0.6l0.2,0.2c-0.1-0.2,0-0.6,0.2-0.9c0.4-0.5,1.2-0.8,2.1-0.1l1.7,1.4
		l-0.5,0.6l-1.7-1.4c-0.4-0.4-0.8-0.3-1.1,0.1s-0.3,0.7,0.1,1.1L240.5,219.5z"/>
	<path class="st3" d="M243.7,215.5l-0.3-0.3c0.1,0.2,0,0.6-0.2,0.9c-0.4,0.5-1.2,0.8-2.1,0.1l-0.4-0.4c-0.9-0.7-0.6-1.6-0.2-2
		c0.2-0.3,0.6-0.4,0.8-0.4l-0.2-0.2l0.5-0.6l2.7,2.2c0.9,0.8,0.6,1.6,0.2,2.1c-0.4,0.4-1.1,0.9-1.9,0.3l0.5-0.6
		c0.3,0.2,0.7,0.1,0.9-0.2C244.1,216.2,244.1,215.8,243.7,215.5z M241.5,215.7c0.4,0.4,0.8,0.3,1.1-0.1c0.3-0.3,0.3-0.7-0.1-1.1
		l-0.4-0.4c-0.4-0.4-0.8-0.3-1.1,0.1c-0.3,0.3-0.3,0.7,0.1,1.1L241.5,215.7z"/>
</g>
<g>
	<path class="st3" d="M237.1,230.8c-0.8-0.7-0.9-1.6-0.2-2.4c0.7-0.8,1.6-0.9,2.4-0.2l1.2,1c0.8,0.7,0.9,1.6,0.2,2.4
		c-0.7,0.8-1.6,0.9-2.4,0.2L237.1,230.8z M238.8,228.7c-0.5-0.4-1.1-0.2-1.4,0.1s-0.4,1,0.1,1.4l1.2,1c0.5,0.4,1.1,0.2,1.4-0.1
		s0.4-1-0.1-1.4L238.8,228.7z"/>
	<path class="st3" d="M240.5,228.4c-0.9-0.8-0.6-1.6-0.2-2.1c0.4-0.5,1.2-0.9,2.1-0.2l0.6,0.5c0.9,0.8,0.6,1.6,0.2,2.1
		c-0.4,0.5-1.2,0.9-2.1,0.2L240.5,228.4z M241.9,226.7c-0.4-0.4-0.8-0.3-1.1,0.1c-0.3,0.3-0.3,0.7,0.1,1.1l0.6,0.5
		c0.4,0.4,0.8,0.3,1.1-0.1c0.3-0.3,0.3-0.7-0.1-1.1L241.9,226.7z"/>
	<path class="st3" d="M243.2,224c-0.3,0.3-0.3,0.7,0.1,1.1l1.7,1.4l-0.5,0.6l-2.8-2.3l0.5-0.6l0.3,0.2c-0.1-0.2,0-0.6,0.2-0.9
		l0.2-0.2l0.5,0.5L243.2,224z"/>
	<path class="st3" d="M246.4,223l0.5-0.6c0.7,0.7,0.4,1.5,0,1.9c-0.4,0.5-1.2,0.9-2.1,0.2l-0.6-0.5c-0.9-0.8-0.6-1.6-0.2-2.1
		s1.2-0.9,2.1-0.2l0.5,0.4l-1.4,1.7l0.1,0.1c0.4,0.4,0.8,0.3,1.1-0.1C246.6,223.6,246.6,223.3,246.4,223z M244.6,223.4L244.6,223.4
		l1-1.2l0,0c-0.4-0.3-0.8-0.3-1.1,0.1C244.2,222.7,244.2,223.1,244.6,223.4z"/>
	<path class="st3" d="M246.4,221.3c-0.9-0.7-0.6-1.6-0.2-2c0.2-0.3,0.6-0.4,0.8-0.4l-1.2-1l0.5-0.6l3.8,3.2l-0.5,0.6l-0.3-0.2
		c0.1,0.2,0,0.6-0.2,0.9c-0.4,0.5-1.2,0.8-2.1,0.1L246.4,221.3z M247.5,221.2c0.4,0.4,0.8,0.3,1.1,0s0.3-0.8-0.1-1.1l-0.6-0.5
		c-0.4-0.4-0.8-0.3-1.1,0.1c-0.3,0.3-0.3,0.7,0.1,1.1L247.5,221.2z"/>
	<path class="st3" d="M248.8,218.5c-0.9-0.8-0.6-1.6-0.2-2.1c0.4-0.5,1.2-0.9,2.1-0.2l0.6,0.5c0.9,0.8,0.6,1.6,0.2,2.1
		c-0.4,0.5-1.2,0.9-2.1,0.2L248.8,218.5z M250.2,216.8c-0.4-0.4-0.8-0.3-1.1,0.1c-0.3,0.3-0.3,0.7,0.1,1.1l0.6,0.5
		c0.4,0.3,0.8,0.3,1.1-0.1c0.3-0.3,0.3-0.7-0.1-1.1L250.2,216.8z"/>
	<path class="st3" d="M251.1,215.8c-0.9-0.8-0.6-1.6-0.2-2.1c0.4-0.5,1.2-0.9,2.1-0.2l0.6,0.5c0.9,0.8,0.6,1.6,0.2,2.1
		c-0.4,0.5-1.2,0.9-2.1,0.2L251.1,215.8z M252.5,214.1c-0.4-0.4-0.8-0.3-1.1,0.1s-0.3,0.7,0.1,1.1l0.6,0.5c0.4,0.4,0.8,0.3,1.1-0.1
		s0.3-0.7-0.1-1.1L252.5,214.1z"/>
</g>
<g>
	<rect x="225.5" y="186.5" class="st4" width="9.5" height="15.4"/>
	<g>
		<path class="st3" d="M231.3,199.1h-2c-1.2,0-1.6-0.9-1.6-1.6c0-0.7,0.4-1.6,1.6-1.6h2c1.2,0,1.6,0.9,1.6,1.6
			C232.9,198.2,232.5,199.1,231.3,199.1z M231.3,196.7h-2.1c-0.5,0-0.8,0.3-0.8,0.8s0.3,0.8,0.8,0.8h2.1c0.5,0,0.8-0.3,0.8-0.8
			C232.1,197.1,231.8,196.7,231.3,196.7z"/>
		<path class="st3" d="M231.8,195.3v-1h1v1H231.8z"/>
		<path class="st3" d="M228.8,193.3l0.8,1h-1.1l-0.8-1v-0.8h5v0.8H228.8z"/>
		<path class="st3" d="M231.4,192L231.4,192v-0.8l0,0c0.5,0,0.7-0.4,0.7-0.8c0-0.5-0.2-0.8-0.7-0.8s-0.7,0.3-0.7,0.8v0.4H230v-0.4
			c0-0.5-0.3-0.8-0.7-0.8c-0.5,0-0.8,0.3-0.8,0.8c0,0.4,0.3,0.8,0.7,0.8l0,0v0.8l0,0c-1.1,0-1.5-0.9-1.5-1.6c0-0.7,0.5-1.6,1.5-1.6
			c0.4,0,0.9,0.2,1.1,0.6c0.2-0.4,0.7-0.6,1.1-0.6c1,0,1.5,0.8,1.5,1.5C232.9,191.1,232.5,192,231.4,192z"/>
	</g>
</g>
<g>
	<rect x="236.4" y="186.5" class="st4" width="9.5" height="15.4"/>
	<g>
		<path class="st3" d="M242.2,198.8h-2c-1.2,0-1.6-0.9-1.6-1.6c0-0.7,0.4-1.6,1.6-1.6h2c1.2,0,1.6,0.9,1.6,1.6
			C243.8,198,243.4,198.8,242.2,198.8z M242.3,196.5h-2.1c-0.5,0-0.8,0.3-0.8,0.8s0.3,0.8,0.8,0.8h2.1c0.5,0,0.8-0.3,0.8-0.8
			S242.8,196.5,242.3,196.5z"/>
		<path class="st3" d="M242.8,195.1v-1h1v1H242.8z"/>
		<path class="st3" d="M239.8,193.1l0.8,1h-1.1l-0.8-1v-0.8h5v0.8H239.8z"/>
		<path class="st3" d="M239.5,189.7v2.3h-0.8v-3.1h0.8l4.3,1.6v0.8L239.5,189.7z"/>
	</g>
</g>
<g>
	<rect x="247.6" y="186.5" class="st4" width="9.3" height="15.4"/>
	<g>
		<path class="st3" d="M253.3,200h-2c-1.2,0-1.6-0.9-1.6-1.6c0-0.7,0.4-1.6,1.6-1.6h2c1.2,0,1.6,0.9,1.6,1.6
			C254.9,199.1,254.4,200,253.3,200z M253.3,197.6h-2.1c-0.5,0-0.8,0.3-0.8,0.8s0.3,0.8,0.8,0.8h2.1c0.5,0,0.8-0.3,0.8-0.8
			C254.1,198,253.8,197.6,253.3,197.6z"/>
		<path class="st3" d="M253.8,196.2v-1h1v1H253.8z"/>
		<path class="st3" d="M254,194.7l-1.8-1.8c-0.3-0.3-0.7-0.6-1-0.6c-0.5,0-0.7,0.3-0.7,0.8s0.3,0.8,0.8,0.8h0.1v0.8h-0.1
			c-1.2,0-1.6-0.9-1.6-1.6c0-0.7,0.4-1.6,1.5-1.6c0.6,0,1.1,0.3,1.5,0.8l1.3,1.3v-2.1h0.8v3.1H254V194.7z"/>
		<path class="st3" d="M253.3,191.1h-2c-1.2,0-1.6-0.9-1.6-1.6c0-0.7,0.4-1.5,1.5-1.6l0,0v0.8l0,0c-0.5,0-0.7,0.3-0.7,0.8
			s0.3,0.8,0.8,0.8h0.6c-0.1-0.2-0.3-0.5-0.3-0.8c0-0.6,0.4-1.5,1.6-1.5h0.1c1.2,0,1.6,0.9,1.6,1.6
			C254.9,190.2,254.4,191.1,253.3,191.1z M253.3,188.7h-0.2c-0.5,0-0.8,0.3-0.8,0.8s0.3,0.8,0.8,0.8h0.2c0.5,0,0.8-0.3,0.8-0.8
			C254.1,189.1,253.8,188.7,253.3,188.7z"/>
	</g>
</g>
<g>
	<g>
		<rect x="203.5" y="184.5" class="st5" width="9.5" height="15.4"/>
		<g>
			<path class="st3" d="M209.3,193.7h-2c-1.2,0-1.6-0.9-1.6-1.6c0-0.7,0.4-1.6,1.6-1.6h2c1.2,0,1.6,0.9,1.6,1.6
				C210.9,192.8,210.5,193.7,209.3,193.7z M209.4,191.3h-2.1c-0.5,0-0.8,0.3-0.8,0.8s0.3,0.8,0.8,0.8h2.1c0.5,0,0.8-0.3,0.8-0.8
				C210.2,191.7,209.9,191.3,209.4,191.3z"/>
		</g>
	</g>
	<g>
		<rect x="214.5" y="184.5" class="st5" width="9.5" height="15.4"/>
		<g>
			<path class="st3" d="M220.3,193.7h-2c-1.2,0-1.6-0.9-1.6-1.6c0-0.7,0.4-1.6,1.6-1.6h2c1.2,0,1.6,0.9,1.6,1.6
				C221.9,192.8,221.5,193.7,220.3,193.7z M220.3,191.3h-2.1c-0.5,0-0.8,0.3-0.8,0.8s0.3,0.8,0.8,0.8h2.1c0.5,0,0.8-0.3,0.8-0.8
				C221.1,191.7,220.9,191.3,220.3,191.3z"/>
		</g>
	</g>
	<g>
		<rect x="17.3" y="21.1" class="st6" width="9.3" height="15.4"/>
		<g>
			<path class="st3" d="M20.4,34.3l0.8,1h-1.1l-0.8-1v-0.8h5v0.8H20.4z"/>
			<path class="st3" d="M22.9,32.8h-2c-1.2,0-1.6-0.9-1.6-1.6s0.4-1.5,1.5-1.6l0,0v0.8l0,0c-0.5,0-0.7,0.3-0.7,0.8s0.3,0.8,0.8,0.8
				h0.6c-0.1-0.2-0.3-0.5-0.3-0.8c0-0.6,0.4-1.5,1.6-1.5h0.1c1.2,0,1.6,0.9,1.6,1.6C24.5,31.9,24.1,32.8,22.9,32.8z M22.9,30.4h-0.2
				c-0.5,0-0.8,0.3-0.8,0.8s0.3,0.8,0.8,0.8h0.2c0.5,0,0.8-0.3,0.8-0.8C23.7,30.8,23.4,30.4,22.9,30.4z"/>
			<path class="st3" d="M23.4,29.1v-1h1v1H23.4z"/>
			<path class="st3" d="M20.4,27.1l0.8,1h-1.1l-0.8-1v-0.8h5v0.8H20.4z"/>
			<path class="st3" d="M23,25.6L23,25.6v-0.8l0,0c0.5,0,0.7-0.3,0.7-0.8s-0.3-0.8-0.8-0.8h-0.6c0.1,0.2,0.3,0.5,0.3,0.8
				c0,0.6-0.4,1.5-1.6,1.5h-0.1c-1.2,0-1.6-0.9-1.6-1.6s0.4-1.6,1.6-1.6h2c1.2,0,1.6,0.9,1.6,1.6C24.5,24.8,24.1,25.6,23,25.6z
				 M21,23.3h-0.2c-0.5,0-0.8,0.3-0.8,0.8s0.3,0.8,0.8,0.8H21c0.5,0,0.8-0.3,0.8-0.8C21.8,23.6,21.5,23.3,21,23.3z"/>
		</g>
	</g>
	<g>
		<rect x="28.3" y="123.2" class="st6" width="9.3" height="15.4"/>
		<g>
			<path class="st3" d="M33.9,136.2h-2c-1.2,0-1.6-0.9-1.6-1.6c0-0.7,0.4-1.5,1.5-1.6l0,0v0.8l0,0c-0.5,0-0.7,0.3-0.7,0.8
				s0.3,0.8,0.8,0.8h0.6c-0.1-0.2-0.3-0.5-0.3-0.8c0-0.6,0.4-1.5,1.6-1.5h0.1c1.2,0,1.6,0.9,1.6,1.6C35.4,135.3,35,136.2,33.9,136.2
				z M33.9,133.8h-0.2c-0.5,0-0.8,0.3-0.8,0.8s0.3,0.8,0.8,0.8h0.2c0.5,0,0.8-0.3,0.8-0.8C34.7,134.2,34.4,133.8,33.9,133.8z"/>
			<path class="st3" d="M34.4,132.4v-1h1v1H34.4z"/>
			<path class="st3" d="M34.6,130.9l-1.8-1.8c-0.3-0.3-0.7-0.6-1-0.6c-0.5,0-0.7,0.3-0.7,0.8s0.3,0.8,0.8,0.8H32v0.8h-0.1
				c-1.2,0-1.6-0.9-1.6-1.6c0-0.7,0.4-1.6,1.5-1.6c0.6,0,1.1,0.3,1.5,0.8l1.3,1.3v-2.1h0.8v3.1h-0.8V130.9z"/>
			<path class="st3" d="M31.4,126.5l0.8,1h-1.1l-0.8-1v-0.8h5v0.8H31.4z"/>
		</g>
	</g>
	<g>
		<rect x="39.1" y="130.9" class="st6" width="9.3" height="15.4"/>
		<g>
			<path class="st3" d="M44.8,144.3L44.8,144.3v-0.8l0,0c0.5,0,0.7-0.4,0.7-0.8c0-0.5-0.3-0.8-0.7-0.8h-0.3c-0.5,0-0.8,0.3-0.8,0.8
				c0,0.3,0.2,0.6,0.4,0.7v0.8h-3v-2.9h0.8v2.1h1.2c-0.1-0.2-0.2-0.5-0.2-0.8c0-0.6,0.4-1.5,1.6-1.5h0.3c1,0,1.5,0.8,1.5,1.5
				C46.3,143.4,45.9,144.3,44.8,144.3z"/>
			<path class="st3" d="M45.3,140.6v-1h1v1H45.3z"/>
			<path class="st3" d="M44.7,139h-2c-1.2,0-1.6-0.9-1.6-1.6c0-0.7,0.4-1.5,1.5-1.6l0,0v0.8l0,0c-0.5,0-0.7,0.3-0.7,0.8
				s0.3,0.8,0.8,0.8h0.6c-0.1-0.2-0.3-0.5-0.3-0.8c0-0.6,0.4-1.5,1.6-1.5h0.1c1.2,0,1.6,0.9,1.6,1.6C46.3,138.1,45.9,139,44.7,139z
				 M44.7,136.7h-0.2c-0.5,0-0.8,0.3-0.8,0.8s0.3,0.8,0.8,0.8h0.2c0.5,0,0.8-0.3,0.8-0.8S45.3,136.7,44.7,136.7z"/>
			<path class="st3" d="M41.9,133.4v2.3h-0.8v-3.1h0.8l4.3,1.6v0.8L41.9,133.4z"/>
		</g>
	</g>
	<g>
		<rect x="50" y="143.5" class="st6" width="9.6" height="15.5"/>
		<g>
			<path class="st3" d="M56.1,154.2v2.2h-0.8l-3.2-2.2v-0.8h3.2v-0.5h0.8v0.5h1.3v0.8H56.1z M55.3,154.2h-1.8l1.8,1.3V154.2z"/>
			<path class="st3" d="M56.4,152.4v-1h1v1H56.4z"/>
			<path class="st3" d="M53.2,150.5l0.9,1H53l-0.9-1v-0.8h5.2v0.8H53.2z"/>
			<path class="st3" d="M52.9,147.1v2.3h-0.8v-3.1h0.8l4.4,1.6v0.8L52.9,147.1z"/>
		</g>
	</g>
	<g>
		<rect x="61" y="152.4" class="st6" width="9.5" height="15.4"/>
		<g>
			<path class="st3" d="M66.9,166.1L66.9,166.1v-0.8l0,0c0.5,0,0.8-0.4,0.8-0.8c0-0.5-0.2-0.8-0.7-0.8s-0.8,0.3-0.8,0.8v0.4h-0.8
				v-0.4c0-0.5-0.3-0.8-0.7-0.8c-0.5,0-0.8,0.3-0.8,0.8c0,0.4,0.3,0.8,0.8,0.8l0,0v0.8l0,0c-1.1,0-1.5-0.9-1.5-1.6
				c0-0.7,0.5-1.6,1.6-1.6c0.5,0,0.9,0.2,1.1,0.6c0.2-0.4,0.7-0.6,1.2-0.6c1.1,0,1.5,0.8,1.5,1.5C68.4,165.2,68,166.1,66.9,166.1z"
				/>
			<path class="st3" d="M67.3,162.4v-1h1v1H67.3z"/>
			<path class="st3" d="M66.9,160.9L66.9,160.9v-0.8l0,0c0.5,0,0.8-0.4,0.8-0.8c0-0.5-0.2-0.8-0.7-0.8s-0.8,0.3-0.8,0.8v0.4h-0.8
				v-0.4c0-0.5-0.3-0.8-0.7-0.8c-0.5,0-0.8,0.3-0.8,0.8c0,0.4,0.3,0.8,0.8,0.8l0,0v0.8l0,0c-1.1,0-1.5-0.9-1.5-1.6
				c0-0.7,0.5-1.6,1.6-1.6c0.5,0,0.9,0.2,1.1,0.6c0.2-0.4,0.7-0.6,1.2-0.6c1.1,0,1.5,0.8,1.5,1.5C68.4,160,68,160.8,66.9,160.9z"/>
			<path class="st3" d="M66.9,157.3L66.9,157.3v-0.8l0,0c0.5,0,0.8-0.3,0.8-0.8s-0.3-0.8-0.8-0.8h-0.6c0.1,0.2,0.3,0.5,0.3,0.8
				c0,0.6-0.4,1.5-1.6,1.5h-0.1c-1.2,0-1.6-0.9-1.6-1.6c0-0.7,0.4-1.6,1.6-1.6H67c1.2,0,1.6,0.9,1.6,1.6
				C68.4,156.4,68,157.3,66.9,157.3z M64.9,154.9h-0.2c-0.5,0-0.8,0.3-0.8,0.8s0.3,0.8,0.8,0.8h0.2c0.5,0,0.8-0.3,0.8-0.8
				C65.7,155.3,65.4,154.9,64.9,154.9z"/>
		</g>
	</g>
	<g>
		<rect x="71.9" y="152.4" class="st6" width="9.6" height="15.4"/>
		<g>
			<path class="st3" d="M77.8,166.1L77.8,166.1v-0.8l0,0c0.5,0,0.8-0.4,0.8-0.8c0-0.5-0.2-0.8-0.7-0.8s-0.8,0.3-0.8,0.8v0.4h-0.8
				v-0.4c0-0.5-0.3-0.8-0.7-0.8c-0.5,0-0.8,0.3-0.8,0.8c0,0.4,0.3,0.8,0.8,0.8l0,0v0.8l0,0c-1.1,0-1.6-0.9-1.6-1.6
				c0-0.7,0.5-1.6,1.6-1.6c0.5,0,0.9,0.2,1.1,0.6c0.2-0.4,0.7-0.6,1.2-0.6c1.1,0,1.5,0.8,1.5,1.5C79.4,165.1,79,166,77.8,166.1z"/>
			<path class="st3" d="M78.3,162.3v-1h1v1H78.3z"/>
			<path class="st3" d="M78.5,160.8l-1.9-1.8c-0.4-0.3-0.7-0.6-1.1-0.6c-0.5,0-0.8,0.3-0.8,0.8s0.3,0.8,0.8,0.8h0.1v0.8h-0.1
				c-1.2,0-1.6-0.9-1.6-1.6c0-0.7,0.4-1.6,1.5-1.6c0.6,0,1.1,0.3,1.6,0.8l1.4,1.3v-2.1h0.8v3.1h-0.7
				C78.5,160.7,78.5,160.8,78.5,160.8z"/>
			<path class="st3" d="M77.8,157.3L77.8,157.3v-0.8l0,0c0.5,0,0.8-0.4,0.8-0.8c0-0.5-0.2-0.8-0.7-0.8s-0.8,0.3-0.8,0.8v0.4h-0.8
				v-0.4c0-0.5-0.3-0.8-0.7-0.8c-0.5,0-0.8,0.3-0.8,0.8c0,0.4,0.3,0.8,0.8,0.8l0,0v0.8l0,0c-1.1,0-1.6-0.9-1.6-1.6
				c0-0.7,0.5-1.6,1.6-1.6c0.5,0,0.9,0.2,1.1,0.6c0.2-0.4,0.7-0.6,1.2-0.6c1.1,0,1.5,0.8,1.5,1.5C79.4,156.4,79,157.3,77.8,157.3z"
				/>
		</g>
	</g>
	<g>
		<rect x="82.9" y="158.2" class="st6" width="9.5" height="15.4"/>
		<g>
			<path class="st3" d="M89.5,171.9l-1.8-1.8c-0.3-0.3-0.7-0.6-1-0.6c-0.5,0-0.7,0.3-0.7,0.8s0.3,0.8,0.8,0.8h0.1v0.8h-0.1
				c-1.2,0-1.6-0.9-1.6-1.6c0-0.7,0.4-1.6,1.5-1.6c0.6,0,1.1,0.3,1.5,0.8l1.3,1.3v-2.1h0.8v3.1h-0.8
				C89.5,171.8,89.5,171.9,89.5,171.9z"/>
			<path class="st3" d="M89.3,168.2v-1h1v1H89.3z"/>
			<path class="st3" d="M88.8,166.6c-0.5,0-0.8-0.2-1.1-0.5c-0.3,0.3-0.6,0.5-1.1,0.5c-1.1,0-1.5-0.8-1.5-1.5s0.4-1.5,1.5-1.5
				c0.5,0,0.8,0.2,1.1,0.5c0.3-0.3,0.6-0.5,1.1-0.5c1.1,0,1.5,0.9,1.5,1.6C90.3,165.7,89.9,166.6,88.8,166.6z M86.6,164.3
				c-0.4,0-0.7,0.3-0.7,0.7s0.3,0.7,0.7,0.7c0.4,0,0.7-0.3,0.7-0.7C87.4,164.7,87.1,164.3,86.6,164.3z M88.8,164.3
				c-0.5,0-0.7,0.3-0.7,0.8c0,0.4,0.3,0.8,0.7,0.8c0.5,0,0.7-0.3,0.7-0.8C89.6,164.6,89.3,164.3,88.8,164.3z"/>
			<path class="st3" d="M88.8,163h-2c-1.2,0-1.6-0.9-1.6-1.6c0-0.7,0.4-1.5,1.5-1.6l0,0v0.8l0,0c-0.5,0-0.7,0.3-0.7,0.8
				s0.3,0.8,0.8,0.8h0.6c-0.1-0.2-0.3-0.5-0.3-0.8c0-0.6,0.4-1.5,1.6-1.5h0.1c1.2,0,1.6,0.9,1.6,1.6C90.3,162.1,89.9,163,88.8,163z
				 M88.8,160.7h-0.2c-0.5,0-0.8,0.3-0.8,0.8s0.3,0.8,0.8,0.8h0.2c0.5,0,0.8-0.3,0.8-0.8C89.6,161,89.3,160.7,88.8,160.7z"/>
		</g>
	</g>
	<g>
		<rect x="93.9" y="161.1" class="st6" width="9.5" height="15.4"/>
		<g>
			<path class="st3" d="M100.5,174.7l-1.8-1.8c-0.3-0.3-0.7-0.6-1-0.6c-0.5,0-0.7,0.3-0.7,0.8s0.3,0.8,0.8,0.8h0.1v0.8h-0.1
				c-1.2,0-1.6-0.9-1.6-1.6c0-0.7,0.4-1.6,1.5-1.6c0.6,0,1.1,0.3,1.5,0.8l1.3,1.3v-2.1h0.8v3.1h-0.8
				C100.5,174.6,100.5,174.7,100.5,174.7z"/>
			<path class="st3" d="M100.3,171v-1h1v1H100.3z"/>
			<path class="st3" d="M99.8,169.4L99.8,169.4v-0.8l0,0c0.5,0,0.7-0.4,0.7-0.8c0-0.5-0.3-0.8-0.7-0.8h-0.3c-0.5,0-0.8,0.3-0.8,0.8
				c0,0.3,0.2,0.6,0.4,0.7v0.8h-3v-2.9H97v2.1h1.2c-0.1-0.2-0.2-0.5-0.2-0.8c0-0.6,0.4-1.5,1.6-1.5h0.3c1,0,1.5,0.8,1.5,1.5
				C101.3,168.5,100.9,169.4,99.8,169.4z"/>
			<path class="st3" d="M99.8,166L99.8,166v-0.8l0,0c0.5,0,0.7-0.4,0.7-0.8c0-0.5-0.2-0.8-0.7-0.8s-0.7,0.3-0.7,0.8v0.4h-0.7v-0.4
				c0-0.5-0.3-0.8-0.7-0.8c-0.5,0-0.8,0.3-0.8,0.8c0,0.4,0.3,0.8,0.7,0.8l0,0v0.8l0,0c-1.1,0-1.5-0.9-1.5-1.6c0-0.7,0.5-1.6,1.5-1.6
				c0.4,0,0.9,0.2,1.1,0.6c0.2-0.4,0.7-0.6,1.1-0.6c1,0,1.5,0.8,1.5,1.5C101.3,165.1,100.9,166,99.8,166z"/>
		</g>
	</g>
	<g>
		<rect x="104.9" y="167" class="st6" width="9.5" height="15.4"/>
		<g>
			<path class="st3" d="M108.2,179.2l0.8,1h-1l-0.8-1v-0.8h5v0.8H108.2z"/>
			<path class="st3" d="M111.2,177.6v-1h1v1H111.2z"/>
			<path class="st3" d="M110.8,176c-0.5,0-0.8-0.2-1.1-0.5c-0.3,0.3-0.6,0.5-1.1,0.5c-1.1,0-1.5-0.8-1.5-1.5s0.4-1.5,1.5-1.5
				c0.5,0,0.8,0.2,1.1,0.5c0.3-0.3,0.6-0.5,1.1-0.5c1.1,0,1.5,0.9,1.5,1.6C112.3,175.1,111.9,176,110.8,176z M108.6,173.7
				c-0.4,0-0.7,0.3-0.7,0.7s0.3,0.7,0.7,0.7c0.4,0,0.7-0.3,0.7-0.7S109,173.7,108.6,173.7z M110.8,173.6c-0.5,0-0.7,0.3-0.7,0.8
				c0,0.4,0.3,0.8,0.7,0.8c0.5,0,0.7-0.3,0.7-0.8C111.5,174,111.2,173.6,110.8,173.6z"/>
			<path class="st3" d="M110.8,172.4L110.8,172.4v-0.8l0,0c0.5,0,0.7-0.3,0.7-0.8s-0.3-0.8-0.8-0.8h-0.6c0.1,0.2,0.3,0.5,0.3,0.8
				c0,0.6-0.4,1.5-1.6,1.5h-0.1c-1.2,0-1.6-0.9-1.6-1.6c0-0.7,0.4-1.6,1.6-1.6h2c1.2,0,1.6,0.9,1.6,1.6
				C112.3,171.5,111.9,172.4,110.8,172.4z M108.8,170h-0.2c-0.5,0-0.8,0.3-0.8,0.8s0.3,0.8,0.8,0.8h0.2c0.5,0,0.8-0.3,0.8-0.8
				C109.6,170.4,109.3,170,108.8,170z"/>
		</g>
	</g>
	<g>
		<rect x="115.9" y="166.9" class="st6" width="9.5" height="15.4"/>
		<g>
			<path class="st3" d="M119.2,179.1l0.8,1h-1l-0.8-1v-0.8h5v0.8H119.2z"/>
			<path class="st3" d="M122.2,177.5v-1h1v1H122.2z"/>
			<path class="st3" d="M121.7,175.9c-0.5,0-0.8-0.2-1.1-0.5c-0.3,0.3-0.6,0.5-1.1,0.5c-1.1,0-1.5-0.8-1.5-1.5s0.4-1.5,1.5-1.5
				c0.5,0,0.8,0.2,1.1,0.5c0.3-0.3,0.6-0.5,1.1-0.5c1.1,0,1.5,0.9,1.5,1.6C123.2,175,122.8,175.9,121.7,175.9z M119.5,173.6
				c-0.4,0-0.7,0.3-0.7,0.7s0.3,0.7,0.7,0.7c0.4,0,0.7-0.3,0.7-0.7C120.3,174,120,173.6,119.5,173.6z M121.7,173.6
				c-0.5,0-0.7,0.3-0.7,0.8c0,0.4,0.3,0.8,0.7,0.8c0.5,0,0.7-0.3,0.7-0.8C122.5,173.9,122.2,173.6,121.7,173.6z"/>
			<path class="st3" d="M121.7,172.3L121.7,172.3v-0.8l0,0c0.5,0,0.7-0.4,0.7-0.8c0-0.5-0.3-0.8-0.7-0.8h-0.3
				c-0.5,0-0.8,0.3-0.8,0.8c0,0.3,0.2,0.6,0.4,0.7v0.8h-3v-2.9h0.8v2.1h1.2c-0.1-0.2-0.2-0.5-0.2-0.8c0-0.6,0.4-1.5,1.6-1.5h0.3
				c1,0,1.5,0.8,1.5,1.5C123.2,171.4,122.9,172.3,121.7,172.3z"/>
		</g>
	</g>
	<g>
		<rect x="126.8" y="169.9" class="st6" width="9.5" height="15.4"/>
		<g>
			<path class="st3" d="M130.1,181.5l0.8,1h-1.1l-0.8-1v-0.8h5.1v0.8H130.1z"/>
			<path class="st3" d="M133.2,179.9v-1h1v1H133.2z"/>
			<path class="st3" d="M129.8,176.7v2.3H129v-3.1h0.8l4.3,1.6v0.8L129.8,176.7z"/>
			<path class="st3" d="M133.4,175.8l-1.8-1.8c-0.3-0.3-0.7-0.6-1.1-0.6c-0.5,0-0.7,0.3-0.7,0.8s0.3,0.8,0.8,0.8h0.1v0.8h-0.1
				c-1.2,0-1.6-0.9-1.6-1.6c0-0.7,0.4-1.6,1.5-1.6c0.6,0,1.1,0.3,1.6,0.8l1.3,1.3v-2.1h0.8v3.1h-0.8V175.8z"/>
		</g>
	</g>
	<g>
		<rect x="137.8" y="169.9" class="st6" width="9.5" height="15.4"/>
		<g>
			<path class="st3" d="M141.1,182l0.8,1h-1.1l-0.8-1v-0.8h5v0.8H141.1z"/>
			<path class="st3" d="M144.1,180.4v-1h1v1H144.1z"/>
			<path class="st3" d="M143.7,178.7L143.7,178.7v-0.8l0,0c0.5,0,0.7-0.4,0.7-0.8c0-0.5-0.3-0.8-0.7-0.8h-0.3
				c-0.5,0-0.8,0.3-0.8,0.8c0,0.3,0.2,0.6,0.4,0.7v0.8h-3v-2.9h0.8v2.1h1.2c-0.1-0.2-0.2-0.5-0.2-0.8c0-0.6,0.4-1.5,1.6-1.5h0.3
				c1,0,1.5,0.8,1.5,1.5C145.2,177.8,144.8,178.7,143.7,178.7z"/>
			<path class="st3" d="M144.3,175.3l-1.8-1.8c-0.3-0.3-0.7-0.6-1-0.6c-0.5,0-0.7,0.3-0.7,0.8s0.3,0.8,0.8,0.8h0.1v0.8h-0.1
				c-1.2,0-1.6-0.9-1.6-1.6c0-0.7,0.4-1.6,1.5-1.6c0.6,0,1.1,0.3,1.5,0.8l1.3,1.3v-2.1h0.8v3.1h-0.8V175.3z"/>
		</g>
	</g>
	<g>
		<rect x="148.8" y="169.9" class="st6" width="9.5" height="15.4"/>
		<g>
			<path class="st3" d="M152.1,181.7l0.8,1h-1.1l-0.8-1v-0.8h5.1v0.8H152.1z"/>
			<path class="st3" d="M155.1,180.1v-1h1v1H155.1z"/>
			<path class="st3" d="M154.9,176.6v2.2h-0.8l-3.1-2.2v-0.8h3.1v-0.5h0.8v0.5h1.2v0.8H154.9z M154.1,176.6h-1.7l1.7,1.3V176.6z"/>
			<path class="st3" d="M151.8,173.1v2.3H151v-3.1h0.8l4.3,1.6v0.8L151.8,173.1z"/>
		</g>
	</g>
	<g>
		<rect x="159.7" y="172.8" class="st6" width="9.5" height="15.4"/>
		<g>
			<path class="st3" d="M163,184.9l0.8,1h-1.1l-0.8-1v-0.8h5.1v0.8H163z"/>
			<path class="st3" d="M166.1,183.3v-1h1v1H166.1z"/>
			<path class="st3" d="M165.6,181.8L165.6,181.8V181l0,0c0.5,0,0.8-0.4,0.8-0.8c0-0.5-0.2-0.8-0.7-0.8s-0.8,0.3-0.8,0.8v0.4h-0.8
				v-0.4c0-0.5-0.3-0.8-0.7-0.8c-0.5,0-0.8,0.3-0.8,0.8c0,0.4,0.3,0.8,0.8,0.8l0,0v0.8l0,0c-1.1,0-1.5-0.9-1.5-1.6
				c0-0.7,0.5-1.6,1.5-1.6c0.5,0,0.9,0.2,1.1,0.6c0.2-0.4,0.7-0.6,1.1-0.6c1,0,1.5,0.8,1.5,1.5C167.1,180.9,166.7,181.8,165.6,181.8
				z"/>
			<path class="st3" d="M165.6,178.2L165.6,178.2v-0.8l0,0c0.5,0,0.8-0.4,0.8-0.8c0-0.5-0.3-0.8-0.7-0.8h-0.3
				c-0.5,0-0.8,0.3-0.8,0.8c0,0.3,0.2,0.6,0.4,0.7v0.8h-3v-2.9h0.8v2.1h1.3c-0.1-0.2-0.2-0.5-0.2-0.8c0-0.6,0.4-1.5,1.6-1.5h0.3
				c1,0,1.5,0.8,1.5,1.5C167.1,177.3,166.7,178.1,165.6,178.2z"/>
		</g>
	</g>
	<g>
		<rect x="170.6" y="172.6" class="st6" width="9.5" height="15.4"/>
		<g>
			<path class="st3" d="M174,184.8l0.8,1h-1.1l-0.8-1V184h5v0.8H174z"/>
			<path class="st3" d="M177,183.2v-1h1v1H177z"/>
			<path class="st3" d="M177.2,181.7l-1.8-1.8c-0.3-0.3-0.7-0.6-1-0.6c-0.5,0-0.7,0.3-0.7,0.8s0.3,0.8,0.8,0.8h0.1v0.8h-0.1
				c-1.2,0-1.6-0.9-1.6-1.6c0-0.7,0.4-1.6,1.5-1.6c0.6,0,1.1,0.3,1.5,0.8l1.3,1.3v-2.1h0.8v3.1h-0.8V181.7z"/>
			<path class="st3" d="M176.5,178.1h-2c-1.2,0-1.6-0.9-1.6-1.6c0-0.7,0.4-1.5,1.5-1.6l0,0v0.8l0,0c-0.5,0-0.7,0.3-0.7,0.8
				s0.3,0.8,0.8,0.8h0.6c-0.1-0.2-0.3-0.5-0.3-0.8c0-0.6,0.4-1.5,1.6-1.5h0.1c1.2,0,1.6,0.9,1.6,1.6
				C178.1,177.2,177.7,178.1,176.5,178.1z M176.5,175.7h-0.2c-0.5,0-0.8,0.3-0.8,0.8s0.3,0.8,0.8,0.8h0.2c0.5,0,0.8-0.3,0.8-0.8
				S177,175.7,176.5,175.7z"/>
		</g>
	</g>
	<g>
		<rect x="181.7" y="181.5" class="st6" width="9.5" height="15.4"/>
		<g>
			<path class="st3" d="M187.4,195.1h-2c-1.2,0-1.6-0.9-1.6-1.6c0-0.7,0.4-1.6,1.6-1.6h2c1.2,0,1.6,0.9,1.6,1.6
				C189,194.2,188.6,195.1,187.4,195.1z M187.4,192.8h-2.1c-0.5,0-0.8,0.3-0.8,0.8s0.3,0.8,0.8,0.8h2.1c0.5,0,0.8-0.3,0.8-0.8
				S188,192.8,187.4,192.8z"/>
			<path class="st3" d="M188,191.3v-1h1v1H188z"/>
			<path class="st3" d="M187.5,189.8L187.5,189.8V189l0,0c0.5,0,0.7-0.4,0.7-0.8c0-0.5-0.2-0.8-0.7-0.8s-0.7,0.3-0.7,0.8v0.4H186
				v-0.4c0-0.5-0.3-0.8-0.7-0.8c-0.5,0-0.8,0.3-0.8,0.8c0,0.4,0.3,0.8,0.7,0.8l0,0v0.8l0,0c-1.1,0-1.5-0.9-1.5-1.6
				c0-0.7,0.5-1.6,1.5-1.6c0.4,0,0.9,0.2,1.1,0.6c0.2-0.4,0.7-0.6,1.1-0.6c1,0,1.5,0.8,1.5,1.5C189,188.9,188.6,189.8,187.5,189.8z"
				/>
			<path class="st3" d="M187.7,184.3v2.2h-0.8l-3.1-2.2v-0.8h3.1V183h0.8v0.5h1.2v0.8H187.7z M186.9,184.3h-1.7l1.7,1.3V184.3z"/>
		</g>
	</g>
	<g>
		<rect x="192.6" y="183.9" class="st6" width="9.5" height="15.4"/>
		<g>
			<path class="st3" d="M198.4,197.6h-2c-1.2,0-1.6-0.9-1.6-1.6c0-0.7,0.4-1.6,1.6-1.6h2c1.2,0,1.6,0.9,1.6,1.6
				C200,196.8,199.6,197.6,198.4,197.6z M198.4,195.3h-2.1c-0.5,0-0.8,0.3-0.8,0.8s0.3,0.8,0.8,0.8h2.1c0.5,0,0.8-0.3,0.8-0.8
				S199,195.3,198.4,195.3z"/>
			<path class="st3" d="M199,193.9v-1h1v1H199z"/>
			<path class="st3" d="M198.4,192.2h-2c-1.2,0-1.6-0.9-1.6-1.6c0-0.7,0.4-1.6,1.6-1.6h2c1.2,0,1.6,0.9,1.6,1.6
				S199.6,192.2,198.4,192.2z M198.4,189.9h-2.1c-0.5,0-0.8,0.3-0.8,0.8s0.3,0.8,0.8,0.8h2.1c0.5,0,0.8-0.3,0.8-0.8
				S199,189.9,198.4,189.9z"/>
			<path class="st3" d="M198.5,188.6c-0.5,0-0.9-0.2-1.1-0.5c-0.3,0.3-0.6,0.5-1.1,0.5c-1.1,0-1.5-0.8-1.5-1.5s0.4-1.5,1.5-1.5
				c0.5,0,0.8,0.2,1.1,0.5c0.3-0.3,0.6-0.5,1.1-0.5c1.1,0,1.5,0.9,1.5,1.6C200,187.7,199.6,188.6,198.5,188.6z M196.3,186.3
				c-0.4,0-0.7,0.3-0.7,0.7s0.3,0.7,0.7,0.7s0.7-0.3,0.7-0.7S196.7,186.3,196.3,186.3z M198.5,186.2c-0.5,0-0.7,0.3-0.7,0.8
				c0,0.4,0.3,0.8,0.7,0.8c0.5,0,0.7-0.3,0.7-0.8C199.2,186.6,199,186.2,198.5,186.2z"/>
		</g>
	</g>
</g>
<line class="st7" x1="17.1" y1="203.9" x2="256.9" y2="203.9"/>
</svg>
