<?xml version="1.0" encoding="utf-8"?>
<!-- Generator: Adobe Illustrator 19.2.0, SVG Export Plug-In . SVG Version: 6.00 Build 0)  -->
<svg version="1.1" id="Layer_1" xmlns="http://www.w3.org/2000/svg" xmlns:xlink="http://www.w3.org/1999/xlink" x="0px" y="0px"
	 viewBox="0 0 95.3 104.3" style="enable-background:new 0 0 95.3 104.3;" xml:space="preserve">
<style type="text/css">
	.st0{fill:#244C66;}
	.st1{fill:#5AA9D3;}
	.st2{fill:#FFFFFF;}
</style>
<circle class="st0" cx="47.7" cy="61.7" r="18.3"/>
<title>Index</title>
<path class="st0" d="M80.1,78.1c-2.4,0-4.6,1-6.1,2.9l-11.8-8.7c2.3-3,3.6-6.8,3.6-10.8c0-1.7-0.3-3.4-0.7-5h5.3
	c0.7,4.2,4.7,7,8.8,6.3s7-4.7,6.3-8.8c-0.7-4.2-4.7-7-8.8-6.3c-3.2,0.5-5.7,3.1-6.3,6.3h-6.2c-2.9-6.2-9.1-10.5-16.4-10.5
	S34.3,47.8,31.4,54h-8.3c-0.7-4.2-4.7-7-8.8-6.3c-4.2,0.7-7,4.7-6.3,8.8c0.7,4.2,4.7,7,8.8,6.3c3.2-0.5,5.7-3.1,6.3-6.3h7.3
	c-0.5,1.7-0.8,3.4-0.8,5.1c0,0.6,0.5,4.3,0.5,4.3c0.5,2,1.4,4,2.6,5.7c0,0,0,0.1,0.1,0.1c0.2,0.2,0.3,0.5,0.5,0.7L21.5,81
	c-2.7-3.3-7.5-3.8-10.7-1.1C7.5,82.6,7,87.4,9.7,90.6s7.5,3.8,10.7,1.1c1.8-1.5,2.8-3.6,2.8-5.9c0-0.9-0.2-1.7-0.5-2.5l12.2-9
	c0.4,0.4,0.8,0.8,1.3,1.1c0.2,0.1,0.4,0.3,0.6,0.4c0.1,0.1,0.3,0.2,0.4,0.3h0.1c3,2.1,6.6,3.4,10.5,3.4c5,0,9.5-2,12.7-5.3l12.2,9
	c-0.3,0.8-0.4,1.7-0.5,2.5c0,4.3,3.4,7.7,7.7,7.8s7.7-3.4,7.8-7.7C87.8,81.6,84.3,78.1,80.1,78.1z M78.1,50.1L78.1,50.1
	c2.8,0,5.1,2.3,5,5.2c0,2.8-2.3,5.1-5.2,5c-2.8,0-5-2.3-5-5.1C72.9,52.3,75.2,50,78.1,50.1z M15.5,60.2L15.5,60.2
	c-2.8,0-5.1-2.3-5-5.2s2.3-5.1,5.2-5c2.8,0,5,2.3,5,5.1C20.7,58,18.4,60.3,15.5,60.2z M15.5,90.9L15.5,90.9L15.5,90.9
	c-2.8,0-5.1-2.4-5-5.2s2.3-5.1,5.2-5c2.8,0,5,2.3,5,5.1S18.4,90.9,15.5,90.9z M79.9,90.9c-2.8,0-5-2.3-5-5.1c0-2.8,2.3-5.1,5.2-5.1
	l0,0c2.8,0,5.1,2.3,5,5.2C85.1,88.6,82.7,90.9,79.9,90.9z"/>
<g id="Shape-2">
	<path class="st1" d="M17.6,31.5c1.6,0,3.1-0.5,4.4-1.4c0.2-0.2,0.4-0.3,0.6-0.5l3.8,2.9l1.4-1.9l-3.8-3c0.5-1,0.8-2.1,0.8-3.3
		c0-4-3.1-7.2-7.1-7.3s-7.2,3.1-7.3,7.1c0,4,3.1,7.2,7.1,7.3C17.6,31.5,17.6,31.5,17.6,31.5z M17.6,19.6c2.6,0,4.8,2.1,4.8,4.7l0,0
		c0,1.5-0.7,2.9-1.9,3.8c-2.1,1.6-5.1,1.2-6.7-0.9s-1.2-5.1,0.9-6.7C15.5,20,16.6,19.6,17.6,19.6z"/>
</g>
<path class="st0" d="M68.3,15.4c-9.3,0-17,7.6-17,16.9v13.3l0.2,0c1.3,0.2,3.6,1.2,5.6,2c1,0.4,1.9,0.8,2.6,1.1l0.3,0.1V32.7
	c0.2-4.5,4-8.1,8.4-7.9c4.3,0.2,7.7,3.6,7.9,7.9V39c0,0.7,0.3,1.3,0.8,1.7l4.3,2.8c0.9,0.8,2.4,0.7,3.2-0.2c0.3-0.3,0.5-0.8,0.5-1.5
	v-9.5C85.1,23,77.5,15.4,68.3,15.4z M53.8,32.3c0-8,6.5-14.4,14.5-14.4s14.5,6.5,14.5,14.4l-0.1,9L79,38.9v-6.2
	c-0.2-5.7-5-10.3-10.8-10.3c-0.1,0-0.1,0-0.2,0c-5.6,0.2-10.1,4.7-10.3,10.4v14.1c-1.3-0.6-2.5-1-3.8-1.3V32.3z"/>
<circle class="st2" cx="47.7" cy="61.7" r="15.8"/>
<g>
	<path class="st1" d="M44.6,63.6v7.1H51v-7.5c1.4-1.2,2.7-3,2.6-4.8c-0.2-3.3-3-5.9-6.3-5.7s-5.9,3-5.7,6.3
		C41.9,60.9,43,62.6,44.6,63.6z"/>
	<path class="st2" d="M47.8,54.7c2.1,0,3.8,1.7,3.8,3.8c0,1.4-0.7,2.6-1.9,3.3l-0.6,0.4v6.5h-2.6v-6.5l-0.6-0.4
		c-1.2-0.7-1.9-1.9-1.9-3.3C44,56.4,45.7,54.7,47.8,54.7z"/>
</g>
</svg>
