<?xml version="1.0" encoding="utf-8"?>
<!-- Generator: Adobe Illustrator 19.2.0, SVG Export Plug-In . SVG Version: 6.00 Build 0)  -->
<svg version="1.1" id="Layer_1" xmlns="http://www.w3.org/2000/svg" xmlns:xlink="http://www.w3.org/1999/xlink" x="0px" y="0px"
	 viewBox="0 0 263 246" style="enable-background:new 0 0 263 246;" xml:space="preserve">
<style type="text/css">
	.st0{fill:#D0DACB;}
	.st1{fill:#ED5A32;}
	.st2{fill:#797979;}
	.st3{fill:none;stroke:#BE1E2D;stroke-width:0.25;stroke-miterlimit:10;}
	.st4{fill:#DED7CE;}
	.st5{fill:#FFFFFF;}
	.st6{fill:none;stroke:#E0D7CF;stroke-miterlimit:10;}
	.st7{fill:#231F20;}
	.st8{fill:none;stroke:#D8D8D7;stroke-linejoin:round;stroke-miterlimit:10;}
	.st9{fill:#8BC248;}
	.st10{fill:#244D66;}
	.st11{fill:none;stroke:#FFFFFF;stroke-width:0.5;stroke-miterlimit:10;}
</style>
<g>
	<rect x="36.1" y="103.2" class="st0" width="9" height="100.9"/>
</g>
<g>
	<rect x="25.1" y="83.2" class="st0" width="9" height="120.8"/>
</g>
<g>
	<rect x="14.1" y="27.4" class="st0" width="9" height="176.7"/>
</g>
<g>
	<rect x="69" y="158" class="st0" width="9" height="46.1"/>
</g>
<g>
	<rect x="58.1" y="145.5" class="st0" width="9" height="58.6"/>
</g>
<g>
	<rect x="47.1" y="128.3" class="st0" width="9" height="75.8"/>
</g>
<g>
	<rect x="102" y="170.4" class="st0" width="9" height="33.7"/>
</g>
<g>
	<rect x="91" y="162" class="st0" width="9" height="42"/>
</g>
<g>
	<rect x="80" y="158" class="st0" width="9" height="46.1"/>
</g>
<g>
	<rect x="135" y="192.9" class="st0" width="9" height="11.2"/>
</g>
<g>
	<rect x="124" y="188.5" class="st0" width="9" height="15.5"/>
</g>
<g>
	<rect x="113" y="184.4" class="st0" width="9" height="19.7"/>
</g>
<g>
	<rect x="168" y="195.7" class="st0" width="9" height="8.4"/>
</g>
<g>
	<rect x="157" y="194.2" class="st0" width="9" height="9.9"/>
</g>
<g>
	<rect x="146" y="192.9" class="st0" width="9" height="11.2"/>
</g>
<g>
	<rect x="190" y="202.7" class="st0" width="9" height="1.4"/>
</g>
<g>
	<rect x="179" y="199.2" class="st0" width="9" height="4.9"/>
</g>
<g>
	<rect x="244.9" y="204.1" class="st1" width="9" height="9.4"/>
</g>
<g>
	<path class="st5" d="M9.4,219.9l-1.2,1.4l0.6,1.1l-0.5,0.6l-2.7-4.4l0.5-0.6l4.8,1.9l-0.5,0.6L9.4,219.9z M8.7,219.6l-1.9-0.7
		l1.1,1.8L8.7,219.6z"/>
	<path class="st5" d="M12.1,216.3c0.9,0.7,0.6,1.6,0.2,2c-0.2,0.3-0.6,0.4-0.8,0.4l1.3,1l-0.5,0.6l-3.8-3.2l0.5-0.6l0.2,0.2
		c-0.1-0.2,0-0.6,0.2-0.9c0.4-0.5,1.2-0.8,2.1-0.1L12.1,216.3z M11.1,216.3c-0.4-0.4-0.8-0.3-1.1,0.1c-0.3,0.3-0.3,0.7,0.1,1.1
		l0.6,0.5c0.4,0.4,0.8,0.3,1.1-0.1c0.3-0.3,0.3-0.7-0.1-1.1L11.1,216.3z"/>
	<path class="st5" d="M14.5,213.5c0.9,0.7,0.6,1.6,0.2,2c-0.2,0.3-0.6,0.4-0.8,0.4l1.2,1l-0.5,0.6l-3.8-3.2l0.5-0.6l0.2,0.2
		c-0.1-0.2,0-0.6,0.2-0.9c0.4-0.5,1.2-0.8,2.1-0.1L14.5,213.5z M13.4,213.6c-0.4-0.4-0.8-0.3-1.1,0.1c-0.3,0.3-0.3,0.7,0.1,1.1
		l0.6,0.5c0.4,0.4,0.8,0.3,1.1-0.1c0.3-0.3,0.3-0.7-0.1-1.1L13.4,213.6z"/>
	<path class="st5" d="M15.6,212.7c0.2,0.2,0.3,0.2,0.5,0l0.1-0.1l0.5,0.5l-0.2,0.2c-0.4,0.5-0.8,0.5-1.2,0.1l-3.1-2.6l0.5-0.6
		L15.6,212.7z"/>
	<path class="st5" d="M17.6,210.2l0.5-0.6c0.7,0.7,0.4,1.5,0,1.9c-0.4,0.5-1.2,0.9-2.1,0.2l-0.6-0.5c-0.9-0.8-0.6-1.6-0.2-2.1
		c0.4-0.5,1.2-0.9,2.1-0.2l0.5,0.4l-1.4,1.7l0.1,0.1c0.4,0.4,0.8,0.3,1.1-0.1C17.7,210.8,17.8,210.5,17.6,210.2z M15.8,210.7
		L15.8,210.7l1-1.2l0,0c-0.4-0.3-0.8-0.3-1.1,0.1C15.4,209.9,15.4,210.3,15.8,210.7z"/>
</g>
<g>
	<path class="st5" d="M50.4,219.3l1.2-1.4c0.6-0.7,1.4-0.8,2-0.2c0.3,0.3,0.5,0.6,0.5,1c0.5-0.2,0.9,0,1.2,0.2
		c0.7,0.6,0.8,1.3,0.1,2l-1.3,1.5L50.4,219.3z M51.4,219.2l1,0.8l0.7-0.9c0.3-0.3,0.3-0.7,0-1c-0.3-0.3-0.7-0.2-1,0.1L51.4,219.2z
		 M53,220.6l1,0.9l0.8-1c0.3-0.3,0.3-0.7-0.1-1c-0.3-0.3-0.7-0.2-1,0.1L53,220.6z"/>
	<path class="st5" d="M55.2,217.3l-0.5,0.6c-0.7-0.7-0.4-1.5,0-1.9c0.4-0.5,1.2-0.9,2.1-0.2l1.7,1.4l-0.5,0.6l-0.3-0.2
		c0.1,0.4-0.1,0.7-0.4,1.1c-0.4,0.5-1,0.7-1.6,0.2c-0.3-0.3-0.6-0.7-0.3-1.3c0.2-0.4,0.4-0.8,0.8-1.3l0,0c-0.4-0.3-0.7-0.2-1,0.1
		C55.1,216.7,55,217,55.2,217.3z M57,216.8l-0.2-0.1c-0.4,0.5-0.7,0.9-0.7,1.2c0,0.1,0,0.2,0.1,0.3c0.2,0.2,0.5,0.1,0.7-0.2
		C57.3,217.7,57.5,217.3,57,216.8z"/>
	<path class="st5" d="M56.3,213.4l-0.5,0.6l-0.6-0.5l0.5-0.6L56.3,213.4z M59.5,216.1l-0.5,0.6l-2.8-2.3l0.5-0.6L59.5,216.1z"/>
	<path class="st5" d="M58.2,214.1c-0.9-0.7-0.6-1.6-0.2-2c0.2-0.3,0.6-0.4,0.8-0.4l-1.2-1l0.5-0.6l3.8,3.2l-0.5,0.6l-0.3-0.2
		c0.1,0.2,0,0.6-0.2,0.9c-0.4,0.5-1.2,0.8-2.1,0.1L58.2,214.1z M59.3,214.1c0.4,0.4,0.8,0.3,1.1,0c0.3-0.3,0.3-0.8-0.1-1.1l-0.6-0.5
		c-0.4-0.4-0.8-0.3-1.1,0.1c-0.3,0.3-0.3,0.7,0.1,1.1L59.3,214.1z"/>
	<path class="st5" d="M61.7,211.2c0.4,0.4,0.8,0.3,1.1-0.1s0.3-0.7-0.1-1.1l-1.7-1.4l0.5-0.6l2.8,2.3l-0.5,0.6l-0.3-0.2
		c0.1,0.2,0,0.6-0.2,0.9c-0.4,0.5-1.2,0.8-2,0.1l-1.7-1.4l0.5-0.6L61.7,211.2z"/>
</g>
<g>
	<path class="st5" d="M55.4,229.3l1.4-1.6l0.6,0.5l-1.4,1.6l1.6,1.4l-0.5,0.6l-3.8-3.2l1.8-2.2l0.6,0.5l-1.4,1.6L55.4,229.3z"/>
	<path class="st5" d="M57.8,226.9l-0.5,0.6c-0.7-0.7-0.4-1.5,0-1.9c0.4-0.5,1.2-0.9,2.1-0.2l1.7,1.4l-0.5,0.6l-0.3-0.2
		c0.1,0.4-0.1,0.7-0.4,1.1c-0.4,0.5-1,0.7-1.6,0.2c-0.3-0.3-0.6-0.7-0.3-1.3c0.2-0.4,0.4-0.8,0.8-1.3l0,0c-0.4-0.3-0.8-0.2-1,0.1
		C57.6,226.3,57.6,226.7,57.8,226.9z M59.5,226.5l-0.2-0.1c-0.4,0.5-0.7,0.9-0.7,1.2c0,0.1,0,0.2,0.1,0.3c0.2,0.2,0.5,0.1,0.7-0.2
		C59.8,227.4,60.1,226.9,59.5,226.5z"/>
	<path class="st5" d="M62.5,225.3c-0.4,0.5-1.2,0.9-2.1,0.2l-0.6-0.5c-0.9-0.8-0.6-1.6-0.2-2.1c0.4-0.4,1.1-0.9,1.9-0.3l-0.5,0.6
		c-0.4-0.2-0.7-0.1-0.9,0.2c-0.3,0.3-0.3,0.7,0.1,1.1l0.6,0.5c0.4,0.4,0.8,0.3,1.1-0.1c0.2-0.3,0.3-0.6,0-1l0.5-0.6
		C63.2,224,62.9,224.8,62.5,225.3z"/>
	<path class="st5" d="M64.3,221.3l0.5-0.6c0.7,0.7,0.4,1.5,0,1.9c-0.4,0.5-1.2,0.9-2.1,0.2l-0.6-0.5c-0.9-0.8-0.6-1.6-0.2-2.1
		c0.4-0.5,1.2-0.9,2.1-0.2l0.5,0.4l-1.4,1.7l0.1,0.1c0.4,0.4,0.8,0.3,1.1-0.1C64.5,221.9,64.5,221.6,64.3,221.3z M62.5,221.7
		L62.5,221.7l1-1.2l0,0c-0.4-0.3-0.8-0.3-1.1,0.1C62.1,221,62.1,221.4,62.5,221.7z"/>
	<path class="st5" d="M66.9,217.7c0.9,0.7,0.6,1.6,0.2,2c-0.2,0.3-0.6,0.4-0.8,0.4l0.3,0.2l-0.5,0.6l-3.8-3.2l0.5-0.6l1.2,1
		c-0.1-0.2,0-0.6,0.2-0.9c0.4-0.5,1.2-0.8,2.1-0.1L66.9,217.7z M65.8,217.8c-0.4-0.4-0.8-0.3-1.1,0.1c-0.3,0.3-0.3,0.7,0.1,1.1
		l0.6,0.5c0.4,0.4,0.8,0.3,1.1-0.1c0.3-0.3,0.3-0.7-0.1-1.1L65.8,217.8z"/>
	<path class="st5" d="M66.7,216.8c-0.9-0.8-0.6-1.6-0.2-2.1c0.4-0.5,1.2-0.9,2.1-0.2l0.6,0.5c0.9,0.8,0.6,1.6,0.2,2.1
		c-0.4,0.5-1.2,0.9-2.1,0.2L66.7,216.8z M68.1,215.1c-0.4-0.4-0.8-0.3-1.1,0.1c-0.3,0.3-0.3,0.7,0.1,1.1l0.6,0.5
		c0.4,0.4,0.8,0.3,1.1-0.1c0.3-0.3,0.3-0.7-0.1-1.1L68.1,215.1z"/>
	<path class="st5" d="M69,214.1c-0.9-0.8-0.6-1.6-0.2-2.1c0.4-0.5,1.2-0.9,2.1-0.2l0.6,0.5c0.9,0.8,0.6,1.6,0.2,2.1
		c-0.4,0.5-1.2,0.9-2.1,0.2L69,214.1z M70.4,212.4c-0.4-0.4-0.8-0.3-1.1,0.1c-0.3,0.3-0.3,0.7,0.1,1.1L70,214
		c0.4,0.4,0.8,0.3,1.1-0.1c0.3-0.3,0.3-0.7-0.1-1.1L70.4,212.4z"/>
	<path class="st5" d="M71.8,210.8l-0.3-2l0.6-0.7l0.3,1.9l2.6,0.3l-0.5,0.6l-2-0.2l0.1,0.7l0.9,0.8l-0.5,0.6l-3.8-3.2l0.5-0.6
		L71.8,210.8z"/>
</g>
<g>
	<path class="st5" d="M78.1,229.9l0.5-0.6c0.5,0.3,1,0.2,1.3-0.3c0.3-0.4,0.3-0.8,0-1c-0.3-0.2-0.6-0.2-1,0.1l-0.7,0.5
		c-0.5,0.4-1.2,0.3-1.7-0.1c-0.7-0.6-0.6-1.4-0.1-2.1c0.6-0.7,1.4-0.8,2.1-0.4l-0.5,0.6c-0.4-0.2-0.8-0.1-1.1,0.3
		c-0.4,0.4-0.3,0.8,0,1c0.3,0.2,0.6,0.2,0.8,0l0.7-0.5c0.6-0.5,1.2-0.5,1.9,0s0.7,1.3,0,2.1C79.7,230.4,78.8,230.5,78.1,229.9z"/>
	<path class="st5" d="M80.3,225.8l-0.5,0.6c-0.7-0.7-0.4-1.5,0-1.9c0.4-0.5,1.2-0.9,2.1-0.2l1.7,1.4l-0.5,0.6l-0.3-0.2
		c0.1,0.4-0.1,0.7-0.4,1.1c-0.4,0.5-1,0.7-1.6,0.2c-0.3-0.3-0.6-0.7-0.3-1.3c0.2-0.4,0.4-0.8,0.8-1.3l0,0c-0.4-0.3-0.7-0.2-1,0.1
		C80.1,225.2,80.1,225.5,80.3,225.8z M82,225.4l-0.2-0.1c-0.4,0.5-0.7,0.9-0.7,1.2c0,0.1,0,0.2,0.1,0.3c0.2,0.2,0.5,0.1,0.7-0.2
		C82.3,226.3,82.5,225.8,82,225.4z"/>
	<path class="st5" d="M85.9,222.9l-0.5,0.6l-1.7-1.4c-0.4-0.4-0.8-0.3-1.1,0c-0.3,0.3-0.3,0.7,0.1,1.1l1.7,1.4l-0.5,0.6l-2.8-2.3
		l0.5-0.6l0.2,0.2c-0.1-0.2,0-0.6,0.2-0.9c0.2-0.3,0.6-0.5,1-0.5c-0.1-0.4,0.1-0.9,0.3-1.2c0.4-0.5,1.2-0.9,2.1-0.1l1.7,1.4
		l-0.5,0.6l-1.7-1.4c-0.4-0.4-0.8-0.3-1.1,0c-0.3,0.3-0.3,0.7,0.1,1.1L85.9,222.9z"/>
	<path class="st5" d="M86.8,220.2l0.5-0.6c0.3,0.2,0.7,0,0.9-0.3c0.2-0.2,0.3-0.5,0.1-0.7c-0.2-0.2-0.4,0-0.6,0.1l-0.6,0.4
		c-0.4,0.3-0.9,0.4-1.4,0c-0.5-0.5-0.5-1.1,0-1.7c0.5-0.6,1.1-0.8,1.8-0.3l-0.5,0.6c-0.3-0.2-0.6,0-0.8,0.2c-0.1,0.2-0.3,0.4,0,0.6
		c0.2,0.1,0.4,0,0.5-0.1l0.5-0.4c0.5-0.4,1-0.5,1.5,0c0.5,0.5,0.5,1.1,0,1.7C88.1,220.4,87.4,220.7,86.8,220.2z"/>
	<path class="st5" d="M89.2,216.9c0.4,0.4,0.8,0.3,1.1-0.1s0.3-0.7-0.1-1.1l-1.7-1.4l0.5-0.6l2.8,2.3l-0.5,0.6l-0.3-0.2
		c0.1,0.2,0,0.6-0.2,0.9c-0.4,0.5-1.2,0.8-2,0.1L87,216l0.5-0.6L89.2,216.9z"/>
	<path class="st5" d="M92.7,214.9l-0.5,0.6l-2.8-2.3l0.5-0.6l0.2,0.2c-0.1-0.2,0-0.6,0.2-0.9c0.4-0.5,1.2-0.8,2.1-0.1l1.7,1.4
		l-0.5,0.6l-1.7-1.4c-0.4-0.4-0.8-0.3-1.1,0.1c-0.3,0.3-0.3,0.7,0.1,1.1L92.7,214.9z"/>
	<path class="st5" d="M95.8,210.9l-0.3-0.3c0.1,0.2,0,0.6-0.2,0.9c-0.4,0.5-1.2,0.8-2.1,0.1l-0.4-0.4c-0.9-0.7-0.6-1.6-0.2-2
		c0.2-0.3,0.6-0.4,0.8-0.4l-0.2-0.2l0.5-0.6l2.7,2.2c0.9,0.8,0.6,1.6,0.2,2.1c-0.4,0.4-1.1,0.9-1.9,0.3l0.5-0.6
		c0.4,0.2,0.7,0.1,0.9-0.2C96.2,211.7,96.2,211.3,95.8,210.9z M93.7,211.1c0.4,0.4,0.8,0.3,1.1-0.1c0.3-0.3,0.3-0.7-0.1-1.1
		l-0.4-0.4c-0.4-0.4-0.8-0.3-1.1,0.1s-0.3,0.7,0.1,1.1L93.7,211.1z"/>
</g>
<g>
	<path class="st5" d="M101.8,223.7l3.2,2.7l-0.5,0.6l-3.2-2.7l-0.9,1l-0.6-0.5l2.2-2.6l0.6,0.5L101.8,223.7z"/>
	<path class="st5" d="M106.3,223l0.5-0.6c0.7,0.7,0.4,1.5,0,1.9c-0.4,0.5-1.2,0.9-2.1,0.2l-0.6-0.5c-0.9-0.8-0.6-1.6-0.2-2.1
		c0.4-0.5,1.2-0.9,2.1-0.2l0.5,0.4l-1.4,1.7l0.1,0.1c0.4,0.4,0.8,0.3,1.1-0.1C106.5,223.6,106.5,223.3,106.3,223z M104.6,223.5
		L104.6,223.5l1-1.2l0,0c-0.4-0.3-0.8-0.3-1.1,0.1C104.2,222.7,104.2,223.1,104.6,223.5z"/>
	<path class="st5" d="M108.6,222.1l-0.5,0.6l-2.8-2.3l0.5-0.6l0.2,0.2c-0.1-0.2,0-0.6,0.2-0.9c0.4-0.5,1.2-0.8,2.1-0.1l1.7,1.4
		l-0.5,0.6l-1.7-1.4c-0.4-0.4-0.8-0.3-1.1,0.1s-0.3,0.7,0.1,1.1L108.6,222.1z"/>
	<path class="st5" d="M111.4,218.8c-0.4,0.5-1.2,0.9-2.1,0.2l-0.6-0.5c-0.9-0.8-0.6-1.6-0.2-2.1c0.4-0.4,1.1-0.9,1.9-0.3l-0.5,0.6
		c-0.3-0.2-0.7-0.1-0.9,0.2c-0.3,0.3-0.3,0.7,0.1,1.1l0.6,0.5c0.4,0.4,0.8,0.3,1.1-0.1c0.2-0.3,0.3-0.6,0-1l0.5-0.6
		C112.1,217.6,111.8,218.4,111.4,218.8z"/>
	<path class="st5" d="M113.2,214.8l0.5-0.6c0.7,0.7,0.4,1.5,0,1.9c-0.4,0.5-1.2,0.9-2.1,0.2l-0.6-0.5c-0.9-0.8-0.6-1.6-0.2-2.1
		c0.4-0.5,1.2-0.9,2.1-0.2l0.5,0.4l-1.4,1.7l0.1,0.1c0.4,0.4,0.8,0.3,1.1-0.1C113.4,215.4,113.4,215.1,113.2,214.8z M111.4,215.3
		L111.4,215.3l1-1.2l0,0c-0.4-0.3-0.8-0.3-1.1,0.1C111,214.5,111,214.9,111.4,215.3z"/>
	<path class="st5" d="M115.5,213.9l-0.5,0.6l-2.8-2.3l0.5-0.6l0.2,0.2c-0.1-0.2,0-0.6,0.2-0.9c0.4-0.5,1.2-0.8,2.1-0.1l1.7,1.4
		l-0.5,0.6l-1.7-1.4c-0.4-0.4-0.8-0.3-1.1,0.1s-0.3,0.7,0.1,1.1L115.5,213.9z"/>
	<path class="st5" d="M117.1,210.3c0.2,0.2,0.3,0.2,0.5,0l0.4-0.4l0.5,0.5l-0.5,0.6c-0.4,0.5-0.8,0.5-1.2,0.1l-1.6-1.3l-0.3,0.4
		l-0.5-0.4l0.3-0.4l-0.6-0.5l0.5-0.6l0.6,0.5l0.6-0.7l0.5,0.4l-0.6,0.7L117.1,210.3z"/>
</g>
<g>
	<path class="st5" d="M137.5,220.4l-0.5,0.6c-0.5-0.3-1-0.1-1.3,0.2c-0.3,0.4-0.4,1,0.1,1.4l1.2,1c0.5,0.4,1.1,0.2,1.4-0.1
		s0.4-1-0.1-1.4l-0.2-0.2l-0.6,0.8l-0.6-0.5l1.1-1.3l0.8,0.7c0.8,0.7,0.9,1.6,0.2,2.4c-0.7,0.8-1.6,0.9-2.4,0.2l-1.2-1
		c-0.8-0.7-0.9-1.6-0.2-2.4C135.9,220,136.8,219.9,137.5,220.4z"/>
	<path class="st5" d="M138.8,220.8c-0.9-0.8-0.6-1.6-0.2-2.1c0.4-0.5,1.2-0.9,2.1-0.2l0.6,0.5c0.9,0.8,0.6,1.6,0.2,2.1
		c-0.4,0.5-1.2,0.9-2.1,0.2L138.8,220.8z M140.3,219.1c-0.4-0.4-0.8-0.3-1.1,0.1c-0.3,0.3-0.3,0.7,0.1,1.1l0.6,0.5
		c0.4,0.4,0.8,0.3,1.1-0.1c0.3-0.3,0.3-0.7-0.1-1.1L140.3,219.1z"/>
	<path class="st5" d="M141.1,218c-0.9-0.8-0.6-1.6-0.2-2.1c0.4-0.5,1.2-0.9,2.1-0.2l0.6,0.5c0.9,0.8,0.6,1.6,0.2,2.1
		c-0.4,0.5-1.2,0.9-2.1,0.2L141.1,218z M142.5,216.3c-0.4-0.4-0.8-0.3-1.1,0.1c-0.3,0.3-0.3,0.7,0.1,1.1l0.6,0.5
		c0.4,0.4,0.8,0.3,1.1-0.1c0.3-0.3,0.3-0.7-0.1-1.1L142.5,216.3z"/>
	<path class="st5" d="M146.4,214.9l-0.3-0.3c0.1,0.2,0,0.6-0.2,0.9c-0.4,0.5-1.2,0.8-2.1,0.1l-0.4-0.4c-0.9-0.7-0.6-1.6-0.2-2
		c0.2-0.3,0.6-0.4,0.8-0.4l-0.2-0.2l0.5-0.6l2.7,2.2c0.9,0.8,0.6,1.6,0.2,2.1c-0.4,0.4-1.1,0.9-1.9,0.3l0.5-0.6
		c0.3,0.2,0.7,0.1,0.9-0.2C146.8,215.7,146.8,215.3,146.4,214.9z M144.3,215.1c0.4,0.4,0.8,0.3,1.1-0.1c0.3-0.3,0.3-0.7-0.1-1.1
		l-0.4-0.4c-0.4-0.4-0.8-0.3-1.1,0.1c-0.3,0.3-0.3,0.7,0.1,1.1L144.3,215.1z"/>
	<path class="st5" d="M147.1,212.7c0.2,0.2,0.3,0.2,0.5,0l0.1-0.1l0.5,0.5l-0.2,0.2c-0.4,0.5-0.8,0.5-1.2,0.1l-3.1-2.6l0.5-0.6
		L147.1,212.7z"/>
	<path class="st5" d="M149,210.2l0.5-0.6c0.7,0.7,0.4,1.5,0,1.9c-0.4,0.5-1.2,0.9-2.1,0.2l-0.6-0.5c-0.9-0.8-0.6-1.6-0.2-2.1
		c0.4-0.5,1.2-0.9,2.1-0.2l0.5,0.4l-1.4,1.7l0.1,0.1c0.4,0.4,0.8,0.3,1.1-0.1C149.2,210.8,149.2,210.5,149,210.2z M147.3,210.7
		L147.3,210.7l1-1.2l0,0c-0.4-0.3-0.8-0.3-1.1,0.1C146.9,209.9,146.9,210.3,147.3,210.7z"/>
</g>
<g>
	<g>
		<path class="st5" d="M227.5,223.4l1.4,1.2l-0.5,0.6l-1.4-1.2l-3.4-0.7l0.5-0.6l2.5,0.5l-0.9-2.4l0.5-0.6L227.5,223.4z"/>
		<path class="st5" d="M228.5,221.4l-0.5,0.6c-0.7-0.7-0.4-1.5,0-1.9c0.4-0.5,1.2-0.9,2.1-0.2l1.7,1.4l-0.5,0.6l-0.3-0.2
			c0.1,0.4-0.1,0.7-0.4,1.1c-0.4,0.5-1,0.7-1.6,0.2c-0.3-0.3-0.6-0.7-0.3-1.3c0.2-0.4,0.4-0.8,0.8-1.3l0,0c-0.4-0.3-0.8-0.2-1,0.1
			C228.3,220.8,228.3,221.1,228.5,221.4z M230.2,220.9l-0.2-0.1c-0.4,0.5-0.7,0.9-0.7,1.2c0,0.1,0,0.2,0.1,0.3
			c0.2,0.2,0.5,0.1,0.7-0.2C230.5,221.8,230.7,221.3,230.2,220.9z"/>
		<path class="st5" d="M232.7,220.2l-0.5,0.6l-2.8-2.3l0.5-0.6l0.2,0.2c-0.1-0.2,0-0.6,0.2-0.9c0.4-0.5,1.2-0.8,2.1-0.1l1.7,1.4
			l-0.5,0.6l-1.7-1.4c-0.4-0.4-0.8-0.3-1.1,0.1c-0.3,0.3-0.3,0.7,0.1,1.1L232.7,220.2z"/>
		<path class="st5" d="M232.9,216.5c-0.9-0.7-0.6-1.6-0.2-2c0.2-0.3,0.6-0.4,0.8-0.4l-1.2-1l0.5-0.6l3.8,3.2l-0.5,0.6l-0.3-0.2
			c0.1,0.2,0,0.6-0.2,0.9c-0.4,0.5-1.2,0.8-2.1,0.1L232.9,216.5z M233.9,216.5c0.4,0.4,0.8,0.3,1.1,0c0.3-0.3,0.3-0.8-0.1-1.1
			l-0.6-0.5c-0.4-0.4-0.8-0.3-1.1,0.1s-0.3,0.7,0.1,1.1L233.9,216.5z"/>
		<path class="st5" d="M237.5,212.7l0.5-0.6c0.7,0.7,0.4,1.5,0,1.9c-0.4,0.5-1.2,0.9-2.1,0.2l-0.6-0.5c-0.9-0.8-0.6-1.6-0.2-2.1
			c0.4-0.5,1.2-0.9,2.1-0.2l0.5,0.4l-1.4,1.7l0.1,0.1c0.4,0.4,0.8,0.3,1.1-0.1C237.6,213.3,237.7,213,237.5,212.7z M235.7,213.2
			L235.7,213.2l1-1.2l0,0c-0.4-0.3-0.8-0.3-1.1,0.1C235.3,212.4,235.3,212.8,235.7,213.2z"/>
		<path class="st5" d="M239,210.7l0.5,1.5l-0.5,0.6l-0.6-2.1l-2.1-0.2l0.5-0.6l1.4,0.2l-0.4-1.4l0.5-0.6l0.6,2l2.2,0.3l-0.5,0.6
			L239,210.7z"/>
	</g>
</g>
<g>
	<g>
		<path class="st5" d="M193.1,220.6l0.5-0.6l3.8,3.2l-0.5,0.6l-2.6-2.2l1,2.1l-0.4,0.5l-2.2-0.6l2.6,2.2l-0.5,0.6l-3.8-3.2l0.5-0.6
			l2.9,0.8L193.1,220.6z"/>
		<path class="st5" d="M196.4,220.5l-0.5,0.6c-0.7-0.7-0.4-1.5,0-1.9c0.4-0.5,1.2-0.9,2.1-0.2l1.7,1.4l-0.5,0.6l-0.3-0.2
			c0.1,0.4-0.1,0.7-0.4,1.1c-0.4,0.5-1,0.7-1.6,0.2c-0.3-0.3-0.6-0.7-0.3-1.3c0.2-0.4,0.4-0.8,0.8-1.3l0,0c-0.4-0.3-0.8-0.2-1,0.1
			C196.2,219.9,196.2,220.2,196.4,220.5z M198.1,220l-0.2-0.1c-0.4,0.5-0.7,0.9-0.7,1.2c0,0.1,0,0.2,0.1,0.3
			c0.2,0.2,0.5,0.1,0.7-0.2C198.4,221,198.7,220.5,198.1,220z"/>
		<path class="st5" d="M197.5,216.6l-0.5,0.6l-0.6-0.5l0.5-0.6L197.5,216.6z M200.7,219.3l-0.5,0.6l-2.8-2.3l0.5-0.6L200.7,219.3z"
			/>
		<path class="st5" d="M200.8,217.5c0.2,0.2,0.3,0.2,0.5,0l0.1-0.1l0.5,0.5l-0.2,0.2c-0.4,0.5-0.8,0.5-1.2,0.1l-3.1-2.6l0.5-0.6
			L200.8,217.5z"/>
		<path class="st5" d="M201.6,216.7l0.6-0.7l0.7,0.6l-0.6,0.7L201.6,216.7z"/>
		<path class="st5" d="M202.3,214l1.6,1.4l-0.5,0.6l-3.8-3.2l1.2-1.5c0.6-0.7,1.4-0.8,2-0.2c0.6,0.5,0.7,1.1,0.3,1.7l2.4,0.4
			l-0.5,0.6l-2.4-0.4L202.3,214z M201.5,211.8l-0.7,0.9l1,0.9l0.7-0.9c0.3-0.3,0.3-0.7,0-1C202.1,211.4,201.8,211.5,201.5,211.8z"/>
		<path class="st5" d="M205.4,211.4c0.4,0.4,0.8,0.3,1.1-0.1c0.3-0.3,0.3-0.7-0.1-1.1l-1.7-1.4l0.5-0.6l2.8,2.3l-0.5,0.6l-0.3-0.2
			c0.1,0.2,0,0.6-0.2,0.9c-0.4,0.5-1.2,0.8-2,0.1l-1.7-1.4l0.5-0.6L205.4,211.4z"/>
	</g>
</g>
<g>
	<g>
		<path class="st5" d="M232.7,233.3l0.5-0.6l3.8,3.2l-0.5,0.6l-2.6-2.2l1,2.1l-0.4,0.5l-2.2-0.6l2.6,2.2l-0.5,0.6l-3.8-3.2l0.5-0.6
			l2.9,0.8L232.7,233.3z"/>
		<path class="st5" d="M234.7,232l-0.5,0.6l-0.6-0.5l0.5-0.6L234.7,232z M237.9,234.7l-0.5,0.6l-2.8-2.3l0.5-0.6L237.9,234.7z"/>
		<path class="st5" d="M239.4,233.1c-0.4,0.5-1.2,0.9-2.1,0.2l-0.6-0.5c-0.9-0.8-0.6-1.6-0.2-2.1c0.4-0.4,1.1-0.9,1.9-0.3l-0.5,0.6
			c-0.4-0.2-0.7-0.1-0.9,0.2c-0.3,0.3-0.3,0.7,0.1,1.1l0.6,0.5c0.4,0.4,0.8,0.3,1.1-0.1c0.2-0.3,0.3-0.6,0-1l0.5-0.6
			C240.1,231.8,239.8,232.6,239.4,233.1z"/>
		<path class="st5" d="M239.4,228.4c-0.3,0.3-0.3,0.7,0.1,1.1l1.7,1.4l-0.5,0.6l-2.8-2.3l0.5-0.6l0.3,0.2c-0.1-0.2,0-0.6,0.2-0.9
			l0.2-0.2l0.5,0.5L239.4,228.4z"/>
		<path class="st5" d="M240.3,228.4c-0.9-0.8-0.6-1.6-0.2-2.1c0.4-0.5,1.2-0.9,2.1-0.2l0.6,0.5c0.9,0.8,0.6,1.6,0.2,2.1
			c-0.4,0.5-1.2,0.9-2.1,0.2L240.3,228.4z M241.8,226.7c-0.4-0.4-0.8-0.3-1.1,0.1c-0.3,0.3-0.3,0.7,0.1,1.1l0.6,0.5
			c0.4,0.4,0.8,0.3,1.1-0.1c0.3-0.3,0.3-0.7-0.1-1.1L241.8,226.7z"/>
		<path class="st5" d="M243.3,226.5l0.5-0.6c0.3,0.2,0.6,0,0.9-0.3c0.2-0.2,0.3-0.5,0.1-0.7c-0.2-0.2-0.4,0-0.6,0.1l-0.6,0.4
			c-0.4,0.3-0.9,0.4-1.4,0c-0.5-0.5-0.5-1.1,0-1.7c0.5-0.6,1.1-0.8,1.8-0.3l-0.5,0.6c-0.3-0.2-0.6,0-0.8,0.2c-0.1,0.2-0.3,0.4,0,0.6
			c0.2,0.1,0.4,0,0.5-0.1l0.5-0.4c0.5-0.4,1-0.5,1.5,0c0.5,0.5,0.5,1.1,0,1.7C244.7,226.7,244,227,243.3,226.5z"/>
		<path class="st5" d="M244.6,223.3c-0.9-0.8-0.6-1.6-0.2-2.1c0.4-0.5,1.2-0.9,2.1-0.2l0.6,0.5c0.9,0.8,0.6,1.6,0.2,2.1
			c-0.4,0.5-1.2,0.9-2.1,0.2L244.6,223.3z M246.1,221.6c-0.4-0.4-0.8-0.3-1.1,0.1c-0.3,0.3-0.3,0.7,0.1,1.1l0.6,0.5
			c0.4,0.4,0.8,0.3,1.1-0.1c0.3-0.3,0.3-0.7-0.1-1.1L246.1,221.6z"/>
		<path class="st5" d="M246.3,218.2c-0.2,0.2-0.2,0.3,0,0.5l0.2,0.2l0.6-0.7l0.5,0.4l-0.6,0.7l2.2,1.9l-0.5,0.6l-2.2-1.9l-0.3,0.4
			l-0.5-0.4l0.3-0.4l-0.3-0.3c-0.4-0.4-0.5-0.7-0.1-1.2l0.5-0.6l0.5,0.5L246.3,218.2z M248.5,217.6l0.6-0.7l-0.5-0.4l-0.6,0.7
			l-0.6-0.5l-0.5,0.6l0.6,0.5l-0.3,0.4l0.5,0.4l0.3-0.4l1.6,1.3c0.4,0.4,0.8,0.4,1.2-0.1l0.5-0.6l-0.5-0.5l-0.4,0.4
			c-0.2,0.2-0.3,0.2-0.5,0L248.5,217.6z"/>
	</g>
</g>
<line class="st6" x1="14.1" y1="204.1" x2="253.9" y2="204.1"/>
<g>
	<path class="st5" d="M36.8,229.3l-0.5,0.6l-4.8-1.9l0.5-0.6l3.8,1.5l-2.1-3.5l0.5-0.6L36.8,229.3z"/>
	<path class="st5" d="M36.1,226.7c-0.9-0.8-0.6-1.6-0.2-2.1c0.4-0.5,1.2-0.9,2.1-0.2l0.6,0.5c0.9,0.8,0.6,1.6,0.2,2.1
		c-0.4,0.5-1.2,0.9-2.1,0.2L36.1,226.7z M37.6,224.9c-0.4-0.4-0.8-0.3-1.1,0.1c-0.3,0.3-0.3,0.7,0.1,1.1l0.6,0.5
		c0.4,0.4,0.8,0.3,1.1-0.1c0.3-0.3,0.3-0.7-0.1-1.1L37.6,224.9z"/>
	<path class="st5" d="M38.4,223.9c-0.9-0.7-0.6-1.6-0.2-2c0.2-0.3,0.6-0.4,0.8-0.4l-1.2-1l0.5-0.6l3.8,3.2l-0.5,0.6l-0.3-0.2
		c0.1,0.2,0,0.6-0.2,0.9c-0.4,0.5-1.2,0.8-2.1,0.1L38.4,223.9z M39.5,223.9c0.4,0.4,0.8,0.3,1.1,0c0.3-0.3,0.3-0.8-0.1-1.1l-0.6-0.5
		c-0.4-0.4-0.8-0.3-1.1,0.1c-0.3,0.3-0.3,0.7,0.1,1.1L39.5,223.9z"/>
	<path class="st5" d="M41,220.4l-0.5,0.6c-0.7-0.7-0.4-1.5,0-1.9c0.4-0.5,1.2-0.9,2.1-0.2l1.7,1.4l-0.5,0.6l-0.3-0.2
		c0.1,0.4-0.1,0.7-0.4,1.1c-0.4,0.5-1,0.7-1.6,0.2c-0.3-0.3-0.6-0.7-0.3-1.3c0.2-0.4,0.4-0.8,0.8-1.3l0,0c-0.4-0.3-0.7-0.2-1,0.1
		C40.9,219.8,40.8,220.1,41,220.4z M42.8,219.9l-0.2-0.1c-0.4,0.5-0.7,0.9-0.7,1.2c0,0.1,0,0.2,0.1,0.3c0.2,0.2,0.5,0.1,0.7-0.2
		C43,220.9,43.3,220.4,42.8,219.9z"/>
	<path class="st5" d="M42.4,216.1c-0.2,0.2-0.2,0.3,0.1,0.5l0.2,0.2l0.6-0.7l0.5,0.4l-0.6,0.7l2.2,1.9l-0.5,0.6l-2.2-1.9l-0.3,0.4
		l-0.5-0.4l0.3-0.4l-0.3-0.3c-0.4-0.4-0.5-0.7-0.1-1.2l0.5-0.6l0.5,0.5L42.4,216.1z"/>
	<path class="st5" d="M44.4,216.8c-0.9-0.8-0.6-1.6-0.2-2.1c0.4-0.5,1.2-0.9,2.1-0.2l0.6,0.5c0.9,0.8,0.6,1.6,0.2,2.1
		c-0.4,0.5-1.2,0.9-2.1,0.2L44.4,216.8z M45.9,215.1c-0.4-0.4-0.8-0.3-1.1,0.1c-0.3,0.3-0.3,0.7,0.1,1.1l0.6,0.5
		c0.4,0.4,0.8,0.3,1.1-0.1c0.3-0.3,0.3-0.7-0.1-1.1L45.9,215.1z"/>
	<path class="st5" d="M48.9,214.9l-0.5,0.6l-2.8-2.3l0.5-0.6l0.2,0.2c-0.1-0.2,0-0.6,0.2-0.9c0.4-0.5,1.2-0.8,2.1-0.1l1.7,1.4
		l-0.5,0.6l-1.7-1.4c-0.4-0.4-0.8-0.3-1.1,0.1s-0.3,0.7,0.1,1.1L48.9,214.9z"/>
	<path class="st5" d="M51.3,210.2l0.5-0.6c0.7,0.7,0.4,1.5,0,1.9c-0.4,0.5-1.2,0.9-2.1,0.2l-0.6-0.5c-0.9-0.8-0.6-1.6-0.2-2.1
		c0.4-0.5,1.2-0.9,2.1-0.2l0.5,0.4l-1.4,1.7l0.1,0.1c0.4,0.4,0.8,0.3,1.1-0.1C51.5,210.8,51.5,210.5,51.3,210.2z M49.5,210.7
		L49.5,210.7l1-1.2l0,0c-0.4-0.3-0.8-0.3-1.1,0.1C49.1,209.9,49.1,210.3,49.5,210.7z"/>
</g>
<g>
	<path class="st5" d="M70.3,223.7c-0.8-0.7-0.9-1.6-0.2-2.4c0.7-0.8,1.6-0.9,2.4-0.2l1.2,1c0.8,0.7,0.9,1.6,0.2,2.4
		c-0.7,0.8-1.6,0.9-2.4,0.2L70.3,223.7z M72.1,221.6c-0.5-0.4-1.1-0.2-1.4,0.1s-0.4,1,0.1,1.4l1.2,1c0.5,0.4,1.1,0.2,1.4-0.1
		c0.3-0.4,0.4-1-0.1-1.4L72.1,221.6z"/>
	<path class="st5" d="M74.2,219.6c-0.3,0.3-0.3,0.7,0.1,1.1L76,222l-0.5,0.6l-2.8-2.3l0.5-0.6l0.3,0.2c-0.1-0.2,0-0.6,0.2-0.9
		l0.2-0.2l0.5,0.5L74.2,219.6z"/>
	<path class="st5" d="M75.4,218.9l-0.5,0.6c-0.7-0.7-0.4-1.5,0-1.9c0.4-0.5,1.2-0.9,2.1-0.2l1.7,1.4l-0.5,0.6l-0.3-0.2
		c0.1,0.4-0.1,0.7-0.4,1.1c-0.4,0.5-1,0.7-1.6,0.2c-0.3-0.3-0.6-0.7-0.3-1.3c0.2-0.4,0.4-0.8,0.8-1.3l0,0c-0.4-0.3-0.8-0.2-1,0.1
		C75.2,218.2,75.2,218.6,75.4,218.9z M77.1,218.4l-0.2-0.1c-0.4,0.5-0.7,0.9-0.7,1.2c0,0.1,0,0.2,0.1,0.3c0.2,0.2,0.5,0.1,0.7-0.2
		C77.4,219.3,77.7,218.8,77.1,218.4z"/>
	<path class="st5" d="M79.6,217.6l-0.5,0.6l-2.8-2.3l0.5-0.6l0.2,0.2c-0.1-0.2,0-0.6,0.2-0.9c0.4-0.5,1.2-0.8,2.1-0.1l1.7,1.4
		l-0.5,0.6l-1.7-1.4c-0.4-0.4-0.8-0.3-1.1,0.1s-0.3,0.7,0.1,1.1L79.6,217.6z"/>
	<path class="st5" d="M82.8,213.6l-0.3-0.3c0.1,0.2,0,0.6-0.2,0.9c-0.4,0.5-1.2,0.8-2.1,0.1l-0.4-0.4c-0.9-0.7-0.6-1.6-0.2-2
		c0.2-0.3,0.6-0.4,0.8-0.4l-0.2-0.2l0.5-0.6l2.7,2.2c0.9,0.8,0.6,1.6,0.2,2.1c-0.4,0.4-1.1,0.9-1.9,0.3l0.5-0.6
		c0.3,0.2,0.7,0.1,0.9-0.2C83.2,214.4,83.2,214,82.8,213.6z M80.7,213.8c0.4,0.4,0.8,0.3,1.1-0.1c0.3-0.3,0.3-0.7-0.1-1.1l-0.4-0.4
		c-0.4-0.4-0.8-0.3-1.1,0.1c-0.3,0.3-0.3,0.7,0.1,1.1L80.7,213.8z"/>
	<path class="st5" d="M84.4,210.2l0.5-0.6c0.7,0.7,0.4,1.5,0,1.9c-0.4,0.5-1.2,0.9-2.1,0.2l-0.6-0.5c-0.9-0.8-0.6-1.6-0.2-2.1
		c0.4-0.5,1.2-0.9,2.1-0.2l0.5,0.4l-1.4,1.7l0.1,0.1c0.4,0.4,0.8,0.3,1.1-0.1C84.5,210.8,84.6,210.5,84.4,210.2z M82.6,210.7
		L82.6,210.7l1-1.2l0,0c-0.4-0.3-0.8-0.3-1.1,0.1C82.2,209.9,82.2,210.3,82.6,210.7z"/>
</g>
<g>
	<path class="st5" d="M125.4,224.1l1.4-1.6l0.6,0.5l-1.4,1.6l1,0.9l1.4-1.6l0.6,0.5l-1.8,2.2l-3.8-3.2l1.8-2.2l0.6,0.5l-1.4,1.6
		L125.4,224.1z"/>
	<path class="st5" d="M129.1,222.4c0.2,0.2,0.3,0.2,0.5,0l0.3-0.4l0.5,0.5L130,223c-0.4,0.5-0.8,0.5-1.2,0.1l-1.6-1.3l-0.3,0.4
		l-0.5-0.4l0.3-0.4l-0.6-0.5l0.5-0.6l0.6,0.5l0.6-0.7l0.5,0.4l-0.6,0.7L129.1,222.4z"/>
	<path class="st5" d="M128.1,218.8l-0.5,0.6l-0.6-0.5l0.5-0.6L128.1,218.8z M131.3,221.4l-0.5,0.6l-2.8-2.3l0.5-0.6L131.3,221.4z"/>
	<path class="st5" d="M130.7,220.3l0.5-0.6c0.3,0.2,0.6,0,0.9-0.3c0.2-0.2,0.3-0.5,0.1-0.7c-0.2-0.2-0.4,0-0.6,0.1l-0.6,0.4
		c-0.4,0.3-0.9,0.4-1.4,0c-0.5-0.5-0.5-1.1,0-1.7c0.5-0.6,1.1-0.8,1.8-0.3l-0.5,0.6c-0.3-0.2-0.6,0-0.8,0.2c-0.1,0.2-0.3,0.4,0,0.6
		c0.2,0.1,0.4,0,0.5-0.1l0.6-0.4c0.5-0.4,1-0.5,1.5,0c0.5,0.5,0.5,1.1,0,1.7C132.1,220.6,131.4,220.8,130.7,220.3z"/>
	<path class="st5" d="M132.3,216.3l-0.5,0.6c-0.7-0.7-0.4-1.5,0-1.9c0.4-0.5,1.2-0.9,2.1-0.2l1.7,1.4l-0.5,0.6l-0.3-0.2
		c0.1,0.4-0.1,0.7-0.4,1.1c-0.4,0.5-1,0.7-1.6,0.2c-0.3-0.3-0.6-0.7-0.3-1.3c0.2-0.4,0.4-0.8,0.8-1.3l0,0c-0.4-0.3-0.7-0.2-1,0.1
		C132.2,215.7,132.1,216.1,132.3,216.3z M134.1,215.9l-0.2-0.1c-0.4,0.5-0.7,0.9-0.7,1.2c0,0.1,0,0.2,0.1,0.3
		c0.2,0.2,0.5,0.1,0.7-0.2C134.3,216.8,134.6,216.3,134.1,215.9z"/>
	<path class="st5" d="M135.8,214.5c0.2,0.2,0.3,0.2,0.5,0l0.1-0.1l0.5,0.5l-0.2,0.2c-0.4,0.5-0.8,0.5-1.2,0.1l-3.1-2.6l0.5-0.6
		L135.8,214.5z"/>
	<path class="st5" d="M135.7,212.3l-0.5,0.6c-0.7-0.7-0.4-1.5,0-1.9c0.4-0.5,1.2-0.9,2.1-0.2l1.7,1.4l-0.5,0.6l-0.3-0.2
		c0.1,0.4-0.1,0.7-0.4,1.1c-0.4,0.5-1,0.7-1.6,0.2c-0.3-0.3-0.6-0.7-0.3-1.3c0.2-0.4,0.4-0.8,0.8-1.3l0,0c-0.4-0.3-0.7-0.2-1,0.1
		C135.6,211.7,135.5,212,135.7,212.3z M137.5,211.8l-0.2-0.1c-0.4,0.5-0.7,0.9-0.7,1.2c0,0.1,0,0.2,0.1,0.3c0.2,0.2,0.5,0.1,0.7-0.2
		C137.7,212.8,138,212.3,137.5,211.8z"/>
	<path class="st5" d="M139.3,210.3c0.2,0.2,0.3,0.2,0.5,0l0.4-0.4l0.5,0.5l-0.5,0.6c-0.4,0.5-0.8,0.5-1.2,0.1l-1.6-1.3l-0.3,0.4
		l-0.5-0.4l0.3-0.4l-0.6-0.5l0.5-0.6l0.6,0.5l0.6-0.7l0.5,0.4l-0.6,0.7L139.3,210.3z"/>
</g>
<g>
	<path class="st5" d="M137.4,232.8l1.2-1.4c0.6-0.7,1.4-0.8,2-0.2c0.3,0.3,0.5,0.6,0.5,1c0.5-0.2,0.9,0,1.2,0.2
		c0.7,0.6,0.8,1.3,0.1,2l-1.3,1.5L137.4,232.8z M138.4,232.7l1,0.8l0.7-0.9c0.3-0.3,0.3-0.7,0-1s-0.7-0.2-1,0.1L138.4,232.7z
		 M140,234l1,0.9l0.8-1c0.3-0.3,0.3-0.7-0.1-1s-0.7-0.2-1,0.1L140,234z"/>
	<path class="st5" d="M144.2,232.3l-0.5,0.6l-3.8-3.2l0.5-0.6l1.2,1c-0.1-0.2,0-0.6,0.2-0.9c0.4-0.5,1.2-0.8,2.1-0.1l1.7,1.4
		l-0.5,0.6l-1.7-1.4c-0.4-0.4-0.8-0.3-1.1,0.1s-0.3,0.7,0.1,1.1L144.2,232.3z"/>
	<path class="st5" d="M144.6,227.9l-0.5,0.6c-0.7-0.7-0.4-1.5,0-1.9c0.4-0.5,1.2-0.9,2.1-0.2l1.7,1.4l-0.5,0.6l-0.3-0.2
		c0.1,0.4-0.1,0.7-0.4,1.1c-0.4,0.5-1,0.7-1.6,0.2c-0.3-0.3-0.6-0.7-0.3-1.3c0.2-0.4,0.4-0.8,0.8-1.3l0,0c-0.4-0.3-0.7-0.2-1,0.1
		C144.5,227.3,144.4,227.6,144.6,227.9z M146.4,227.4l-0.2-0.1c-0.4,0.5-0.7,0.9-0.7,1.2c0,0.1,0,0.2,0.1,0.3
		c0.2,0.2,0.5,0.1,0.7-0.2C146.7,228.4,146.9,227.9,146.4,227.4z"/>
	<path class="st5" d="M147.1,224.2c-0.3,0.3-0.3,0.7,0.1,1.1l1.7,1.4l-0.5,0.6l-2.8-2.3l0.5-0.6l0.3,0.2c-0.1-0.2,0-0.6,0.2-0.9
		l0.2-0.2l0.5,0.5L147.1,224.2z"/>
	<path class="st5" d="M149.6,224.2c0.2,0.2,0.3,0.2,0.5,0l0.4-0.4l0.5,0.5l-0.5,0.6c-0.4,0.5-0.8,0.5-1.2,0.1l-1.6-1.3l-0.3,0.4
		l-0.5-0.4l0.3-0.4l-0.6-0.5l0.5-0.6l0.6,0.5l0.6-0.7l0.5,0.4l-0.6,0.7L149.6,224.2z"/>
	<path class="st5" d="M148.6,220.6l-0.5,0.6l-0.6-0.5l0.5-0.6L148.6,220.6z M151.8,223.2l-0.5,0.6l-2.8-2.3l0.5-0.6L151.8,223.2z"/>
	<path class="st5" d="M153.9,218.9l-1.2,1.4l0.6,1.1l-0.5,0.6l-2.7-4.4l0.5-0.6l4.8,1.9l-0.5,0.6L153.9,218.9z M153.2,218.6
		l-1.9-0.7l1.1,1.8L153.2,218.6z"/>
	<path class="st5" d="M153.1,215.3l-0.5,0.6l-0.6-0.5l0.5-0.6L153.1,215.3z M156.2,217.9l-0.5,0.6l-2.8-2.3l0.5-0.6L156.2,217.9z"/>
	<path class="st5" d="M155.4,214.3c-0.3,0.3-0.3,0.7,0.1,1.1l1.7,1.4l-0.5,0.6L154,215l0.5-0.6l0.3,0.2c-0.1-0.2,0-0.6,0.2-0.9
		l0.2-0.2l0.5,0.5L155.4,214.3z"/>
	<path class="st5" d="M157.9,214.3c0.2,0.2,0.3,0.2,0.5,0l0.4-0.4l0.5,0.5l-0.5,0.6c-0.4,0.5-0.8,0.5-1.2,0.1l-1.6-1.3l-0.3,0.4
		l-0.5-0.4l0.3-0.4l-0.6-0.5l0.5-0.6l0.6,0.5l0.6-0.7l0.5,0.4l-0.6,0.7L157.9,214.3z"/>
	<path class="st5" d="M160.1,211.5l0.5-0.6c0.7,0.7,0.4,1.5,0,1.9c-0.4,0.5-1.2,0.9-2.1,0.2l-0.6-0.5c-0.9-0.8-0.6-1.6-0.2-2.1
		c0.4-0.5,1.2-0.9,2.1-0.2l0.5,0.4l-1.4,1.7l0.1,0.1c0.4,0.4,0.8,0.3,1.1-0.1C160.3,212.1,160.3,211.8,160.1,211.5z M158.3,212
		L158.3,212l1-1.2l0,0c-0.4-0.3-0.8-0.3-1.1,0.1C157.9,211.2,157.9,211.6,158.3,212z"/>
	<path class="st5" d="M161.6,210c0.2,0.2,0.3,0.2,0.5,0l0.1-0.1l0.5,0.5l-0.2,0.2c-0.4,0.5-0.8,0.5-1.2,0.1l-3.1-2.6l0.5-0.6
		L161.6,210z"/>
</g>
<g>
	<path class="st5" d="M146.7,240.8l-1.2,1.4l0.6,1.1l-0.5,0.6l-2.7-4.4l0.5-0.6l4.8,1.9l-0.5,0.6L146.7,240.8z M146,240.5l-1.9-0.7
		l1.1,1.8L146,240.5z"/>
	<path class="st5" d="M150.4,238.2l-0.5,0.6l-1.7-1.4c-0.4-0.4-0.8-0.3-1.1,0c-0.3,0.3-0.3,0.7,0.1,1.1l1.7,1.4l-0.5,0.6l-2.8-2.3
		l0.5-0.6l0.2,0.2c-0.1-0.2,0-0.6,0.2-0.9c0.2-0.3,0.6-0.5,1-0.5c-0.1-0.4,0.1-0.9,0.3-1.2c0.4-0.5,1.2-0.9,2.1-0.1l1.7,1.4
		l-0.5,0.6l-1.7-1.4c-0.4-0.4-0.8-0.3-1.1,0s-0.3,0.7,0.1,1.1L150.4,238.2z"/>
	<path class="st5" d="M152.8,233.6l0.5-0.6c0.7,0.7,0.4,1.5,0,1.9c-0.4,0.5-1.2,0.9-2.1,0.2l-0.6-0.5c-0.9-0.8-0.6-1.6-0.2-2.1
		c0.4-0.5,1.2-0.9,2.1-0.2l0.5,0.4l-1.4,1.7l0.1,0.1c0.4,0.4,0.8,0.3,1.1-0.1C152.9,234.2,153,233.9,152.8,233.6z M151,234L151,234
		l1-1.2l0,0c-0.4-0.3-0.8-0.3-1.1,0.1C150.6,233.3,150.6,233.7,151,234z"/>
	<path class="st5" d="M153.2,230.2c-0.3,0.3-0.3,0.7,0.1,1.1l1.7,1.4l-0.5,0.6l-2.8-2.3l0.5-0.6l0.3,0.2c-0.1-0.2,0-0.6,0.2-0.9
		l0.2-0.2l0.5,0.5L153.2,230.2z"/>
	<path class="st5" d="M156.5,231l-0.5,0.6l-3.8-3.2l0.5-0.6L156.5,231z"/>
	<path class="st5" d="M157.9,229.3c-0.4,0.5-1.2,0.9-2.1,0.2l-0.6-0.5c-0.9-0.8-0.6-1.6-0.2-2.1c0.4-0.4,1.1-0.9,1.9-0.3l-0.5,0.6
		c-0.4-0.2-0.7-0.1-0.9,0.2c-0.3,0.3-0.3,0.7,0.1,1.1l0.6,0.5c0.4,0.4,0.8,0.3,1.1-0.1c0.2-0.3,0.3-0.6,0-1l0.5-0.6
		C158.6,228.1,158.3,228.9,157.9,229.3z"/>
	<path class="st5" d="M157.7,225.6l-0.5,0.6c-0.7-0.7-0.4-1.5,0-1.9c0.4-0.5,1.2-0.9,2.1-0.2l1.7,1.4l-0.5,0.6l-0.3-0.2
		c0.1,0.4-0.1,0.7-0.4,1.1c-0.4,0.5-1,0.7-1.6,0.2c-0.3-0.3-0.6-0.7-0.3-1.3c0.2-0.4,0.4-0.8,0.8-1.3l0,0c-0.4-0.3-0.8-0.2-1,0.1
		C157.5,225,157.5,225.3,157.7,225.6z M159.4,225.2l-0.2-0.1c-0.4,0.5-0.7,0.9-0.7,1.2c0,0.1,0,0.2,0.1,0.3c0.2,0.2,0.5,0.1,0.7-0.2
		C159.7,226.1,160,225.6,159.4,225.2z"/>
	<path class="st5" d="M160.7,218.2l0.5-0.6l3.8,3.2l-0.5,0.6l-2.6-2.2l1,2.1l-0.4,0.5l-2.2-0.6l2.6,2.2l-0.5,0.6l-3.8-3.2l0.5-0.6
		l2.9,0.8L160.7,218.2z"/>
	<path class="st5" d="M163.7,218.8c-0.9-0.8-0.6-1.6-0.2-2.1c0.4-0.5,1.2-0.9,2.1-0.2l0.6,0.5c0.9,0.8,0.6,1.6,0.2,2.1
		c-0.4,0.5-1.2,0.9-2.1,0.2L163.7,218.8z M165.2,217.1c-0.4-0.4-0.8-0.3-1.1,0.1c-0.3,0.3-0.3,0.7,0.1,1.1l0.6,0.5
		c0.4,0.4,0.8,0.3,1.1-0.1c0.3-0.3,0.3-0.7-0.1-1.1L165.2,217.1z"/>
	<path class="st5" d="M166.3,213.6l0.5-0.6l1.9,3.3l-0.5,0.5l-3.6-1.3l0.5-0.6l2.5,1L166.3,213.6z"/>
	<path class="st5" d="M167.1,211.9l-0.5,0.6l-0.6-0.5l0.5-0.6L167.1,211.9z M170.2,214.5l-0.5,0.6l-2.8-2.3l0.5-0.6L170.2,214.5z"/>
	<path class="st5" d="M170.4,212.7c0.2,0.2,0.3,0.2,0.5,0l0.1-0.1l0.5,0.5l-0.2,0.2c-0.4,0.5-0.8,0.5-1.2,0.1l-3.1-2.6l0.5-0.6
		L170.4,212.7z"/>
	<path class="st5" d="M170.3,210.5l-0.5,0.6c-0.7-0.7-0.4-1.5,0-1.9c0.4-0.5,1.2-0.9,2.1-0.2l1.7,1.4l-0.5,0.6l-0.3-0.2
		c0.1,0.4-0.1,0.7-0.4,1.1c-0.4,0.5-1,0.7-1.6,0.2c-0.3-0.3-0.6-0.7-0.3-1.3c0.2-0.4,0.4-0.8,0.8-1.3l0,0c-0.4-0.3-0.7-0.2-1,0.1
		C170.2,209.9,170.1,210.2,170.3,210.5z M172.1,210.1l-0.2-0.1c-0.4,0.5-0.7,0.9-0.7,1.2c0,0.1,0,0.2,0.1,0.3
		c0.2,0.2,0.5,0.1,0.7-0.2C172.4,211,172.6,210.5,172.1,210.1z"/>
</g>
<g>
	<g>
		<path class="st5" d="M213.1,226.3c-0.8-0.7-0.9-1.6-0.2-2.4c0.7-0.8,1.6-0.9,2.4-0.2l1.2,1c0.8,0.7,0.9,1.6,0.2,2.4
			c-0.7,0.8-1.6,0.9-2.4,0.2L213.1,226.3z M214.8,224.2c-0.5-0.4-1.1-0.2-1.4,0.1c-0.3,0.4-0.4,1,0.1,1.4l1.2,1
			c0.5,0.4,1.1,0.2,1.4-0.1c0.3-0.4,0.4-1-0.1-1.4L214.8,224.2z"/>
		<path class="st5" d="M216.5,223.9c-0.9-0.8-0.6-1.6-0.2-2.1c0.4-0.5,1.2-0.9,2.1-0.2l0.6,0.5c0.9,0.8,0.6,1.6,0.2,2.1
			c-0.4,0.5-1.2,0.9-2.1,0.2L216.5,223.9z M217.9,222.2c-0.4-0.4-0.8-0.3-1.1,0.1c-0.3,0.3-0.3,0.7,0.1,1.1l0.6,0.5
			c0.4,0.4,0.8,0.3,1.1-0.1c0.3-0.3,0.3-0.7-0.1-1.1L217.9,222.2z"/>
		<path class="st5" d="M219.2,219.5c-0.3,0.3-0.3,0.7,0.1,1.1l1.7,1.4l-0.5,0.6l-2.8-2.3l0.5-0.6l0.3,0.2c-0.1-0.2,0-0.6,0.2-0.9
			l0.2-0.2l0.5,0.5L219.2,219.5z"/>
		<path class="st5" d="M222.4,218.5l0.5-0.6c0.7,0.7,0.4,1.5,0,1.9c-0.4,0.5-1.2,0.9-2.1,0.2l-0.6-0.5c-0.9-0.8-0.6-1.6-0.2-2.1
			c0.4-0.5,1.2-0.9,2.1-0.2l0.5,0.4l-1.4,1.7l0.1,0.1c0.4,0.4,0.8,0.3,1.1-0.1C222.6,219.1,222.6,218.8,222.4,218.5z M220.6,218.9
			L220.6,218.9l1-1.2l0,0c-0.4-0.3-0.8-0.3-1.1,0.1C220.2,218.2,220.2,218.6,220.6,218.9z"/>
		<path class="st5" d="M222.4,216.8c-0.9-0.7-0.6-1.6-0.2-2c0.2-0.3,0.6-0.4,0.8-0.4l-1.2-1l0.5-0.6l3.8,3.2l-0.5,0.6l-0.3-0.2
			c0.1,0.2,0,0.6-0.2,0.9c-0.4,0.5-1.2,0.8-2.1,0.1L222.4,216.8z M223.5,216.7c0.4,0.4,0.8,0.3,1.1,0c0.3-0.3,0.3-0.8-0.1-1.1
			l-0.6-0.5c-0.4-0.4-0.8-0.3-1.1,0.1s-0.3,0.7,0.1,1.1L223.5,216.7z"/>
		<path class="st5" d="M224.8,214c-0.9-0.8-0.6-1.6-0.2-2.1c0.4-0.5,1.2-0.9,2.1-0.2l0.6,0.5c0.9,0.8,0.6,1.6,0.2,2.1
			c-0.4,0.5-1.2,0.9-2.1,0.2L224.8,214z M226.2,212.3c-0.4-0.4-0.8-0.3-1.1,0.1c-0.3,0.3-0.3,0.7,0.1,1.1l0.6,0.5
			c0.4,0.4,0.8,0.3,1.1-0.1c0.3-0.3,0.3-0.7-0.1-1.1L226.2,212.3z"/>
		<path class="st5" d="M227.1,211.3c-0.9-0.8-0.6-1.6-0.2-2.1c0.4-0.5,1.2-0.9,2.1-0.2l0.6,0.5c0.9,0.8,0.6,1.6,0.2,2.1
			c-0.4,0.5-1.2,0.9-2.1,0.2L227.1,211.3z M228.5,209.6c-0.4-0.4-0.8-0.3-1.1,0.1s-0.3,0.7,0.1,1.1l0.6,0.5c0.4,0.4,0.8,0.3,1.1-0.1
			s0.3-0.7-0.1-1.1L228.5,209.6z"/>
	</g>
</g>
<g>
	<g>
		<path class="st5" d="M207.8,222.2l-1.2,1.4l0.6,1.1l-0.5,0.6l-2.7-4.4l0.5-0.6l4.8,1.9l-0.5,0.6L207.8,222.2z M207.2,222l-1.9-0.7
			l1.1,1.8L207.2,222z"/>
		<path class="st5" d="M209.6,220l0.5,1.5l-0.5,0.6l-0.6-2.1l-2.1-0.2l0.5-0.6l1.4,0.2l-0.4-1.4l0.5-0.6l0.6,2l2.2,0.3l-0.5,0.6
			L209.6,220z"/>
		<path class="st5" d="M209.1,216.1l-0.5,0.6l-0.6-0.5l0.5-0.6L209.1,216.1z M212.3,218.8l-0.5,0.6l-2.8-2.3l0.5-0.6L212.3,218.8z"
			/>
		<path class="st5" d="M211.3,216.1l-0.5,0.6c-0.7-0.7-0.4-1.5,0-1.9c0.4-0.5,1.2-0.9,2.1-0.2l1.7,1.4l-0.5,0.6l-0.3-0.2
			c0.1,0.4-0.1,0.7-0.4,1.1c-0.4,0.5-1,0.7-1.6,0.2c-0.3-0.3-0.6-0.7-0.3-1.3c0.2-0.4,0.4-0.8,0.8-1.3l0,0c-0.4-0.3-0.7-0.2-1,0.1
			C211.1,215.5,211.1,215.8,211.3,216.1z M213.1,215.6l-0.2-0.1c-0.4,0.5-0.7,0.9-0.7,1.2c0,0.1,0,0.2,0.1,0.3
			c0.2,0.2,0.5,0.1,0.7-0.2C213.3,216.5,213.6,216,213.1,215.6z"/>
		<path class="st5" d="M214.9,214.1c0.2,0.2,0.3,0.2,0.5,0l0.4-0.4l0.5,0.5l-0.5,0.6c-0.4,0.5-0.8,0.5-1.2,0.1l-1.6-1.3l-0.3,0.4
			l-0.5-0.4l0.3-0.4l-0.6-0.5l0.5-0.6l0.6,0.5l0.6-0.7l0.5,0.4l-0.6,0.7L214.9,214.1z"/>
		<path class="st5" d="M215.1,211.6l-0.5,0.6c-0.7-0.7-0.4-1.5,0-1.9c0.4-0.5,1.2-0.9,2.1-0.2l1.7,1.4l-0.5,0.6l-0.3-0.2
			c0.1,0.4-0.1,0.7-0.4,1.1c-0.4,0.5-1,0.7-1.6,0.2c-0.3-0.3-0.6-0.7-0.3-1.3c0.2-0.4,0.4-0.8,0.8-1.3l0,0c-0.4-0.3-0.7-0.2-1,0.1
			C214.9,211,214.9,211.3,215.1,211.6z M216.8,211.1l-0.2-0.1c-0.4,0.5-0.7,0.9-0.7,1.2c0,0.1,0,0.2,0.1,0.3
			c0.2,0.2,0.5,0.1,0.7-0.2C217.1,212,217.3,211.5,216.8,211.1z"/>
	</g>
</g>
<g>
	<path class="st5" d="M28.3,221.2l3.2,2.7l-0.5,0.6l-3.2-2.7l-0.9,1l-0.6-0.5l2.2-2.6l0.6,0.5L28.3,221.2z"/>
	<path class="st5" d="M33.4,219.7l-1.5-2l0.5-0.6l2.2,3l-0.5,0.6l-2.5-1.2l1.6,2.2l-0.5,0.6l-3.4-1.6l0.5-0.6l2.3,1.1l-1.5-2
		l0.5-0.6L33.4,219.7z"/>
	<path class="st5" d="M32.6,216l-0.5,0.6l-0.6-0.5l0.5-0.6L32.6,216z M35.8,218.6l-0.5,0.6l-2.8-2.3l0.5-0.6L35.8,218.6z"/>
	<path class="st5" d="M36.1,216.7c0.2,0.2,0.3,0.2,0.5,0l0.3-0.4l0.5,0.5l-0.5,0.6c-0.4,0.5-0.8,0.5-1.2,0.1l-1.6-1.3l-0.3,0.4
		l-0.5-0.4l0.3-0.4l-0.6-0.5l0.5-0.6l0.6,0.5l0.6-0.7l0.5,0.4l-0.6,0.7L36.1,216.7z M37.7,214.8c0.2,0.2,0.3,0.2,0.5,0l0.3-0.4
		l0.5,0.5l-0.5,0.6c-0.4,0.5-0.8,0.5-1.2,0.1l-1.6-1.3l-0.3,0.4l-0.5-0.4l0.3-0.4l-0.6-0.5l0.5-0.6l0.6,0.5l0.6-0.7l0.5,0.4
		l-0.6,0.7L37.7,214.8z"/>
	<path class="st5" d="M39.9,212l0.5-0.6c0.7,0.7,0.4,1.5,0,1.9c-0.4,0.5-1.2,0.9-2.1,0.2l-0.6-0.5c-0.9-0.8-0.6-1.6-0.2-2.1
		c0.4-0.5,1.2-0.9,2.1-0.2l0.5,0.4l-1.4,1.7l0.1,0.1c0.4,0.4,0.8,0.3,1.1-0.1C40,212.6,40.1,212.3,39.9,212z M38.1,212.5L38.1,212.5
		l1-1.2l0,0c-0.4-0.3-0.8-0.3-1.1,0.1C37.7,211.7,37.7,212.1,38.1,212.5z"/>
	<path class="st5" d="M40.4,208.6c-0.3,0.3-0.3,0.7,0.1,1.1l1.7,1.4l-0.5,0.6l-2.8-2.3l0.5-0.6l0.3,0.2c-0.1-0.2,0-0.6,0.2-0.9
		l0.2-0.2l0.5,0.5L40.4,208.6z"/>
</g>
<g>
	<path class="st5" d="M98.1,218.3c-0.8-0.7-0.9-1.6-0.2-2.4c0.7-0.8,1.6-0.9,2.4-0.2l1.2,1c0.8,0.7,0.9,1.6,0.2,2.4
		c-0.7,0.8-1.6,0.9-2.4,0.2L98.1,218.3z M99.8,216.2c-0.5-0.4-1.1-0.2-1.4,0.1s-0.4,1,0.1,1.4l1.2,1c0.5,0.4,1.1,0.2,1.4-0.1
		s0.4-1-0.1-1.4L99.8,216.2z"/>
	<path class="st5" d="M101.7,215.1l-0.5,0.6c-0.7-0.7-0.4-1.5,0-1.9c0.4-0.5,1.2-0.9,2.1-0.2l1.7,1.4l-0.5,0.6l-0.3-0.2
		c0.1,0.4-0.1,0.7-0.4,1.1c-0.4,0.5-1,0.7-1.6,0.2c-0.3-0.3-0.6-0.7-0.3-1.3c0.2-0.4,0.4-0.8,0.8-1.3l0,0c-0.4-0.3-0.7-0.2-1,0.1
		C101.5,214.5,101.5,214.8,101.7,215.1z M103.5,214.7l-0.2-0.1c-0.4,0.5-0.7,0.9-0.7,1.2c0,0.1,0,0.2,0.1,0.3
		c0.2,0.2,0.5,0.1,0.7-0.2C103.7,215.6,104,215.1,103.5,214.7z"/>
	<path class="st5" d="M105.3,213.1c0.2,0.2,0.3,0.2,0.5,0l0.4-0.4l0.5,0.5l-0.5,0.6c-0.4,0.5-0.8,0.5-1.2,0.1l-1.6-1.3l-0.3,0.4
		l-0.5-0.4l0.3-0.4l-0.6-0.5l0.5-0.6l0.6,0.5l0.6-0.7l0.5,0.4l-0.6,0.7L105.3,213.1z"/>
	<path class="st5" d="M107.4,212.2l-0.5,0.6l-3.8-3.2l0.5-0.6l1.2,1c-0.1-0.2,0-0.6,0.2-0.9c0.4-0.5,1.2-0.8,2.1-0.1l1.7,1.4
		l-0.5,0.6l-1.7-1.4c-0.4-0.4-0.8-0.3-1.1,0.1s-0.3,0.7,0.1,1.1L107.4,212.2z"/>
</g>
<g>
	<path class="st5" d="M175,223.3l-0.5,0.6l-3.8-3.2l0.5-0.6l1.8,1.5l-0.5-3.1l0.6-0.7l0.5,2.6l3.4,0.4l-0.6,0.7l-2.7-0.3l0.2,1.1
		L175,223.3z"/>
	<path class="st5" d="M175.7,218.6l-0.5,0.6c-0.7-0.7-0.4-1.5,0-1.9c0.4-0.5,1.2-0.9,2.1-0.2l1.7,1.4l-0.5,0.6l-0.3-0.2
		c0.1,0.4-0.1,0.7-0.4,1.1c-0.4,0.5-1,0.7-1.6,0.2c-0.3-0.3-0.6-0.7-0.3-1.3c0.2-0.4,0.4-0.8,0.8-1.3l0,0c-0.4-0.3-0.7-0.2-1,0.1
		C175.5,218,175.5,218.3,175.7,218.6z M177.5,218.1l-0.2-0.1c-0.4,0.5-0.7,0.9-0.7,1.2c0,0.1,0,0.2,0.1,0.3c0.2,0.2,0.5,0.1,0.7-0.2
		C177.7,219.1,178,218.6,177.5,218.1z"/>
	<path class="st5" d="M178.3,216l-0.3-2l0.6-0.7l0.3,1.9l2.6,0.3l-0.5,0.6l-2-0.2l0.1,0.7l0.9,0.8l-0.5,0.6l-3.8-3.2l0.5-0.6
		L178.3,216z"/>
	<path class="st5" d="M180.2,213.3l-0.5,0.6c-0.7-0.7-0.4-1.5,0-1.9c0.4-0.5,1.2-0.9,2.1-0.2l1.7,1.4l-0.5,0.6l-0.3-0.2
		c0.1,0.4-0.1,0.7-0.4,1.1c-0.4,0.5-1,0.7-1.6,0.2c-0.3-0.3-0.6-0.7-0.3-1.3c0.2-0.4,0.4-0.8,0.8-1.3l0,0c-0.4-0.3-0.8-0.2-1,0.1
		C180,212.6,180,213,180.2,213.3z M181.9,212.8l-0.2-0.1c-0.4,0.5-0.7,0.9-0.7,1.2c0,0.1,0,0.2,0.1,0.3c0.2,0.2,0.5,0.1,0.7-0.2
		C182.2,213.7,182.5,213.2,181.9,212.8z"/>
	<path class="st5" d="M182.2,211.3c-0.9-0.8-0.6-1.6-0.2-2.1c0.4-0.5,1.2-0.9,2.1-0.2l0.6,0.5c0.9,0.8,0.6,1.6,0.2,2.1
		c-0.4,0.5-1.2,0.9-2.1,0.2L182.2,211.3z M183.7,209.6c-0.4-0.4-0.8-0.3-1.1,0.1s-0.3,0.7,0.1,1.1l0.6,0.5c0.4,0.4,0.8,0.3,1.1-0.1
		s0.3-0.7-0.1-1.1L183.7,209.6z"/>
</g>
<g>
	<path class="st5" d="M10.2,228.6l3.2,2.7l-0.5,0.6l-3.2-2.7l-0.9,1l-0.6-0.5l2.2-2.6l0.6,0.5L10.2,228.6z"/>
	<path class="st5" d="M14.8,227.9l0.5-0.6c0.7,0.7,0.4,1.5,0,1.9c-0.4,0.5-1.2,0.9-2.1,0.2l-0.6-0.5c-0.9-0.8-0.6-1.6-0.2-2.1
		c0.4-0.5,1.2-0.9,2.1-0.2l0.5,0.4l-1.4,1.7l0.1,0.1c0.4,0.4,0.8,0.3,1.1-0.1C14.9,228.5,15,228.2,14.8,227.9z M13,228.4L13,228.4
		l1-1.2l0,0c-0.4-0.3-0.8-0.3-1.1,0.1C12.6,227.6,12.6,228,13,228.4z"/>
	<path class="st5" d="M16.2,226.4c0.2,0.2,0.3,0.2,0.5,0l0.1-0.1l0.5,0.5l-0.2,0.2c-0.4,0.5-0.8,0.5-1.2,0.1l-3.1-2.6l0.5-0.6
		L16.2,226.4z"/>
	<path class="st5" d="M18.1,223.9l0.5-0.6c0.7,0.7,0.4,1.5,0,1.9c-0.4,0.5-1.2,0.9-2.1,0.2l-0.6-0.5c-0.9-0.8-0.6-1.6-0.2-2.1
		c0.4-0.5,1.2-0.9,2.1-0.2l0.5,0.4l-1.4,1.7l0.1,0.1c0.4,0.4,0.8,0.3,1.1-0.1C18.3,224.5,18.3,224.2,18.1,223.9z M16.3,224.4
		L16.3,224.4l1-1.2l0,0c-0.4-0.3-0.8-0.3-1.1,0.1C15.9,223.6,15.9,224,16.3,224.4z"/>
	<path class="st5" d="M17.5,219.9c-0.2,0.2-0.2,0.3,0.1,0.5l0.2,0.2l0.6-0.7l0.5,0.4l-0.6,0.7l2.2,1.9l-0.5,0.6l-2.2-1.9l-0.3,0.4
		l-0.5-0.4l0.3-0.4l-0.3-0.3c-0.4-0.4-0.5-0.7-0.1-1.2l0.5-0.6l0.5,0.5L17.5,219.9z"/>
	<path class="st5" d="M19,217l0.2,1.2l-0.4,0.4l-0.4-0.9L19,217z M19.5,220.6c-0.9-0.8-0.6-1.6-0.2-2.1c0.4-0.5,1.2-0.9,2.1-0.2
		l0.6,0.5c0.9,0.8,0.6,1.6,0.2,2.1c-0.4,0.5-1.2,0.9-2.1,0.2L19.5,220.6z M20.9,218.9c-0.4-0.4-0.8-0.3-1.1,0.1s-0.3,0.7,0.1,1.1
		l0.6,0.5c0.4,0.4,0.8,0.3,1.1-0.1c0.3-0.3,0.3-0.7-0.1-1.1L20.9,218.9z"/>
	<path class="st5" d="M24,218.7l-0.5,0.6l-2.8-2.3l0.5-0.6l0.2,0.2c-0.1-0.2,0-0.6,0.2-0.9c0.4-0.5,1.2-0.8,2.1-0.1l1.7,1.4
		l-0.5,0.6l-1.7-1.4c-0.4-0.4-0.8-0.3-1.1,0.1c-0.3,0.3-0.3,0.7,0.1,1.1L24,218.7z"/>
	<path class="st5" d="M23.2,213.2l-0.5,0.6l-0.6-0.5l0.5-0.6L23.2,213.2z M26.4,215.9l-0.5,0.6l-2.8-2.3l0.5-0.6L26.4,215.9z"/>
	<path class="st5" d="M27.8,214.2c-0.4,0.5-1.2,0.9-2.1,0.2l-0.6-0.5c-0.9-0.8-0.6-1.6-0.2-2.1c0.4-0.4,1.1-0.9,1.9-0.3l-0.5,0.6
		c-0.4-0.2-0.7-0.1-0.9,0.2c-0.3,0.3-0.3,0.7,0.1,1.1l0.6,0.5c0.4,0.4,0.8,0.3,1.1-0.1c0.2-0.3,0.3-0.6,0-1l0.5-0.6
		C28.5,213,28.2,213.8,27.8,214.2z"/>
	<path class="st5" d="M27.6,210.5l-0.5,0.6c-0.7-0.7-0.4-1.5,0-1.9c0.4-0.5,1.2-0.9,2.1-0.2l1.7,1.4l-0.5,0.6l-0.3-0.2
		c0.1,0.4-0.1,0.7-0.4,1.1c-0.4,0.5-1,0.7-1.6,0.2c-0.3-0.3-0.6-0.7-0.3-1.3c0.2-0.4,0.4-0.8,0.8-1.3l0,0c-0.4-0.3-0.7-0.2-1,0.1
		C27.4,209.9,27.4,210.2,27.6,210.5z M29.3,210.1l-0.2-0.1c-0.4,0.5-0.7,0.9-0.7,1.2c0,0.1,0,0.2,0.1,0.3c0.2,0.2,0.5,0.1,0.7-0.2
		C29.6,211,29.9,210.5,29.3,210.1z"/>
</g>
<g>
	<path class="st5" d="M122.3,218.4l-1.2,1.4l0.6,1.1l-0.5,0.6l-2.7-4.4l0.5-0.6l4.8,1.9l-0.5,0.6L122.3,218.4z M121.6,218.1
		l-1.9-0.7l1.1,1.8L121.6,218.1z"/>
	<path class="st5" d="M121.8,214.3l3.2,2.7l-0.5,0.6l-3.2-2.7l-0.9,1l-0.6-0.5l2.2-2.6l0.6,0.5L121.8,214.3z"/>
	<path class="st5" d="M126.3,212.2l1.6,1.3l-1,1.2c-0.4,0.5-1.2,0.9-2,0.2c-0.4-0.3-0.5-0.7-0.4-1.1c-0.4,0.1-0.8,0.1-1.2-0.2
		c-0.8-0.7-0.5-1.6-0.1-2l0.5-0.6l0.5,0.5l-0.5,0.6c-0.3,0.3-0.3,0.7,0,1c0.3,0.3,0.7,0.2,1-0.1l0.5-0.6l-0.4-0.4l0.5-0.6l0.4,0.4
		l0.5-0.6l0.5,0.5L126.3,212.2z M126.9,213.6l-1.1-0.9l-0.5,0.6c-0.3,0.3-0.3,0.7,0.1,1s0.7,0.2,1-0.1L126.9,213.6z"/>
	<path class="st5" d="M126.6,208.7l3.2,2.7l-0.5,0.6l-3.2-2.7l-0.9,1l-0.6-0.5l2.2-2.6l0.6,0.5L126.6,208.7z"/>
</g>
<g>
	<path class="st5" d="M187.4,213.8l0.5-0.6l3.8,3.2l-0.5,0.6l-2.6-2.2l1,2.1l-0.4,0.5l-2.2-0.6l2.6,2.2l-0.5,0.6l-3.8-3.2l0.5-0.6
		l2.9,0.8L187.4,213.8z"/>
	<path class="st5" d="M190,211.8l3.2,2.7l-0.5,0.6l-3.2-2.7l-0.9,1l-0.6-0.5l2.2-2.6l0.6,0.5L190,211.8z"/>
	<path class="st5" d="M196.6,210.5l-0.5,0.6l-4-0.7l2.7,2.3l-0.5,0.6l-3.8-3.2l0.5-0.6l4,0.7l-2.7-2.3l0.5-0.6L196.6,210.5z"/>
</g>
<g>
	<g>
		
			<rect x="11.5" y="13.7" transform="matrix(4.485485e-11 -1 1 4.485485e-11 0.7689 36.3538)" class="st9" width="14.1" height="8.1"/>
		<g>
			<g>
				<path class="st5" d="M19.4,23.2c-0.5,0-0.9-0.2-1.1-0.6c-0.3,0.3-0.6,0.5-1.1,0.5c-1,0-1.4-0.7-1.4-1.4c0-0.7,0.4-1.4,1.4-1.4
					c0.5,0,0.9,0.2,1.1,0.5c0.2-0.4,0.6-0.6,1.1-0.6c1,0,1.4,0.7,1.4,1.4C20.8,22.5,20.4,23.2,19.4,23.2z M17.1,20.9
					c-0.5,0-0.9,0.3-0.9,0.8c0,0.5,0.4,0.8,0.9,0.8c0.6,0,0.9-0.4,0.9-0.8C18,21.3,17.7,20.9,17.1,20.9z M19.4,20.9
					c-0.5,0-0.9,0.4-0.9,0.9c0,0.5,0.3,0.9,0.9,0.9c0.5,0,0.9-0.4,0.9-0.9C20.3,21.3,19.9,20.9,19.4,20.9z"/>
				<path class="st5" d="M20,19.6v-0.7h0.7v0.7H20z"/>
				<path class="st5" d="M19.4,18.2h-2.2c-1.1,0-1.4-0.7-1.4-1.4c0-0.7,0.3-1.4,1.4-1.4h2.2c1.1,0,1.4,0.7,1.4,1.4
					C20.8,17.4,20.5,18.2,19.4,18.2z M19.4,15.9h-2.2c-0.6,0-0.9,0.4-0.9,0.9c0,0.5,0.3,0.9,0.9,0.9h2.2c0.6,0,0.9-0.4,0.9-0.9
					C20.3,16.3,20,15.9,19.4,15.9z"/>
				<path class="st5" d="M20.2,14.8l-2-1.8c-0.3-0.3-0.6-0.4-1-0.4c-0.6,0-0.9,0.4-0.9,0.9c0,0.5,0.3,0.9,0.9,0.9h0.1v0.5h-0.1
					c-1.1,0-1.4-0.7-1.4-1.4c0-0.7,0.4-1.4,1.4-1.4c0.6,0,0.9,0.2,1.4,0.6l1.7,1.5V12h0.5v2.8H20.2z"/>
			</g>
		</g>
	</g>
	<g>
		
			<rect x="33.5" y="89.9" transform="matrix(4.491969e-11 -1 1 4.491969e-11 -53.4214 134.5117)" class="st9" width="14.1" height="8.1"/>
		<g>
			<g>
				<path class="st5" d="M42,97.9v2.2h-0.5l-3.1-2.2v-0.5h3.1v-0.5H42v0.5h1.3v0.5H42z M41.5,97.9h-2.2l2.2,1.6V97.9z"/>
				<path class="st5" d="M42.6,96.4v-0.7h0.7v0.7H42.6z"/>
				<path class="st5" d="M41.9,94.9h-2.2c-1.1,0-1.4-0.7-1.4-1.4c0-0.7,0.3-1.4,1.4-1.4h0v0.5h-0.1c-0.6,0-0.9,0.4-0.9,0.9
					c0,0.5,0.3,0.9,0.9,0.9h0.8c-0.2-0.2-0.3-0.6-0.3-0.9c0-0.7,0.3-1.4,1.4-1.4h0.3c1.1,0,1.4,0.7,1.4,1.4
					C43.4,94.2,43,94.9,41.9,94.9z M41.9,92.6h-0.3c-0.6,0-0.9,0.4-0.9,0.9c0,0.5,0.3,0.9,0.9,0.9h0.3c0.6,0,0.9-0.4,0.9-0.9
					C42.8,93,42.5,92.6,41.9,92.6z"/>
				<path class="st5" d="M41.9,91.5h-2.2c-1.1,0-1.4-0.7-1.4-1.4c0-0.7,0.3-1.4,1.4-1.4h2.2c1.1,0,1.4,0.7,1.4,1.4
					C43.4,90.8,43,91.5,41.9,91.5z M41.9,89.2h-2.2c-0.6,0-0.9,0.4-0.9,0.9c0,0.5,0.3,0.9,0.9,0.9h2.2c0.6,0,0.9-0.4,0.9-0.9
					C42.8,89.6,42.5,89.2,41.9,89.2z"/>
			</g>
		</g>
	</g>
	<g>
		
			<rect x="55.8" y="131.9" transform="matrix(4.491969e-11 -1 1 4.491969e-11 -73.1061 198.7322)" class="st9" width="14.1" height="8.1"/>
		<g>
			<g>
				<path class="st5" d="M64.6,141.6l-2-1.8c-0.3-0.3-0.6-0.4-1-0.4c-0.6,0-0.9,0.4-0.9,0.9c0,0.5,0.3,0.9,0.9,0.9h0.1v0.5h-0.1
					c-1.1,0-1.4-0.7-1.4-1.4c0-0.7,0.4-1.4,1.4-1.4c0.6,0,0.9,0.2,1.4,0.6l1.7,1.5v-2.1h0.5v2.8H64.6z"/>
				<path class="st5" d="M64.4,138.1v-0.7h0.7v0.7H64.4z"/>
				<path class="st5" d="M63.8,136.7h-2.2c-1.1,0-1.4-0.7-1.4-1.4c0-0.7,0.3-1.4,1.4-1.4h0v0.5h-0.1c-0.6,0-0.9,0.4-0.9,0.9
					c0,0.5,0.3,0.9,0.9,0.9h0.8c-0.2-0.2-0.3-0.6-0.3-0.9c0-0.7,0.3-1.4,1.4-1.4h0.3c1.1,0,1.4,0.7,1.4,1.4
					C65.2,135.9,64.9,136.7,63.8,136.7z M63.8,134.4h-0.3c-0.6,0-0.9,0.4-0.9,0.9c0,0.5,0.3,0.9,0.9,0.9h0.3c0.6,0,0.9-0.4,0.9-0.9
					C64.7,134.8,64.4,134.4,63.8,134.4z"/>
				<path class="st5" d="M63.8,133.3c-0.5,0-0.9-0.2-1.1-0.6c-0.3,0.3-0.6,0.5-1.1,0.5c-1,0-1.4-0.7-1.4-1.4c0-0.7,0.4-1.4,1.4-1.4
					c0.5,0,0.9,0.2,1.1,0.5c0.2-0.4,0.6-0.6,1.1-0.6c1,0,1.4,0.7,1.4,1.4C65.2,132.6,64.8,133.3,63.8,133.3z M61.6,131
					c-0.5,0-0.9,0.3-0.9,0.8c0,0.5,0.4,0.8,0.9,0.8c0.6,0,0.9-0.4,0.9-0.8C62.4,131.4,62.1,131,61.6,131z M63.8,131
					c-0.5,0-0.9,0.4-0.9,0.9c0,0.5,0.3,0.9,0.9,0.9c0.5,0,0.9-0.4,0.9-0.9C64.7,131.4,64.4,131,63.8,131z"/>
			</g>
		</g>
	</g>
	<g>
		
			<rect x="67" y="144" transform="matrix(4.491969e-11 -1 1 4.491969e-11 -74.0246 222.0216)" class="st9" width="14.1" height="8.1"/>
		<g>
			<g>
				<path class="st5" d="M75.5,152.5l-2-1.8c-0.3-0.3-0.6-0.4-1-0.4c-0.6,0-0.9,0.4-0.9,0.9c0,0.5,0.3,0.9,0.9,0.9h0.1v0.5h-0.1
					c-1.1,0-1.4-0.7-1.4-1.4c0-0.7,0.4-1.4,1.4-1.4c0.6,0,0.9,0.2,1.4,0.6l1.7,1.5v-2.1h0.5v2.8H75.5z"/>
				<path class="st5" d="M75.3,149v-0.7h0.7v0.7H75.3z"/>
				<path class="st5" d="M71.9,147.3l0.8,0.9H72l-0.8-0.9v-0.5h4.9v0.5H71.9z"/>
				<path class="st5" d="M71.9,145.1l0.8,0.9H72l-0.8-0.9v-0.5h4.9v0.5H71.9z"/>
			</g>
		</g>
	</g>
	<g>
		
			<rect x="87.9" y="147.8" transform="matrix(4.491969e-11 -1 1 4.491969e-11 -56.9161 246.8807)" class="st9" width="14.1" height="8.1"/>
		<g>
			<g>
				<path class="st5" d="M93.3,155.3l0.8,0.9h-0.7l-0.8-0.9v-0.5h4.9v0.5H93.3z"/>
				<path class="st5" d="M96.8,153.9v-0.7h0.7v0.7H96.8z"/>
				<path class="st5" d="M96.2,152.5L96.2,152.5l0-0.5h0.1c0.6,0,0.9-0.4,0.9-0.9c0-0.5-0.3-0.9-0.9-0.9h-0.8
					c0.2,0.2,0.3,0.6,0.3,0.9c0,0.7-0.3,1.4-1.4,1.4H94c-1.1,0-1.4-0.7-1.4-1.4c0-0.7,0.3-1.4,1.4-1.4h2.2c1.1,0,1.4,0.7,1.4,1.4
					C97.6,151.7,97.2,152.5,96.2,152.5z M94.2,150.2H94c-0.6,0-0.9,0.4-0.9,0.9c0,0.5,0.3,0.9,0.9,0.9h0.3c0.6,0,0.9-0.4,0.9-0.9
					C95.1,150.6,94.8,150.2,94.2,150.2z"/>
				<path class="st5" d="M96.2,149.1L96.2,149.1l0-0.5h0.1c0.6,0,0.9-0.4,0.9-0.9c0-0.5-0.3-0.8-0.8-0.8c-0.5,0-0.9,0.3-0.9,0.8v0.4
					h-0.5v-0.4c0-0.5-0.3-0.8-0.9-0.8c-0.5,0-0.9,0.4-0.9,0.9c0,0.5,0.3,0.9,0.9,0.9H94v0.5h0c-1.1,0-1.4-0.7-1.4-1.4
					c0-0.7,0.4-1.4,1.4-1.4c0.5,0,1,0.3,1.1,0.6c0.2-0.3,0.6-0.6,1.2-0.6c1,0,1.4,0.7,1.4,1.4C97.6,148.4,97.2,149.1,96.2,149.1z"/>
			</g>
		</g>
	</g>
	<g>
		
			<rect x="99.9" y="155.7" transform="matrix(4.491969e-11 -1 1 4.491969e-11 -52.7932 266.7416)" class="st9" width="14.1" height="8.1"/>
		<g>
			<g>
				<path class="st5" d="M105.4,164.1l0.8,0.9h-0.7l-0.8-0.9v-0.5h4.9v0.5H105.4z"/>
				<path class="st5" d="M108.9,162.7v-0.7h0.7v0.7H108.9z"/>
				<path class="st5" d="M108.2,161.2L108.2,161.2l0-0.5h0.1c0.6,0,0.9-0.4,0.9-0.9c0-0.5-0.3-0.9-0.9-0.9h-0.4
					c-0.6,0-0.9,0.4-0.9,0.9c0,0.4,0.2,0.7,0.5,0.8v0.5h-2.8v-2.6h0.5v2h1.5c-0.2-0.2-0.3-0.5-0.3-0.8c0-0.7,0.3-1.4,1.4-1.4h0.3
					c1.1,0,1.4,0.7,1.4,1.4C109.7,160.5,109.3,161.2,108.2,161.2z"/>
				<path class="st5" d="M108.2,157.9L108.2,157.9l0-0.5h0.1c0.6,0,0.9-0.4,0.9-0.9c0-0.5-0.3-0.9-0.9-0.9h-0.4
					c-0.6,0-0.9,0.4-0.9,0.9c0,0.4,0.2,0.7,0.5,0.8v0.5h-2.8v-2.6h0.5v2h1.5c-0.2-0.2-0.3-0.5-0.3-0.8c0-0.7,0.3-1.4,1.4-1.4h0.3
					c1.1,0,1.4,0.7,1.4,1.4C109.7,157.2,109.3,157.9,108.2,157.9z"/>
			</g>
		</g>
	</g>
	<g>
		
			<rect x="110" y="170" transform="matrix(4.491969e-11 -1 1 4.491969e-11 -57.0932 291.1336)" class="st9" width="14.1" height="8.1"/>
		<g>
			<g>
				<path class="st5" d="M118,178.5h-2.2c-1.1,0-1.4-0.7-1.4-1.4c0-0.7,0.3-1.4,1.4-1.4h2.2c1.1,0,1.4,0.7,1.4,1.4
					C119.4,177.7,119.1,178.5,118,178.5z M118,176.2h-2.2c-0.6,0-0.9,0.4-0.9,0.9c0,0.5,0.3,0.9,0.9,0.9h2.2c0.6,0,0.9-0.4,0.9-0.9
					C118.9,176.6,118.6,176.2,118,176.2z"/>
				<path class="st5" d="M118.6,174.9v-0.7h0.7v0.7H118.6z"/>
				<path class="st5" d="M118,173.5L118,173.5l0-0.5h0.1c0.6,0,0.9-0.4,0.9-0.9c0-0.5-0.3-0.9-0.9-0.9h-0.8c0.2,0.2,0.3,0.6,0.3,0.9
					c0,0.7-0.3,1.4-1.4,1.4h-0.3c-1.1,0-1.4-0.7-1.4-1.4c0-0.7,0.3-1.4,1.4-1.4h2.2c1.1,0,1.4,0.7,1.4,1.4
					C119.4,172.8,119.1,173.5,118,173.5z M116.1,171.2h-0.3c-0.6,0-0.9,0.4-0.9,0.9c0,0.5,0.3,0.9,0.9,0.9h0.3
					c0.6,0,0.9-0.4,0.9-0.9C117,171.6,116.7,171.2,116.1,171.2z"/>
				<path class="st5" d="M115.2,169.2l0.8,0.9h-0.7l-0.8-0.9v-0.5h4.9v0.5H115.2z"/>
			</g>
		</g>
	</g>
	<g>
		
			<rect x="143.8" y="179" transform="matrix(4.491969e-11 -1 1 4.491969e-11 -32.1848 333.9412)" class="st9" width="14.1" height="8.1"/>
		<g>
			<g>
				<path class="st5" d="M151.7,188.4h-2.2c-1.1,0-1.4-0.7-1.4-1.4c0-0.7,0.3-1.4,1.4-1.4h2.2c1.1,0,1.4,0.7,1.4,1.4
					C153.1,187.6,152.8,188.4,151.7,188.4z M151.7,186.1h-2.2c-0.6,0-0.9,0.4-0.9,0.9c0,0.5,0.3,0.9,0.9,0.9h2.2
					c0.6,0,0.9-0.4,0.9-0.9C152.6,186.5,152.3,186.1,151.7,186.1z"/>
				<path class="st5" d="M152.3,184.8v-0.7h0.7v0.7H152.3z"/>
				<path class="st5" d="M151.7,183.4L151.7,183.4l0-0.5h0.1c0.6,0,0.9-0.4,0.9-0.9c0-0.5-0.3-0.9-0.9-0.9h-0.4
					c-0.6,0-0.9,0.4-0.9,0.9c0,0.4,0.2,0.7,0.5,0.8v0.5h-2.8v-2.6h0.5v2h1.5c-0.2-0.2-0.3-0.5-0.3-0.8c0-0.7,0.3-1.4,1.4-1.4h0.3
					c1.1,0,1.4,0.7,1.4,1.4C153.1,182.6,152.8,183.4,151.7,183.4z"/>
				<path class="st5" d="M152.5,180.2l-2-1.8c-0.3-0.3-0.6-0.4-1-0.4c-0.6,0-0.9,0.4-0.9,0.9c0,0.5,0.3,0.9,0.9,0.9h0.1v0.5h-0.1
					c-1.1,0-1.4-0.7-1.4-1.4c0-0.7,0.4-1.4,1.4-1.4c0.6,0,0.9,0.2,1.4,0.6l1.7,1.5v-2.1h0.5v2.8H152.5z"/>
			</g>
		</g>
	</g>
	<g>
		
			<rect x="175.9" y="185" transform="matrix(4.485485e-11 -1 1 4.485485e-11 -6.1916 372.0264)" class="st9" width="14.1" height="8.1"/>
		<g>
			<g>
				<path class="st5" d="M183.8,194.4h-2.2c-1.1,0-1.4-0.7-1.4-1.4c0-0.7,0.3-1.4,1.4-1.4h2.2c1.1,0,1.4,0.7,1.4,1.4
					C185.3,193.7,184.9,194.4,183.8,194.4z M183.9,192.1h-2.2c-0.6,0-0.9,0.4-0.9,0.9c0,0.5,0.3,0.9,0.9,0.9h2.2
					c0.6,0,0.9-0.4,0.9-0.9C184.7,192.5,184.4,192.1,183.9,192.1z"/>
				<path class="st5" d="M184.5,190.9v-0.7h0.7v0.7H184.5z"/>
				<path class="st5" d="M184.7,189.5l-2-1.8c-0.3-0.3-0.6-0.4-1-0.4c-0.6,0-0.9,0.4-0.9,0.9c0,0.5,0.3,0.9,0.9,0.9h0.1v0.5h-0.1
					c-1.1,0-1.4-0.7-1.4-1.4c0-0.7,0.4-1.4,1.4-1.4c0.6,0,0.9,0.2,1.4,0.6l1.7,1.5v-2.1h0.5v2.8H184.7z"/>
				<path class="st5" d="M183.9,186.1L183.9,186.1l0-0.5h0.1c0.6,0,0.9-0.4,0.9-0.9c0-0.5-0.3-0.9-0.9-0.9h-0.4
					c-0.6,0-0.9,0.4-0.9,0.9c0,0.4,0.2,0.7,0.5,0.8v0.5h-2.8v-2.6h0.5v2h1.5c-0.2-0.2-0.3-0.5-0.3-0.8c0-0.7,0.3-1.4,1.4-1.4h0.3
					c1.1,0,1.4,0.7,1.4,1.4C185.3,185.4,184.9,186.1,183.9,186.1z"/>
			</g>
		</g>
	</g>
	<g>
		
			<rect x="198.7" y="188.9" transform="matrix(4.491969e-11 -1 1 4.491969e-11 12.8495 398.72)" class="st2" width="14.1" height="8.1"/>
		<g>
			<g>
				<path class="st5" d="M206.6,194.2h-2.2c-1.1,0-1.4-0.7-1.4-1.4c0-0.7,0.3-1.4,1.4-1.4h2.2c1.1,0,1.4,0.7,1.4,1.4
					C208,193.4,207.7,194.2,206.6,194.2z M206.6,191.9h-2.2c-0.6,0-0.9,0.4-0.9,0.9c0,0.5,0.3,0.9,0.9,0.9h2.2
					c0.6,0,0.9-0.4,0.9-0.9C207.5,192.3,207.2,191.9,206.6,191.9z"/>
			</g>
		</g>
	</g>
	<g>
		
			<rect x="209.9" y="188.9" transform="matrix(4.491969e-11 -1 1 4.491969e-11 24.0485 409.9189)" class="st2" width="14.1" height="8.1"/>
		<g>
			<g>
				<path class="st5" d="M217.8,194.2h-2.2c-1.1,0-1.4-0.7-1.4-1.4c0-0.7,0.3-1.4,1.4-1.4h2.2c1.1,0,1.4,0.7,1.4,1.4
					C219.2,193.4,218.9,194.2,217.8,194.2z M217.8,191.9h-2.2c-0.6,0-0.9,0.4-0.9,0.9c0,0.5,0.3,0.9,0.9,0.9h2.2
					c0.6,0,0.9-0.4,0.9-0.9C218.7,192.3,218.4,191.9,217.8,191.9z"/>
			</g>
		</g>
	</g>
	<g>
		
			<rect x="220.9" y="188.9" transform="matrix(4.491969e-11 -1 1 4.491969e-11 35.014 420.8844)" class="st2" width="14.1" height="8.1"/>
		<g>
			<g>
				<path class="st5" d="M228.8,194.2h-2.2c-1.1,0-1.4-0.7-1.4-1.4c0-0.7,0.3-1.4,1.4-1.4h2.2c1.1,0,1.4,0.7,1.4,1.4
					C230.2,193.4,229.8,194.2,228.8,194.2z M228.8,191.9h-2.2c-0.6,0-0.9,0.4-0.9,0.9c0,0.5,0.3,0.9,0.9,0.9h2.2
					c0.6,0,0.9-0.4,0.9-0.9C229.7,192.3,229.4,191.9,228.8,191.9z"/>
			</g>
		</g>
	</g>
	<g>
		
			<rect x="232" y="188.9" transform="matrix(4.491969e-11 -1 1 4.491969e-11 46.0962 431.9666)" class="st2" width="14.1" height="8.1"/>
		<g>
			<g>
				<path class="st5" d="M239.8,194.2h-2.2c-1.1,0-1.4-0.7-1.4-1.4c0-0.7,0.3-1.4,1.4-1.4h2.2c1.1,0,1.4,0.7,1.4,1.4
					C241.3,193.4,240.9,194.2,239.8,194.2z M239.9,191.9h-2.2c-0.6,0-0.9,0.4-0.9,0.9c0,0.5,0.3,0.9,0.9,0.9h2.2
					c0.6,0,0.9-0.4,0.9-0.9C240.7,192.3,240.4,191.9,239.9,191.9z"/>
			</g>
		</g>
	</g>
	<g>
		
			<rect x="242.4" y="187.8" transform="matrix(4.492413e-11 -1 1 4.492413e-11 58.2724 442.5844)" class="st1" width="16.1" height="8.8"/>
		<g>
			<g>
				<path class="st5" d="M250.8,199.1h-0.5v-2h0.5V199.1z"/>
				<path class="st5" d="M251.6,196.5h-2.2c-1.1,0-1.4-0.7-1.4-1.4c0-0.7,0.3-1.4,1.4-1.4h2.2c1.1,0,1.4,0.7,1.4,1.4
					C253,195.8,252.6,196.5,251.6,196.5z M251.6,194.3h-2.2c-0.6,0-0.9,0.4-0.9,0.9c0,0.5,0.3,0.9,0.9,0.9h2.2
					c0.6,0,0.9-0.4,0.9-0.9C252.5,194.7,252.2,194.3,251.6,194.3z"/>
				<path class="st5" d="M252.2,193v-0.7h0.7v0.7H252.2z"/>
				<path class="st5" d="M251.6,189.7v2.2h-0.5l-3.1-2.2v-0.5h3.1v-0.5h0.5v0.5h1.3v0.5H251.6z M251.1,189.7h-2.2l2.2,1.6V189.7z"/>
				<path class="st5" d="M252.4,188.4l-2-1.8c-0.3-0.3-0.6-0.4-1-0.4c-0.6,0-0.9,0.4-0.9,0.9c0,0.5,0.3,0.9,0.9,0.9h0.1v0.5h-0.1
					c-1.1,0-1.4-0.7-1.4-1.4c0-0.7,0.4-1.4,1.4-1.4c0.6,0,0.9,0.2,1.4,0.6l1.7,1.5v-2.1h0.5v2.8H252.4z"/>
			</g>
		</g>
	</g>
	<g>
		
			<rect x="22.6" y="68.9" transform="matrix(4.483620e-11 -1 1 4.483620e-11 -43.4302 102.5368)" class="st9" width="13.9" height="8.1"/>
		<g>
			<g>
				<path class="st5" d="M30.2,77.5L30.2,77.5l0-0.5h0.1c0.6,0,0.9-0.4,0.9-0.9c0-0.5-0.3-0.9-0.9-0.9h-0.4c-0.6,0-0.9,0.4-0.9,0.9
					c0,0.4,0.2,0.7,0.5,0.8v0.5h-2.8v-2.6h0.5v2h1.5c-0.2-0.2-0.3-0.5-0.3-0.8c0-0.7,0.3-1.4,1.4-1.4h0.3c1.1,0,1.4,0.7,1.4,1.4
					C31.6,76.8,31.3,77.5,30.2,77.5z"/>
				<path class="st5" d="M30.8,74.1v-0.7h0.7v0.7H30.8z"/>
				<path class="st5" d="M30.2,72.6L30.2,72.6l0-0.5h0.1c0.6,0,0.9-0.4,0.9-0.9c0-0.5-0.3-0.9-0.9-0.9h-0.4c-0.6,0-0.9,0.4-0.9,0.9
					c0,0.4,0.2,0.7,0.5,0.8v0.5h-2.8V70h0.5v2h1.5c-0.2-0.2-0.3-0.5-0.3-0.8c0-0.7,0.3-1.4,1.4-1.4h0.3c1.1,0,1.4,0.7,1.4,1.4
					C31.6,71.9,31.3,72.6,30.2,72.6z"/>
				<path class="st5" d="M27.4,68.5l0.8,0.9h-0.7l-0.8-0.9V68h4.9v0.5H27.4z"/>
			</g>
		</g>
	</g>
	<g>
		
			<rect x="44.6" y="115.1" transform="matrix(4.492235e-11 -1 1 4.492235e-11 -67.6369 170.711)" class="st9" width="13.9" height="8.1"/>
		<g>
			<g>
				<path class="st5" d="M52.8,124.4L52.8,124.4l0-0.5h0.1c0.6,0,0.9-0.4,0.9-0.9c0-0.5-0.3-0.8-0.8-0.8c-0.5,0-0.9,0.3-0.9,0.8v0.4
					h-0.5V123c0-0.5-0.3-0.8-0.9-0.8c-0.5,0-0.9,0.4-0.9,0.9c0,0.5,0.3,0.9,0.9,0.9h0.1v0.5h0c-1.1,0-1.4-0.7-1.4-1.4
					c0-0.7,0.4-1.4,1.4-1.4c0.5,0,1,0.3,1.1,0.6c0.2-0.3,0.6-0.6,1.2-0.6c1,0,1.4,0.7,1.4,1.4C54.2,123.6,53.8,124.4,52.8,124.4z"/>
				<path class="st5" d="M53.4,120.9v-0.7h0.7v0.7H53.4z"/>
				<path class="st5" d="M52.8,117.6v2.2h-0.5l-3.1-2.2V117h3.1v-0.5h0.5v0.5h1.3v0.5H52.8z M52.3,117.6h-2.2l2.2,1.6V117.6z"/>
				<path class="st5" d="M49.7,114.3v2.2h-0.5v-2.8h0.5l4.4,1.5v0.6L49.7,114.3z"/>
			</g>
		</g>
	</g>
	<g>
		
			<rect x="77.5" y="144" transform="matrix(4.485485e-11 -1 1 4.485485e-11 -63.5104 232.5358)" class="st9" width="14.1" height="8.1"/>
		<g>
			<g>
				<path class="st5" d="M86,153.5l-2-1.8c-0.3-0.3-0.6-0.4-1-0.4c-0.6,0-0.9,0.4-0.9,0.9c0,0.5,0.3,0.9,0.9,0.9h0.1v0.5H83
					c-1.1,0-1.4-0.7-1.4-1.4c0-0.7,0.4-1.4,1.4-1.4c0.6,0,0.9,0.2,1.4,0.6l1.7,1.5v-2.1h0.5v2.8H86z"/>
				<path class="st5" d="M85.8,150v-0.7h0.7v0.7H85.8z"/>
				<path class="st5" d="M85.2,148.6H83c-1.1,0-1.4-0.7-1.4-1.4c0-0.7,0.3-1.4,1.4-1.4h2.2c1.1,0,1.4,0.7,1.4,1.4
					C86.6,147.8,86.2,148.6,85.2,148.6z M85.2,146.3H83c-0.6,0-0.9,0.4-0.9,0.9c0,0.5,0.3,0.9,0.9,0.9h2.2c0.6,0,0.9-0.4,0.9-0.9
					C86.1,146.7,85.8,146.3,85.2,146.3z"/>
				<path class="st5" d="M85.2,145.2L85.2,145.2l0-0.5h0.1c0.6,0,0.9-0.4,0.9-0.9c0-0.5-0.3-0.9-0.9-0.9h-0.8
					c0.2,0.2,0.3,0.6,0.3,0.9c0,0.7-0.3,1.4-1.4,1.4H83c-1.1,0-1.4-0.7-1.4-1.4c0-0.7,0.3-1.4,1.4-1.4h2.2c1.1,0,1.4,0.7,1.4,1.4
					C86.6,144.4,86.2,145.2,85.2,145.2z M83.3,142.9H83c-0.6,0-0.9,0.4-0.9,0.9c0,0.5,0.3,0.9,0.9,0.9h0.3c0.6,0,0.9-0.4,0.9-0.9
					C84.1,143.3,83.9,142.9,83.3,142.9z"/>
			</g>
		</g>
	</g>
	<g>
		
			<rect x="121.4" y="174.6" transform="matrix(4.485485e-11 -1 1 4.485485e-11 -50.2053 307.1658)" class="st9" width="14.1" height="8.1"/>
		<g>
			<g>
				<path class="st5" d="M129.4,183.1h-2.2c-1.1,0-1.4-0.7-1.4-1.4c0-0.7,0.3-1.4,1.4-1.4h2.2c1.1,0,1.4,0.7,1.4,1.4
					C130.9,182.4,130.5,183.1,129.4,183.1z M129.4,180.8h-2.2c-0.6,0-0.9,0.4-0.9,0.9c0,0.5,0.3,0.9,0.9,0.9h2.2
					c0.6,0,0.9-0.4,0.9-0.9C130.3,181.2,130,180.8,129.4,180.8z"/>
				<path class="st5" d="M130.1,179.6v-0.7h0.7v0.7H130.1z"/>
				<path class="st5" d="M126.4,176.5v2.2h-0.5V176h0.5l4.4,1.5v0.6L126.4,176.5z"/>
				<path class="st5" d="M130.3,175.7l-2-1.8c-0.3-0.3-0.6-0.4-1-0.4c-0.6,0-0.9,0.4-0.9,0.9c0,0.5,0.3,0.9,0.9,0.9h0.1v0.5h-0.1
					c-1.1,0-1.4-0.7-1.4-1.4c0-0.7,0.4-1.4,1.4-1.4c0.6,0,0.9,0.2,1.4,0.6l1.7,1.5v-2.1h0.5v2.8H130.3z"/>
			</g>
		</g>
	</g>
	<g>
		
			<rect x="132.4" y="179" transform="matrix(4.491969e-11 -1 1 4.491969e-11 -43.5909 322.5351)" class="st9" width="14.1" height="8.1"/>
		<g>
			<g>
				<path class="st5" d="M140.1,188.5h-2.2c-1.1,0-1.4-0.7-1.4-1.4c0-0.7,0.3-1.4,1.4-1.4h2.2c1.1,0,1.4,0.7,1.4,1.4
					C141.5,187.7,141.2,188.5,140.1,188.5z M140.1,186.2h-2.2c-0.6,0-0.9,0.4-0.9,0.9c0,0.5,0.3,0.9,0.9,0.9h2.2
					c0.6,0,0.9-0.4,0.9-0.9C141,186.6,140.7,186.2,140.1,186.2z"/>
				<path class="st5" d="M140.7,184.9v-0.7h0.7v0.7H140.7z"/>
				<path class="st5" d="M140.1,183.5L140.1,183.5l0-0.5h0.1c0.6,0,0.9-0.4,0.9-0.9c0-0.5-0.3-0.9-0.9-0.9h-0.4
					c-0.6,0-0.9,0.4-0.9,0.9c0,0.4,0.2,0.7,0.5,0.8v0.5h-2.8v-2.6h0.5v2h1.5c-0.2-0.2-0.3-0.5-0.3-0.8c0-0.7,0.3-1.4,1.4-1.4h0.3
					c1.1,0,1.4,0.7,1.4,1.4C141.5,182.7,141.2,183.5,140.1,183.5z"/>
				<path class="st5" d="M140.9,180.3l-2-1.8c-0.3-0.3-0.6-0.4-1-0.4c-0.6,0-0.9,0.4-0.9,0.9c0,0.5,0.3,0.9,0.9,0.9h0.1v0.5h-0.1
					c-1.1,0-1.4-0.7-1.4-1.4c0-0.7,0.4-1.4,1.4-1.4c0.6,0,0.9,0.2,1.4,0.6l1.7,1.5v-2.1h0.5v2.8H140.9z"/>
			</g>
		</g>
	</g>
	<g>
		
			<rect x="154.4" y="180.3" transform="matrix(4.491969e-11 -1 1 4.491969e-11 -22.9244 345.8362)" class="st9" width="14.1" height="8.1"/>
		<g>
			<g>
				<path class="st5" d="M162.1,189.9h-2.2c-1.1,0-1.4-0.7-1.4-1.4c0-0.7,0.3-1.4,1.4-1.4h2.2c1.1,0,1.4,0.7,1.4,1.4
					C163.5,189.1,163.2,189.9,162.1,189.9z M162.1,187.6h-2.2c-0.6,0-0.9,0.4-0.9,0.9c0,0.5,0.3,0.9,0.9,0.9h2.2
					c0.6,0,0.9-0.4,0.9-0.9C163,188,162.7,187.6,162.1,187.6z"/>
				<path class="st5" d="M162.7,186.3v-0.7h0.7v0.7H162.7z"/>
				<path class="st5" d="M162.1,183v2.2h-0.5l-3.1-2.2v-0.5h3.1V182h0.5v0.5h1.3v0.5H162.1z M161.6,183h-2.2l2.2,1.6V183z"/>
				<path class="st5" d="M162.1,181.6h-2.2c-1.1,0-1.4-0.7-1.4-1.4c0-0.7,0.3-1.4,1.4-1.4h0v0.5h-0.1c-0.6,0-0.9,0.4-0.9,0.9
					c0,0.5,0.3,0.9,0.9,0.9h0.8c-0.2-0.2-0.3-0.6-0.3-0.9c0-0.7,0.3-1.4,1.4-1.4h0.3c1.1,0,1.4,0.7,1.4,1.4
					C163.5,180.9,163.2,181.6,162.1,181.6z M162.1,179.3h-0.3c-0.6,0-0.9,0.4-0.9,0.9c0,0.5,0.3,0.9,0.9,0.9h0.3
					c0.6,0,0.9-0.4,0.9-0.9C163,179.7,162.7,179.3,162.1,179.3z"/>
			</g>
		</g>
	</g>
	<g>
		
			<rect x="165.6" y="181.7" transform="matrix(4.491969e-11 -1 1 4.491969e-11 -13.0767 358.3865)" class="st9" width="14.1" height="8.1"/>
		<g>
			<g>
				<path class="st5" d="M173.5,191.3h-2.2c-1.1,0-1.4-0.7-1.4-1.4c0-0.7,0.3-1.4,1.4-1.4h2.2c1.1,0,1.4,0.7,1.4,1.4
					C175,190.5,174.6,191.3,173.5,191.3z M173.5,189h-2.2c-0.6,0-0.9,0.4-0.9,0.9c0,0.5,0.3,0.9,0.9,0.9h2.2c0.6,0,0.9-0.4,0.9-0.9
					C174.4,189.4,174.1,189,173.5,189z"/>
				<path class="st5" d="M174.2,187.7V187h0.7v0.7H174.2z"/>
				<path class="st5" d="M173.5,186.4L173.5,186.4l0-0.5h0.1c0.6,0,0.9-0.4,0.9-0.9c0-0.5-0.3-0.8-0.8-0.8c-0.5,0-0.9,0.3-0.9,0.8
					v0.4h-0.5v-0.4c0-0.5-0.3-0.8-0.9-0.8c-0.5,0-0.9,0.4-0.9,0.9c0,0.5,0.3,0.9,0.9,0.9h0.1v0.5h0c-1.1,0-1.4-0.7-1.4-1.4
					c0-0.7,0.4-1.4,1.4-1.4c0.5,0,1,0.3,1.1,0.6c0.2-0.3,0.6-0.6,1.2-0.6c1,0,1.4,0.7,1.4,1.4C175,185.6,174.6,186.4,173.5,186.4z"
					/>
				<path class="st5" d="M173.5,183L173.5,183l0-0.5h0.1c0.6,0,0.9-0.4,0.9-0.9c0-0.5-0.3-0.9-0.9-0.9h-0.8c0.2,0.2,0.3,0.6,0.3,0.9
					c0,0.7-0.3,1.4-1.4,1.4h-0.3c-1.1,0-1.4-0.7-1.4-1.4c0-0.7,0.3-1.4,1.4-1.4h2.2c1.1,0,1.4,0.7,1.4,1.4
					C175,182.3,174.6,183,173.5,183z M171.6,180.7h-0.3c-0.6,0-0.9,0.4-0.9,0.9c0,0.5,0.3,0.9,0.9,0.9h0.3c0.6,0,0.9-0.4,0.9-0.9
					C172.5,181.1,172.2,180.7,171.6,180.7z"/>
			</g>
		</g>
	</g>
	<g>
		
			<rect x="187.4" y="188.7" transform="matrix(4.491969e-11 -1 1 4.491969e-11 1.654 387.2092)" class="st9" width="14.1" height="8.1"/>
		<g>
			<g>
				<path class="st5" d="M195.3,198.5h-2.2c-1.1,0-1.4-0.7-1.4-1.4c0-0.7,0.3-1.4,1.4-1.4h2.2c1.1,0,1.4,0.7,1.4,1.4
					C196.8,197.7,196.4,198.5,195.3,198.5z M195.4,196.2h-2.2c-0.6,0-0.9,0.4-0.9,0.9c0,0.5,0.3,0.9,0.9,0.9h2.2
					c0.6,0,0.9-0.4,0.9-0.9C196.2,196.6,195.9,196.2,195.4,196.2z"/>
				<path class="st5" d="M196,194.9v-0.7h0.7v0.7H196z"/>
				<path class="st5" d="M195.3,193.5h-2.2c-1.1,0-1.4-0.7-1.4-1.4c0-0.7,0.3-1.4,1.4-1.4h2.2c1.1,0,1.4,0.7,1.4,1.4
					C196.8,192.7,196.4,193.5,195.3,193.5z M195.4,191.2h-2.2c-0.6,0-0.9,0.4-0.9,0.9c0,0.5,0.3,0.9,0.9,0.9h2.2
					c0.6,0,0.9-0.4,0.9-0.9C196.2,191.6,195.9,191.2,195.4,191.2z"/>
				<path class="st5" d="M195.4,190L195.4,190l0-0.5h0.1c0.6,0,0.9-0.4,0.9-0.9c0-0.5-0.3-0.9-0.9-0.9h-0.8c0.2,0.2,0.3,0.6,0.3,0.9
					c0,0.7-0.3,1.4-1.4,1.4h-0.3c-1.1,0-1.4-0.7-1.4-1.4c0-0.7,0.3-1.4,1.4-1.4h2.2c1.1,0,1.4,0.7,1.4,1.4
					C196.8,189.3,196.4,190,195.4,190z M193.4,187.8h-0.3c-0.6,0-0.9,0.4-0.9,0.9c0,0.5,0.3,0.9,0.9,0.9h0.3c0.6,0,0.9-0.4,0.9-0.9
					C194.3,188.2,194,187.8,193.4,187.8z"/>
			</g>
		</g>
	</g>
</g>
</svg>
