<svg id="Layer_1" data-name="Layer 1" xmlns="http://www.w3.org/2000/svg" xmlns:xlink="http://www.w3.org/1999/xlink" viewBox="0 0 95.34 104.32"><defs><style>.cls-1{fill:none;}.cls-2{fill:#5aa9d3;}.cls-3{clip-path:url(#clip-path);}.cls-4{fill:#244c66;}</style><clipPath id="clip-path"><rect class="cls-1" x="-3867" y="-7402.17" width="5059.95" height="6765.77"/></clipPath></defs><title>Index </title><path class="cls-2" d="M22.25,83.78h-8.8v8.35H5.58V65h7.87v8.4h8.8l0.13,2.3H11.15v-8.4H7.88V89.83h3.26V81.48H22.38Z"/><path class="cls-4" d="M73.81,55.11c-0.25.58-.75,0.48-1.21,0.28l2.49-5.79L76,50ZM42.45,52.62l14.62,6.29c3.12,1.43,7.11,1.81,10-.31l3.52,1.5,1.16-2.69A3,3,0,0,0,75.84,56L78,50.86l1.62,0.7,9.86-7.68L10.58,10C7.79,16.48,2.91,25,9.51,30.85l-2.8,6.44,12.9,5.56L16.52,50c1.58,0.69,3,1.56,2.47,3.61a8.86,8.86,0,0,0,3.26,10.73V89.48c0,6.47,9.84,6.47,9.84,0V64.37a8.73,8.73,0,0,0,3.38-4.3c1.2-1.36,2.49-.83,3.88-0.23ZM22.25,75.67v5.72M21.64,43.71l18.76,8-2.27,5.3A4.66,4.66,0,0,0,36,57.2a8.93,8.93,0,0,0-15.22-6.45A4.68,4.68,0,0,0,19.37,49Zm8.24,21.73v24c0,3.6-5.42,3.53-5.42,0v-24A8.83,8.83,0,0,0,29.88,65.44ZM24.71,50.87c5.63-2.25,10.75,3.65,8.52,8.82A6.63,6.63,0,1,1,24.71,50.87ZM9.62,36.14l1.7-4a34.8,34.8,0,0,0,4.54,2.31c9.24,4.21,18.69,8,28,11.94C48,43.1,51,38.91,56.8,41.75l13.29,5.71-3.84,9c-2.6,2.28-5.41,1.53-8.37.45C41.81,49.92,25.69,43.09,9.62,36.14Zm48,3.57C51,36.88,48.28,40,43.54,43.89,34.35,40,25.09,36.26,16,32.14,5.34,27.29,8,21.51,11.73,12.89L85.21,44.44,79.32,49C72.1,45.91,64.9,42.76,57.65,39.71Zm15.4,9L69.4,57.21l-0.92-.4,3.63-8.47Z"/><path class="cls-2" d="M27.11,65.9A8.89,8.89,0,1,1,36,57,8.9,8.9,0,0,1,27.11,65.9Zm0-15.49A6.59,6.59,0,1,0,33.71,57,6.6,6.6,0,0,0,27.11,50.42Z"/></svg>